<svg xmlns="http://www.w3.org/2000/svg" viewBox="0 0 1069.65 391.67"><defs><style>.cls-1,.cls-10,.cls-12,.cls-13,.cls-18,.cls-9{fill:none;}.cls-1,.cls-10,.cls-12,.cls-13,.cls-16,.cls-17,.cls-18,.cls-9{stroke:#ce0865;stroke-miterlimit:10;}.cls-11,.cls-2,.cls-8{fill:#333c41;}.cls-11,.cls-3{font-size:11px;}.cls-16,.cls-17,.cls-3,.cls-5{fill:#fff;}.cls-11,.cls-3,.cls-8{font-family:Helvetica-Bold, Helvetica;font-weight:700;}.cls-4{fill:#ce0865;}.cls-6{fill:#8a8b8f;}.cls-7{fill:#e5e5e7;}.cls-8{font-size:16px;}.cls-9{stroke-width:8.47px;}.cls-10,.cls-16{stroke-width:7px;}.cls-12,.cls-18{stroke-width:0.5px;}.cls-13{stroke-width:0.58px;}.cls-14{letter-spacing:-0.05em;}.cls-15{letter-spacing:-0.02em;}.cls-17{stroke-width:3px;}.cls-18{stroke-linecap:round;}</style></defs><g id="Layer_2" data-name="Layer 2"><g id="Layer_1-2" data-name="Layer 1"><line class="cls-1" x1="592.28" y1="214.28" x2="619.62" y2="228.32"></line><line class="cls-1" x1="461.28" y1="228.32" x2="488.62" y2="214.28"></line><circle class="cls-2" cx="644.97" cy="231.49" r="35.78"></circle><text class="cls-3" transform="translate(622.66 232.3)">Lifestyle<tspan x="10.39" y="12">Data </tspan></text><circle class="cls-2" cx="434.38" cy="231.49" r="35.78"></circle><text class="cls-3" transform="translate(414.82 232.3)">Clinical<tspan x="7.64" y="12">Data </tspan></text><path class="cls-4" d="M881.11,128.65a39.43,39.43,0,1,1,39.43-39.43A39.47,39.47,0,0,1,881.11,128.65Zm0-78.14a38.71,38.71,0,1,0,38.71,38.71A38.75,38.75,0,0,0,881.11,50.51Z"></path><circle class="cls-4" cx="906.27" cy="118.73" r="2.8"></circle><circle class="cls-2" cx="898.39" cy="123.75" r="2.8"></circle><circle class="cls-4" cx="889.79" cy="127.33" r="2.8"></circle><rect class="cls-5" x="860.61" y="82.33" width="8.92" height="28.82" rx="4.46"></rect><path class="cls-4" d="M865.07,111.94a5.25,5.25,0,0,1-5.25-5.24V86.79a5.25,5.25,0,0,1,10.49,0V106.7A5.25,5.25,0,0,1,865.07,111.94Zm0-28.82a3.68,3.68,0,0,0-3.68,3.67V106.7a3.68,3.68,0,0,0,7.36,0V86.79A3.68,3.68,0,0,0,865.07,83.12Z"></path><rect class="cls-5" x="858.89" y="78.9" width="12.35" height="7.55" rx="0.68"></rect><path class="cls-4" d="M870.57,87.23h-11a1.45,1.45,0,0,1-1.46-1.45v-6.2a1.46,1.46,0,0,1,1.46-1.46h11A1.46,1.46,0,0,1,872,79.58v6.2A1.45,1.45,0,0,1,870.57,87.23Zm-10.89-1.56h10.78v-6H859.68Z"></path><rect class="cls-6" x="876.29" y="82.33" width="8.92" height="28.82" rx="4.46"></rect><path class="cls-6" d="M880.76,111.75a5.06,5.06,0,0,1-5-5V86.79a5,5,0,1,1,10.1,0V106.7A5.06,5.06,0,0,1,880.76,111.75Zm0-28.83a3.88,3.88,0,0,0-3.88,3.87V106.7a3.88,3.88,0,0,0,7.75,0V86.79A3.88,3.88,0,0,0,880.76,82.92Z"></path><rect class="cls-6" x="874.58" y="78.9" width="12.35" height="7.55" rx="0.68"></rect><path class="cls-6" d="M886.26,87h-11A1.27,1.27,0,0,1,874,85.78v-6.2a1.27,1.27,0,0,1,1.26-1.27h11a1.27,1.27,0,0,1,1.26,1.27v6.2A1.27,1.27,0,0,1,886.26,87Zm-11-7.55a.09.09,0,0,0-.08.09v6.2a.09.09,0,0,0,.08.08h11a.09.09,0,0,0,.08-.08v-6.2a.09.09,0,0,0-.08-.09Z"></path><rect class="cls-2" x="891.98" y="82.33" width="8.92" height="28.82" rx="4.46"></rect><path class="cls-2" d="M896.44,111.75a5.06,5.06,0,0,1-5.05-5V86.79a5.05,5.05,0,1,1,10.1,0V106.7A5.06,5.06,0,0,1,896.44,111.75Zm0-28.83a3.88,3.88,0,0,0-3.87,3.87V106.7a3.88,3.88,0,0,0,7.75,0V86.79A3.88,3.88,0,0,0,896.44,82.92Z"></path><rect class="cls-2" x="890.27" y="78.9" width="12.35" height="7.55" rx="0.68"></rect><path class="cls-2" d="M901.94,87h-11a1.26,1.26,0,0,1-1.26-1.26v-6.2a1.26,1.26,0,0,1,1.26-1.27h11a1.27,1.27,0,0,1,1.27,1.27v6.2A1.27,1.27,0,0,1,901.94,87Zm-11-7.55a.09.09,0,0,0-.09.09v6.2a.09.09,0,0,0,.09.08h11a.09.09,0,0,0,.09-.08v-6.2a.09.09,0,0,0-.09-.09Z"></path><circle class="cls-5" cx="865.09" cy="69.39" r="3.83"></circle><path class="cls-4" d="M865.08,74.79a5.45,5.45,0,1,1,.64,0C865.51,74.77,865.29,74.79,865.08,74.79Zm0-7.66-.27,0a2.26,2.26,0,1,0,2,3.64,2.27,2.27,0,0,0,.47-1.66h0a2.26,2.26,0,0,0-2.24-2Z"></path><path class="cls-4" d="M881.11,332.74a39.43,39.43,0,1,1,39.43-39.43A39.47,39.47,0,0,1,881.11,332.74Zm0-78.14a38.71,38.71,0,1,0,38.71,38.71A38.75,38.75,0,0,0,881.11,254.6Z"></path><circle class="cls-4" cx="906.27" cy="322.81" r="2.8"></circle><circle class="cls-2" cx="898.39" cy="327.83" r="2.8"></circle><circle class="cls-4" cx="889.79" cy="331.42" r="2.8"></circle><rect class="cls-5" x="877.3" y="280.04" width="28.96" height="36.86"></rect><path class="cls-4" d="M907.11,317.75H876.45V279.18h30.66Zm-29-1.71h27.26V280.89H878.15Z"></path><rect class="cls-2" x="882.61" y="285.36" width="2.62" height="3.93"></rect><rect class="cls-2" x="887.85" y="285.36" width="2.62" height="3.93"></rect><rect class="cls-2" x="893.09" y="285.36" width="2.62" height="3.93"></rect><rect class="cls-2" x="898.33" y="285.36" width="2.62" height="3.93"></rect><rect class="cls-2" x="882.61" y="291.91" width="2.62" height="3.93"></rect><rect class="cls-2" x="887.85" y="291.91" width="2.62" height="3.93"></rect><rect class="cls-2" x="893.09" y="291.91" width="2.62" height="3.93"></rect><rect class="cls-2" x="898.33" y="291.91" width="2.62" height="3.93"></rect><rect class="cls-2" x="882.61" y="298.47" width="2.62" height="3.93"></rect><rect class="cls-2" x="887.85" y="298.47" width="2.62" height="3.93"></rect><rect class="cls-2" x="893.09" y="298.47" width="2.62" height="3.93"></rect><rect class="cls-2" x="898.33" y="298.47" width="2.62" height="3.93"></rect><rect class="cls-2" x="882.61" y="305.02" width="2.62" height="3.93"></rect><rect class="cls-2" x="898.33" y="305.02" width="2.62" height="3.93"></rect><rect class="cls-7" x="887.85" y="307.07" width="7.86" height="9.83"></rect><path class="cls-4" d="M896.56,317.75H887V306.21h9.56ZM888.7,316h6.16v-8.12H888.7Z"></path><line class="cls-7" x1="891.78" y1="307.07" x2="891.78" y2="316.56"></line><rect class="cls-4" x="890.93" y="307.07" width="1.71" height="9.49"></rect><circle class="cls-2" cx="869.51" cy="276.71" r="13.65"></circle><path class="cls-5" d="M871.28,284.33h-3.75a1.44,1.44,0,0,1-1.44-1.45v-3h-3a1.45,1.45,0,0,1-1.45-1.45v-3.74a1.45,1.45,0,0,1,1.45-1.45h3v-3a1.44,1.44,0,0,1,1.44-1.44h3.75a1.45,1.45,0,0,1,1.44,1.44v3h3a1.45,1.45,0,0,1,1.45,1.45v3.74a1.45,1.45,0,0,1-1.45,1.45h-3v3A1.45,1.45,0,0,1,871.28,284.33Zm-3.49-1.71H871v-4.46h4.46v-3.22H871v-4.47h-3.23v4.47h-4.46v3.22h4.46Z"></path><circle class="cls-5" cx="856.28" cy="291.62" r="6.83"></circle><path class="cls-4" d="M856.29,300.58c-.28,0-.57,0-.86,0a9,9,0,0,1,1.71-17.84h0a9,9,0,0,1-.85,17.88Zm0-13.65a4.68,4.68,0,1,0,.45,0A3.39,3.39,0,0,0,856.28,286.93Z"></path><circle class="cls-6" cx="869.29" cy="300.81" r="5.33"></circle><path class="cls-4" d="M881.11,229.69a39.43,39.43,0,1,1,39.43-39.43A39.47,39.47,0,0,1,881.11,229.69Zm0-78.14a38.71,38.71,0,1,0,38.71,38.71A38.75,38.75,0,0,0,881.11,151.55Z"></path><circle class="cls-4" cx="906.27" cy="219.77" r="2.8"></circle><circle class="cls-2" cx="898.39" cy="224.78" r="2.8"></circle><circle class="cls-4" cx="889.79" cy="228.37" r="2.8"></circle><path class="cls-4" d="M880.35,217.81a.32.32,0,0,1-.32-.32V162.83a.32.32,0,1,1,.64,0v54.66A.32.32,0,0,1,880.35,217.81Z"></path><path class="cls-4" d="M909.34,184H854.68a.32.32,0,0,1-.32-.33.32.32,0,0,1,.32-.32h54.66a.32.32,0,0,1,.32.32A.32.32,0,0,1,909.34,184Z"></path><path class="cls-4" d="M909.34,199.63H854.68a.32.32,0,0,1,0-.64h54.66a.32.32,0,1,1,0,.64Z"></path><rect class="cls-2" x="862.88" y="177.06" width="35.92" height="12.1" rx="3.37"></rect><path class="cls-6" d="M895.43,189.74H866.25a4,4,0,0,1-4-4v-5.36a4,4,0,0,1,4-4h29.18a4,4,0,0,1,4,4v5.36A4,4,0,0,1,895.43,189.74Zm-29.18-12.1a2.79,2.79,0,0,0-2.79,2.79v5.36a2.79,2.79,0,0,0,2.79,2.78h29.18a2.79,2.79,0,0,0,2.78-2.78v-5.36a2.79,2.79,0,0,0-2.78-2.79Z"></path><circle class="cls-5" cx="909.44" cy="183.6" r="2.44"></circle><path class="cls-4" d="M909.44,186.52a2.93,2.93,0,1,1,2.92-2.92A2.93,2.93,0,0,1,909.44,186.52Zm0-4.88a2,2,0,1,0,1.95,2A2,2,0,0,0,909.44,181.64Z"></path><rect class="cls-2" x="862.88" y="192.67" width="35.92" height="12.1" rx="3.37"></rect><path class="cls-6" d="M895.43,205.36H866.25a4,4,0,0,1-4-4V196a4,4,0,0,1,4-3.95h29.18a4,4,0,0,1,4,3.95v5.36A4,4,0,0,1,895.43,205.36Zm-29.18-12.1a2.79,2.79,0,0,0-2.79,2.78v5.36a2.79,2.79,0,0,0,2.79,2.79h29.18a2.79,2.79,0,0,0,2.78-2.79V196a2.79,2.79,0,0,0-2.78-2.78Z"></path><circle class="cls-5" cx="851.66" cy="199.21" r="2.44"></circle><path class="cls-4" d="M851.65,202.14a2.93,2.93,0,1,1,2.93-2.93A2.93,2.93,0,0,1,851.65,202.14Zm0-4.88a2,2,0,1,0,2,2A2,2,0,0,0,851.65,197.26Z"></path><circle class="cls-5" cx="880.35" cy="162.57" r="2.44"></circle><path class="cls-4" d="M880.35,165.5a2.93,2.93,0,1,1,2.93-2.93A2.93,2.93,0,0,1,880.35,165.5Zm0-4.88a2,2,0,1,0,1.95,1.95A2,2,0,0,0,880.35,160.62Z"></path><circle class="cls-5" cx="880.35" cy="218.36" r="2.44"></circle><path class="cls-4" d="M880.35,221.29a2.93,2.93,0,1,1,2.93-2.93A2.93,2.93,0,0,1,880.35,221.29Zm0-4.88a2,2,0,1,0,1.95,2A2,2,0,0,0,880.35,216.41Z"></path><path class="cls-5" d="M891.84,179.48a4.78,4.78,0,0,1-4.79-4.79,4.79,4.79,0,0,1,8.17-3.39,4.79,4.79,0,0,1-3.38,8.18Z"></path><path class="cls-4" d="M891.84,171.92a2.74,2.74,0,0,1,1.95.81,2.78,2.78,0,0,1,0,3.92,2.76,2.76,0,0,1-3.91,0,2.77,2.77,0,0,1,2-4.73m0-4a6.82,6.82,0,1,0,4.81,2,6.79,6.79,0,0,0-4.81-2Z"></path><circle class="cls-5" cx="909.44" cy="198.96" r="2.44"></circle><path class="cls-4" d="M909.44,201.89a2.93,2.93,0,1,1,2.92-2.93A2.93,2.93,0,0,1,909.44,201.89Zm0-4.88a1.95,1.95,0,1,0,1.95,2A2,2,0,0,0,909.44,197Z"></path><circle class="cls-5" cx="851.66" cy="183.85" r="2.44"></circle><path class="cls-4" d="M851.65,186.78a2.93,2.93,0,1,1,2.93-2.93A2.93,2.93,0,0,1,851.65,186.78Zm0-4.88a2,2,0,1,0,2,1.95A2,2,0,0,0,851.65,181.9Z"></path><circle class="cls-5" cx="869.53" cy="198.89" r="2.53"></circle><circle class="cls-5" cx="877.62" cy="198.89" r="2.53"></circle><circle class="cls-5" cx="869.53" cy="183.12" r="2.53"></circle><circle class="cls-5" cx="877.62" cy="183.12" r="2.53"></circle><text class="cls-8" transform="translate(938.57 97.46)">Pharma Users</text><text class="cls-8" transform="translate(938.57 198.46)">Research Users</text><text class="cls-8" transform="translate(938.57 301.46)">Healthcare Users</text><circle class="cls-9" cx="539.79" cy="195.84" r="169.65"></circle><path class="cls-4" d="M540.29,252.3a55,55,0,1,1,55-55A55.06,55.06,0,0,1,540.29,252.3Zm0-109a54,54,0,1,0,54,54A54.07,54.07,0,0,0,540.29,143.3Z"></path><circle class="cls-4" cx="575.39" cy="238.46" r="3.9"></circle><circle class="cls-2" cx="564.39" cy="245.46" r="3.9"></circle><circle class="cls-4" cx="552.39" cy="250.46" r="3.9"></circle><rect class="cls-2" x="511.23" y="180.25" width="53.97" height="32.16" rx="2.05"></rect><path class="cls-2" d="M563.15,213H513.29a2.61,2.61,0,0,1-2.61-2.6V182.3a2.61,2.61,0,0,1,2.61-2.6h49.86a2.61,2.61,0,0,1,2.61,2.6v28.06A2.61,2.61,0,0,1,563.15,213ZM513.29,180.8a1.5,1.5,0,0,0-1.5,1.5v28.06a1.5,1.5,0,0,0,1.5,1.5h49.86a1.51,1.51,0,0,0,1.51-1.5V182.3a1.51,1.51,0,0,0-1.51-1.5Z"></path><path class="cls-4" d="M567.22,216.16h-58a4.5,4.5,0,0,1-4.49-4.49V180.11a4.5,4.5,0,0,1,4.49-4.49h58a4.5,4.5,0,0,1,4.49,4.49v31.56A4.5,4.5,0,0,1,567.22,216.16Zm-58-39.66a3.61,3.61,0,0,0-3.61,3.61v31.56a3.61,3.61,0,0,0,3.61,3.61h58a3.61,3.61,0,0,0,3.6-3.61V180.11a3.61,3.61,0,0,0-3.6-3.61Z"></path><path class="cls-4" d="M575.1,222.4H500.78a2.94,2.94,0,0,1-2.93-2.93v-1.22a2.94,2.94,0,0,1,2.93-2.93H575.1a2.93,2.93,0,0,1,2.93,2.93v1.22A2.93,2.93,0,0,1,575.1,222.4Zm-74.32-6.2a2.05,2.05,0,0,0-2,2.05v1.22a2.05,2.05,0,0,0,2,2.05H575.1a2.05,2.05,0,0,0,2-2.05v-1.22a2.05,2.05,0,0,0-2-2.05Z"></path><rect class="cls-7" x="524.67" y="215.87" width="26.54" height="2.64" rx="1.15" transform="translate(1075.89 434.38) rotate(-180)"></rect><path class="cls-4" d="M550.07,219.06H525.82a1.7,1.7,0,0,1-1.7-1.7V217a1.7,1.7,0,0,1,1.7-1.7h24.25a1.7,1.7,0,0,1,1.7,1.7v.34A1.7,1.7,0,0,1,550.07,219.06Zm-24.25-2.64a.6.6,0,0,0-.6.6v.34a.6.6,0,0,0,.6.6h24.25a.59.59,0,0,0,.59-.6V217a.59.59,0,0,0-.59-.6Z"></path><circle class="cls-5" cx="568.25" cy="176.62" r="8.81"></circle><path class="cls-4" d="M568.28,188.18c-.38,0-.75,0-1.13-.05a11.57,11.57,0,0,1,2.2-23h0a11.57,11.57,0,0,1-1.07,23.08Zm0-17.62a6.13,6.13,0,1,0,.59,0h0A5.83,5.83,0,0,0,568.24,170.56Z"></path><path class="cls-5" d="M532.41,203.53a1.66,1.66,0,0,1-1.66-1.66v-8.52a1.66,1.66,0,0,1,3.31,0v8.52A1.65,1.65,0,0,1,532.41,203.53Z"></path><path class="cls-5" d="M543.16,203.53a1.66,1.66,0,0,1-1.66-1.66v-8.52a1.66,1.66,0,0,1,3.31,0v8.52A1.65,1.65,0,0,1,543.16,203.53Z"></path><path class="cls-5" d="M521.81,203.53a1.65,1.65,0,0,1-1.65-1.66v-8.52a1.65,1.65,0,0,1,3.3,0v8.52A1.65,1.65,0,0,1,521.81,203.53Z"></path><path class="cls-5" d="M553.75,203.53a1.65,1.65,0,0,1-1.65-1.66v-8.52a1.65,1.65,0,0,1,3.3,0v8.52A1.65,1.65,0,0,1,553.75,203.53Z"></path><circle class="cls-6" cx="581.45" cy="192.03" r="7.16"></circle><line class="cls-1" x1="485.29" y1="134.28" x2="505.62" y2="154.64"></line><line class="cls-1" x1="595.62" y1="134.28" x2="575.29" y2="154.64"></line><line class="cls-1" x1="540.29" y1="293.2" x2="540.29" y2="252.3"></line><circle class="cls-2" cx="540.29" cy="306.02" r="35.78"></circle><text class="cls-3" transform="translate(517.98 300.72)">Omics &amp; <tspan x="-4.89" y="12">Biomarker</tspan><tspan x="10.39" y="24">Data</tspan></text><circle class="cls-2" cx="470.66" cy="113.72" r="35.78"></circle><text class="cls-3" transform="translate(447.12 114.52)">Genomic<tspan x="11.61" y="12">Data </tspan></text><circle class="cls-10" cx="219.18" cy="76.9" r="11.81"></circle><text class="cls-11" transform="translate(36.11 72.93)">Genotyping / <tspan x="-0.63" y="13">NGS Devices</tspan></text><line class="cls-12" x1="135.87" y1="76.9" x2="207.36" y2="76.9"></line><rect class="cls-13" x="0.29" y="52.63" width="135.57" height="46.33"></rect><circle class="cls-10" cx="219.18" cy="136.9" r="11.81"></circle><text class="cls-11" transform="translate(16.21 132.93)">Hospital Databases, <tspan x="-3.67" y="13">Clinical </tspan><tspan class="cls-14" x="38.51" y="13">T</tspan><tspan x="44.63" y="13">rials, eCRFs</tspan></text><line class="cls-12" x1="135.87" y1="136.9" x2="207.36" y2="136.9"></line><rect class="cls-13" x="0.29" y="112.63" width="135.57" height="46.33"></rect><text class="cls-11" transform="translate(20.28 197.79)">Apps &amp; <tspan class="cls-15" x="41.56" y="0">W</tspan><tspan x="51.75" y="0">earables</tspan></text><line class="cls-12" x1="135.87" y1="195.76" x2="344.21" y2="195.76"></line><rect class="cls-13" x="0.29" y="171.49" width="135.57" height="46.33"></rect><circle class="cls-10" cx="219.18" cy="256.9" r="11.81"></circle><text class="cls-11" transform="translate(20.78 252.93)"><tspan class="cls-14">V</tspan><tspan x="6.74" y="0">arious Devices &amp; </tspan><tspan x="14.99" y="13">File Formats</tspan></text><line class="cls-12" x1="135.87" y1="256.9" x2="207.36" y2="256.9"></line><rect class="cls-13" x="0.29" y="232.63" width="135.57" height="46.33"></rect><circle class="cls-10" cx="219.18" cy="316.9" r="11.81"></circle><text class="cls-11" transform="translate(25.6 312.93)">Public &amp; Private <tspan x="-0.59" y="13">Annotation Data</tspan></text><line class="cls-12" x1="135.87" y1="316.9" x2="207.36" y2="316.9"></line><rect class="cls-13" x="0.29" y="292.63" width="135.57" height="46.33"></rect><circle class="cls-16" cx="219.18" cy="195.76" r="11.81"></circle><path class="cls-1" d="M813.66,88.52v35.16a24.6,24.6,0,0,1-24.53,24.53H702.56"></path><path class="cls-1" d="M813.66,301.21V266.05a24.6,24.6,0,0,0-24.53-24.53H702.56"></path><line class="cls-1" x1="709.94" y1="196.01" x2="810.96" y2="196.01"></line><circle class="cls-17" cx="813.33" cy="90.05" r="4.96"></circle><circle class="cls-17" cx="813.33" cy="196.05" r="4.96"></circle><circle class="cls-17" cx="813.33" cy="296.05" r="4.96"></circle><circle class="cls-18" cx="539.79" cy="195.84" r="195.59"></circle><circle class="cls-2" cx="611.29" cy="115.72" r="35.78"></circle><text class="cls-3" transform="translate(579.21 120.52)">Annotations</text><line class="cls-12" x1="232.41" y1="76.9" x2="344.21" y2="193.66"></line><line class="cls-12" x1="344.21" y1="197.9" x2="234.46" y2="315.66"></line><line class="cls-12" x1="234.2" y1="137.51" x2="344.21" y2="194.84"></line><line class="cls-12" x1="344.21" y1="196.83" x2="234.46" y2="255.84"></line><path class="cls-5" d="M344.84,200.48a4.78,4.78,0,0,1-4.79-4.79,4.79,4.79,0,0,1,8.17-3.39,4.79,4.79,0,0,1-3.38,8.18Z"></path><path class="cls-4" d="M344.84,192.92a2.74,2.74,0,0,1,2,.81,2.78,2.78,0,0,1,0,3.92,2.76,2.76,0,0,1-3.91,0,2.77,2.77,0,0,1,2-4.73m0-4a6.82,6.82,0,1,0,4.81,2,6.79,6.79,0,0,0-4.81-2Z"></path></g></g></svg>