<svg width="1650" height="991" xmlns="http://www.w3.org/2000/svg" xmlns:xlink="http://www.w3.org/1999/xlink" overflow="hidden"><defs><filter id="fx0" x="-10%" y="-10%" width="120%" height="120%" filterUnits="userSpaceOnUse" primitiveUnits="userSpaceOnUse"><feComponentTransfer color-interpolation-filters="sRGB"><feFuncR type="discrete" tableValues="0 0"/><feFuncG type="discrete" tableValues="0 0"/><feFuncB type="discrete" tableValues="0 0"/><feFuncA type="linear" slope="0.631373" intercept="0"/></feComponentTransfer><feGaussianBlur stdDeviation="6.875 6.875"/></filter><filter id="fx1" x="-10%" y="-10%" width="120%" height="120%" filterUnits="userSpaceOnUse" primitiveUnits="userSpaceOnUse"><feComponentTransfer color-interpolation-filters="sRGB"><feFuncR type="discrete" tableValues="0 0"/><feFuncG type="discrete" tableValues="0 0"/><feFuncB type="discrete" tableValues="0 0"/><feFuncA type="linear" slope="0.631373" intercept="0"/></feComponentTransfer><feGaussianBlur stdDeviation="6.875 6.875"/></filter><clipPath id="clip2"><rect x="844" y="689" width="1650" height="991"/></clipPath><radialGradient cx="2.286e+06" cy="1.3716e+06" r="2.66591e+06" fx="2.286e+06" gradientUnits="userSpaceOnUse" spreadMethod="pad" id="fill3" gradientTransform="matrix(0.000360892 0 0 0.000360892 844 689)"><stop offset="0" stop-color="#595959"/><stop offset="0.02" stop-color="#585858"/><stop offset="0.04" stop-color="#585858"/><stop offset="0.06" stop-color="#585858"/><stop offset="0.08" stop-color="#585858"/><stop offset="0.1" stop-color="#585858"/><stop offset="0.12" stop-color="#585858"/><stop offset="0.14" stop-color="#575757"/><stop offset="0.16" stop-color="#575757"/><stop offset="0.18" stop-color="#565656"/><stop offset="0.2" stop-color="#565656"/><stop offset="0.22" stop-color="#565656"/><stop offset="0.24" stop-color="#555555"/><stop offset="0.26" stop-color="#545454"/><stop offset="0.28" stop-color="#545454"/><stop offset="0.3" stop-color="#535353"/><stop offset="0.32" stop-color="#525252"/><stop offset="0.34" stop-color="#525252"/><stop offset="0.36" stop-color="#515151"/><stop offset="0.38" stop-color="#505050"/><stop offset="0.4" stop-color="#4F4F4F"/><stop offset="0.42" stop-color="#4E4E4E"/><stop offset="0.44" stop-color="#4E4E4E"/><stop offset="0.46" stop-color="#4D4D4D"/><stop offset="0.48" stop-color="#4C4C4C"/><stop offset="0.5" stop-color="#4B4B4B"/><stop offset="0.52" stop-color="#4A4A4A"/><stop offset="0.54" stop-color="#484848"/><stop offset="0.56" stop-color="#474747"/><stop offset="0.58" stop-color="#464646"/><stop offset="0.6" stop-color="#454545"/><stop offset="0.62" stop-color="#444444"/><stop offset="0.64" stop-color="#424242"/><stop offset="0.66" stop-color="#414141"/><stop offset="0.68" stop-color="#404040"/><stop offset="0.7" stop-color="#3E3E3E"/><stop offset="0.72" stop-color="#3D3D3D"/><stop offset="0.74" stop-color="#3C3C3C"/><stop offset="0.76" stop-color="#3A3A3A"/><stop offset="0.78" stop-color="#383838"/><stop offset="0.8" stop-color="#373737"/><stop offset="0.82" stop-color="#353535"/><stop offset="0.84" stop-color="#343434"/><stop offset="0.86" stop-color="#323232"/><stop offset="0.88" stop-color="#303030"/><stop offset="0.9" stop-color="#2F2F2F"/><stop offset="0.92" stop-color="#2D2D2D"/><stop offset="0.94" stop-color="#2B2B2B"/><stop offset="0.96" stop-color="#292929"/><stop offset="0.98" stop-color="#272727"/><stop offset="1" stop-color="#262626"/></radialGradient><clipPath id="clip4"><rect x="843" y="689" width="1650" height="990"/></clipPath><clipPath id="clip5"><rect x="1026" y="739" width="1330" height="699"/></clipPath><clipPath id="clip6"><rect x="-3" y="-3" width="1319" height="700"/></clipPath><clipPath id="clip7"><rect x="0" y="0" width="1313" height="696"/></clipPath><clipPath id="clip8"><rect x="1026" y="739" width="1330" height="699"/></clipPath><clipPath id="clip9"><rect x="1026" y="739" width="1330" height="699"/></clipPath><clipPath id="clip10"><rect x="-3" y="-3" width="1319" height="553"/></clipPath><clipPath id="clip11"><rect x="0" y="0" width="1313" height="546"/></clipPath><clipPath id="clip12"><rect x="1026" y="739" width="1330" height="699"/></clipPath><clipPath id="clip13"><rect x="843" y="689" width="1650" height="990"/></clipPath><clipPath id="clip14"><rect x="843" y="689" width="1650" height="990"/></clipPath><clipPath id="clip15"><rect x="843" y="689" width="1650" height="990"/></clipPath><clipPath id="clip16"><rect x="843" y="689" width="1650" height="990"/></clipPath><clipPath id="clip17"><rect x="843" y="689" width="1650" height="990"/></clipPath><clipPath id="clip18"><rect x="843" y="689" width="1650" height="990"/></clipPath><clipPath id="clip19"><rect x="843" y="689" width="1650" height="990"/></clipPath><clipPath id="clip20"><rect x="843" y="689" width="1650" height="990"/></clipPath><clipPath id="clip21"><rect x="843" y="689" width="1650" height="990"/></clipPath><clipPath id="clip22"><rect x="843" y="689" width="1650" height="990"/></clipPath><clipPath id="clip23"><rect x="843" y="689" width="1650" height="990"/></clipPath><clipPath id="clip24"><rect x="843" y="689" width="1650" height="990"/></clipPath><clipPath id="clip25"><rect x="843" y="689" width="1650" height="990"/></clipPath><clipPath id="clip26"><rect x="843" y="689" width="1650" height="990"/></clipPath><clipPath id="clip27"><rect x="843" y="689" width="1650" height="990"/></clipPath><clipPath id="clip28"><rect x="843" y="689" width="1650" height="990"/></clipPath><clipPath id="clip29"><rect x="843" y="689" width="1650" height="990"/></clipPath><clipPath id="clip30"><rect x="843" y="689" width="1650" height="990"/></clipPath><clipPath id="clip31"><rect x="843" y="689" width="1650" height="990"/></clipPath><clipPath id="clip32"><rect x="843" y="689" width="1650" height="990"/></clipPath><clipPath id="clip33"><rect x="843" y="689" width="1650" height="990"/></clipPath><clipPath id="clip34"><rect x="843" y="689" width="1650" height="990"/></clipPath><clipPath id="clip35"><rect x="843" y="689" width="1650" height="990"/></clipPath><clipPath id="clip36"><rect x="843" y="689" width="1650" height="990"/></clipPath><clipPath id="clip37"><rect x="843" y="689" width="1650" height="990"/></clipPath><clipPath id="clip38"><rect x="843" y="689" width="1650" height="990"/></clipPath><clipPath id="clip39"><rect x="843" y="689" width="1650" height="990"/></clipPath><clipPath id="clip40"><rect x="843" y="689" width="1650" height="990"/></clipPath><clipPath id="clip41"><rect x="843" y="689" width="1650" height="990"/></clipPath><clipPath id="clip42"><rect x="843" y="689" width="1650" height="990"/></clipPath><clipPath id="clip43"><rect x="843" y="689" width="1650" height="990"/></clipPath><clipPath id="clip44"><rect x="843" y="689" width="1650" height="990"/></clipPath><clipPath id="clip45"><rect x="843" y="689" width="1650" height="990"/></clipPath><clipPath id="clip46"><rect x="843" y="689" width="1650" height="990"/></clipPath><clipPath id="clip47"><rect x="843" y="689" width="1650" height="990"/></clipPath><clipPath id="clip48"><rect x="843" y="689" width="1650" height="990"/></clipPath><clipPath id="clip49"><rect x="843" y="689" width="1651" height="991"/></clipPath></defs><g clip-path="url(#clip2)" transform="translate(-844 -689)"><rect x="844" y="689" width="1650" height="990" fill="url(#fill3)"/><g clip-path="url(#clip4)"><path d="M1026.5 1434.5 2352.5 1434.5" stroke="#F2F2F2" stroke-width="4.58333" stroke-linejoin="round" stroke-miterlimit="10" stroke-opacity="0.541176" fill="none" fill-rule="evenodd"/></g><g clip-path="url(#clip5)"><g clip-path="url(#clip6)" filter="url(#fx0)" transform="translate(1033 720)"><g clip-path="url(#clip7)"><path d="M28.5 667.375 98.5373 627.419 168.54 585.418 237.542 549.417 307.544 510.415 377.546 474.414 447.549 437.413 517.551 399.412 586.553 370.411 656.556 340.41 726.558 311.409 796.56 287.408 866.562 262.407 935.565 245.407 1005.57 203.405 1075.57 149.403 1145.57 104.402 1214.57 68.4008 1284.5 28.3749" stroke="#548235" stroke-width="13" stroke-linecap="round" stroke-linejoin="round" stroke-miterlimit="10" fill="none"/></g></g></g><g clip-path="url(#clip8)"><path d="M1061.5 1380.5 1131.54 1340.54 1201.54 1298.54 1270.54 1262.54 1340.54 1223.54 1410.55 1187.54 1480.55 1150.54 1550.55 1112.54 1619.55 1083.54 1689.56 1053.53 1759.56 1024.53 1829.56 1000.53 1899.56 975.532 1968.56 958.532 2038.57 916.53 2108.57 862.528 2178.57 817.527 2247.57 781.526 2317.5 741.5" stroke="#548235" stroke-width="12.6042" stroke-linecap="round" stroke-linejoin="round" stroke-miterlimit="10" fill="none"/></g><g clip-path="url(#clip9)"><g clip-path="url(#clip10)" filter="url(#fx1)" transform="translate(1033 852)"><g clip-path="url(#clip11)"><path d="M28.5 517.375 98.5373 482.419 168.54 445.417 237.542 404.416 307.544 361.415 377.546 315.413 447.549 267.412 517.551 218.41 586.553 171.409 656.556 128.407 726.558 91.4059 796.56 62.4049 866.562 42.4043 935.565 31.4039 1005.57 28.3749 1075.57 31.4039 1145.57 37.4041 1214.57 42.4043 1284.5 44.4043" stroke="#C00000" stroke-width="13" stroke-linecap="round" stroke-linejoin="round" stroke-miterlimit="10" fill="none"/></g></g></g><g clip-path="url(#clip12)"><path d="M1061.5 1362.5 1131.54 1327.54 1201.54 1290.54 1270.54 1249.54 1340.54 1206.54 1410.55 1160.54 1480.55 1112.54 1550.55 1063.54 1619.55 1016.53 1689.56 973.532 1759.56 936.531 1829.56 907.53 1899.56 887.529 1968.56 876.529 2038.57 873.5 2108.57 876.529 2178.57 882.529 2247.57 887.529 2317.5 889.529" stroke="#C00000" stroke-width="12.6042" stroke-linecap="round" stroke-linejoin="round" stroke-miterlimit="10" fill="none"/></g><g clip-path="url(#clip13)"><text fill="#D9D9D9" font-family="Calibri,Calibri_MSFontService,sans-serif" font-weight="400" font-size="41" transform="matrix(1 0 0 1 2391.01 1446)">76.5</text></g><g clip-path="url(#clip14)"><text fill="#D9D9D9" font-family="Calibri,Calibri_MSFontService,sans-serif" font-weight="400" font-size="41" transform="matrix(1 0 0 1 2391.01 1330)">77</text></g><g clip-path="url(#clip15)"><text fill="#D9D9D9" font-family="Calibri,Calibri_MSFontService,sans-serif" font-weight="400" font-size="41" transform="matrix(1 0 0 1 2391.01 1215)">77.5</text></g><g clip-path="url(#clip16)"><text fill="#D9D9D9" font-family="Calibri,Calibri_MSFontService,sans-serif" font-weight="400" font-size="41" transform="matrix(1 0 0 1 2391.01 1099)">78</text></g><g clip-path="url(#clip17)"><text fill="#D9D9D9" font-family="Calibri,Calibri_MSFontService,sans-serif" font-weight="400" font-size="41" transform="matrix(1 0 0 1 2391.01 983)">78.5</text></g><g clip-path="url(#clip18)"><text fill="#D9D9D9" font-family="Calibri,Calibri_MSFontService,sans-serif" font-weight="400" font-size="41" transform="matrix(1 0 0 1 2391.01 867)">79</text></g><g clip-path="url(#clip19)"><text fill="#D9D9D9" font-family="Calibri,Calibri_MSFontService,sans-serif" font-weight="400" font-size="41" transform="matrix(1 0 0 1 2391.01 751)">79.5</text></g><g clip-path="url(#clip20)"><text fill="#D9D9D9" font-family="Calibri,Calibri_MSFontService,sans-serif" font-weight="400" font-size="41" transform="matrix(1 0 0 1 873.698 1446)">$3,500</text></g><g clip-path="url(#clip21)"><text fill="#D9D9D9" font-family="Calibri,Calibri_MSFontService,sans-serif" font-weight="400" font-size="41" transform="matrix(1 0 0 1 873.698 1320)">$4,500</text></g><g clip-path="url(#clip22)"><text fill="#D9D9D9" font-family="Calibri,Calibri_MSFontService,sans-serif" font-weight="400" font-size="41" transform="matrix(1 0 0 1 873.698 1194)">$5,500</text></g><g clip-path="url(#clip23)"><text fill="#D9D9D9" font-family="Calibri,Calibri_MSFontService,sans-serif" font-weight="400" font-size="41" transform="matrix(1 0 0 1 873.698 1067)">$6,500</text></g><g clip-path="url(#clip24)"><text fill="#D9D9D9" font-family="Calibri,Calibri_MSFontService,sans-serif" font-weight="400" font-size="41" transform="matrix(1 0 0 1 873.698 941)">$7,500</text></g><g clip-path="url(#clip25)"><text fill="#D9D9D9" font-family="Calibri,Calibri_MSFontService,sans-serif" font-weight="400" font-size="41" transform="matrix(1 0 0 1 873.698 814)">$8,500</text></g><g clip-path="url(#clip26)"><text fill="#D9D9D9" font-family="Calibri,Calibri_MSFontService,sans-serif" font-weight="400" font-size="41" transform="matrix(6.12323e-17 -1 1 6.12323e-17 1075.47 1545)">2000</text></g><g clip-path="url(#clip27)"><text fill="#D9D9D9" font-family="Calibri,Calibri_MSFontService,sans-serif" font-weight="400" font-size="41" transform="matrix(6.12323e-17 -1 1 6.12323e-17 1145.26 1545)">2001</text></g><g clip-path="url(#clip28)"><text fill="#D9D9D9" font-family="Calibri,Calibri_MSFontService,sans-serif" font-weight="400" font-size="41" transform="matrix(6.12323e-17 -1 1 6.12323e-17 1215.05 1545)">2002</text></g><g clip-path="url(#clip29)"><text fill="#D9D9D9" font-family="Calibri,Calibri_MSFontService,sans-serif" font-weight="400" font-size="41" transform="matrix(6.12323e-17 -1 1 6.12323e-17 1284.84 1545)">2003</text></g><g clip-path="url(#clip30)"><text fill="#D9D9D9" font-family="Calibri,Calibri_MSFontService,sans-serif" font-weight="400" font-size="41" transform="matrix(6.12323e-17 -1 1 6.12323e-17 1354.63 1545)">2004</text></g><g clip-path="url(#clip31)"><text fill="#D9D9D9" font-family="Calibri,Calibri_MSFontService,sans-serif" font-weight="400" font-size="41" transform="matrix(6.12323e-17 -1 1 6.12323e-17 1424.42 1545)">2005</text></g><g clip-path="url(#clip32)"><text fill="#D9D9D9" font-family="Calibri,Calibri_MSFontService,sans-serif" font-weight="400" font-size="41" transform="matrix(6.12323e-17 -1 1 6.12323e-17 1494.21 1545)">2006</text></g><g clip-path="url(#clip33)"><text fill="#D9D9D9" font-family="Calibri,Calibri_MSFontService,sans-serif" font-weight="400" font-size="41" transform="matrix(6.12323e-17 -1 1 6.12323e-17 1564 1545)">2007</text></g><g clip-path="url(#clip34)"><text fill="#D9D9D9" font-family="Calibri,Calibri_MSFontService,sans-serif" font-weight="400" font-size="41" transform="matrix(6.12323e-17 -1 1 6.12323e-17 1633.79 1545)">2008</text></g><g clip-path="url(#clip35)"><text fill="#D9D9D9" font-family="Calibri,Calibri_MSFontService,sans-serif" font-weight="400" font-size="41" transform="matrix(6.12323e-17 -1 1 6.12323e-17 1703.58 1545)">2009</text></g><g clip-path="url(#clip36)"><text fill="#D9D9D9" font-family="Calibri,Calibri_MSFontService,sans-serif" font-weight="400" font-size="41" transform="matrix(6.12323e-17 -1 1 6.12323e-17 1773.36 1545)">2010</text></g><g clip-path="url(#clip37)"><text fill="#D9D9D9" font-family="Calibri,Calibri_MSFontService,sans-serif" font-weight="400" font-size="41" transform="matrix(6.12323e-17 -1 1 6.12323e-17 1843.15 1545)">2011</text></g><g clip-path="url(#clip38)"><text fill="#D9D9D9" font-family="Calibri,Calibri_MSFontService,sans-serif" font-weight="400" font-size="41" transform="matrix(6.12323e-17 -1 1 6.12323e-17 1912.94 1545)">2012</text></g><g clip-path="url(#clip39)"><text fill="#D9D9D9" font-family="Calibri,Calibri_MSFontService,sans-serif" font-weight="400" font-size="41" transform="matrix(6.12323e-17 -1 1 6.12323e-17 1982.73 1545)">2013</text></g><g clip-path="url(#clip40)"><text fill="#D9D9D9" font-family="Calibri,Calibri_MSFontService,sans-serif" font-weight="400" font-size="41" transform="matrix(6.12323e-17 -1 1 6.12323e-17 2052.52 1545)">2014</text></g><g clip-path="url(#clip41)"><text fill="#D9D9D9" font-family="Calibri,Calibri_MSFontService,sans-serif" font-weight="400" font-size="41" transform="matrix(6.12323e-17 -1 1 6.12323e-17 2122.31 1545)">2015</text></g><g clip-path="url(#clip42)"><text fill="#D9D9D9" font-family="Calibri,Calibri_MSFontService,sans-serif" font-weight="400" font-size="41" transform="matrix(6.12323e-17 -1 1 6.12323e-17 2192.1 1545)">2016</text></g><g clip-path="url(#clip43)"><text fill="#D9D9D9" font-family="Calibri,Calibri_MSFontService,sans-serif" font-weight="400" font-size="41" transform="matrix(6.12323e-17 -1 1 6.12323e-17 2261.89 1545)">2017</text></g><g clip-path="url(#clip44)"><text fill="#D9D9D9" font-family="Calibri,Calibri_MSFontService,sans-serif" font-weight="400" font-size="41" transform="matrix(6.12323e-17 -1 1 6.12323e-17 2331.68 1545)">2018</text></g><g clip-path="url(#clip45)"><path d="M1017.5 1608.5 1105.5 1608.5" stroke="#548235" stroke-width="12.6042" stroke-linecap="round" stroke-linejoin="round" stroke-miterlimit="10" fill="none" fill-rule="evenodd"/></g><g clip-path="url(#clip46)"><text fill="#D9D9D9" font-family="Calibri,Calibri_MSFontService,sans-serif" font-weight="400" font-size="41" transform="matrix(1 0 0 1 1114.98 1620)">US Healthcare Spending Per Person</text></g><g clip-path="url(#clip47)"><path d="M1762.5 1608.5 1850.5 1608.5" stroke="#C00000" stroke-width="12.6042" stroke-linecap="round" stroke-linejoin="round" stroke-miterlimit="10" fill="none" fill-rule="evenodd"/></g><g clip-path="url(#clip48)"><text fill="#D9D9D9" font-family="Calibri,Calibri_MSFontService,sans-serif" font-weight="400" font-size="41" transform="matrix(1 0 0 1 1860.27 1620)">Life Expectancy</text></g><g clip-path="url(#clip49)"><text fill="#D9D9D9" font-family="Calibri,Calibri_MSFontService,sans-serif" font-weight="400" font-size="37" transform="matrix(1 0 0 1 2147.06 1657)">AnonymousDAO.org</text></g></g></svg>