<svg width="116" height="127" viewBox="0 0 116 127" fill="none" xmlns="http://www.w3.org/2000/svg">
<rect width="115.188" height="127" fill="white"/>
<path d="M40.5454 104.095C36.3804 104.605 33.4064 108.408 33.9164 112.574C34.4024 116.538 37.9024 119.47 41.8874 119.247C42.0574 119.239 42.2264 119.224 42.3944 119.202C42.6534 119.172 42.9154 119.126 43.1714 119.068L43.5024 118.992L43.2944 117.291L42.8864 117.392C42.6544 117.446 42.4194 117.493 42.1904 117.519C38.9384 117.915 35.9964 115.579 35.6024 112.369C35.2064 109.133 37.5174 106.179 40.7524 105.78C40.9894 105.753 41.2264 105.738 41.4594 105.738L41.8804 105.735L41.6734 104.035L41.3344 104.041C41.0724 104.044 40.8104 104.063 40.5454 104.095Z" fill="#00A0AF"/>
<path d="M43.8294 120.908L43.3784 121.003C43.1344 121.053 42.8804 121.095 42.6244 121.127C42.4144 121.151 42.2024 121.172 41.9924 121.184C37.0174 121.46 32.6474 117.798 32.0404 112.849C31.4044 107.65 35.1184 102.903 40.3164 102.265C40.5294 102.242 40.7444 102.223 40.9584 102.209L41.5384 102.183L41.2524 99.848L40.8174 99.87C40.5534 99.884 40.2904 99.905 40.0334 99.939C33.5514 100.731 28.9234 106.65 29.7164 113.132C30.4704 119.305 35.9204 123.866 42.1224 123.521C42.1224 123.523 42.1224 123.521 42.1224 123.521C42.3834 123.506 42.6484 123.483 42.9104 123.452C43.1774 123.42 43.4524 123.375 43.7294 123.322L44.1174 123.249L43.8294 120.908Z" fill="#00A0AF"/>
<path d="M74.9575 119.11C79.1536 119.13 82.584 115.733 82.6043 111.536C82.6228 107.543 79.5211 104.192 75.5398 103.91C75.3701 103.896 75.2006 103.89 75.0312 103.891C74.7705 103.888 74.5048 103.9 74.2435 103.925L73.9055 103.959L73.897 105.673L74.3145 105.624C74.5515 105.6 74.7906 105.583 75.021 105.586C78.297 105.604 80.9204 108.293 80.9059 111.527C80.89 114.787 78.2245 117.425 74.965 117.412C74.7265 117.409 74.4895 117.394 74.2583 117.365L73.8403 117.315L73.831 119.027L74.168 119.064C74.4283 119.094 74.6906 119.108 74.9575 119.11Z" fill="#00A0AF"/>
<path d="M73.8231 102.017L74.2825 101.98C74.5309 101.961 74.7881 101.951 75.0461 101.952C75.2575 101.955 75.4704 101.961 75.6803 101.975C80.6503 102.33 84.5228 106.514 84.5 111.5C84.4743 116.738 80.1905 120.978 74.9536 120.954C74.7394 120.95 74.5237 120.942 74.3097 120.929L73.731 120.881L73.7198 123.234L74.1541 123.267C74.4178 123.286 74.6813 123.299 74.9406 123.297C81.4707 123.33 86.8092 118.043 86.8411 111.513C86.8727 105.294 82.0424 100.081 75.8465 99.6405C75.8467 99.6385 75.8465 99.6405 75.8465 99.6405C75.5857 99.6224 75.3199 99.6118 75.0561 99.6094C74.7872 99.6074 74.5087 99.6174 74.2272 99.635L73.8331 99.6584L73.8231 102.017Z" fill="#00A0AF"/>
<path d="M50.9082 113.877H52.6924V123H50.9082V113.877ZM47.1992 119.423C47.1992 120.062 47.3604 120.557 47.6826 120.908C48.0107 121.254 48.4707 121.427 49.0625 121.427C49.6484 121.427 50.1025 121.271 50.4248 120.961C50.7471 120.65 50.9082 120.208 50.9082 119.634L51.0312 121.541C50.8438 121.992 50.5391 122.37 50.1172 122.675C49.6953 122.979 49.1768 123.132 48.5615 123.132C47.5537 123.132 46.7744 122.81 46.2236 122.165C45.6787 121.515 45.4062 120.601 45.4062 119.423V113.877H47.1992V119.423ZM55.4258 113.877H57.2188V123H55.4258V113.877ZM60.4443 116.039C60.2861 115.846 60.0869 115.699 59.8467 115.6C59.6064 115.5 59.3281 115.45 59.0117 115.45C58.4434 115.45 58.001 115.608 57.6846 115.925C57.374 116.235 57.2188 116.669 57.2188 117.226L57.0342 115.468C57.3154 114.923 57.6787 114.501 58.124 114.202C58.5693 113.897 59.0615 113.745 59.6006 113.745C60.0166 113.745 60.3916 113.807 60.7256 113.93C61.0654 114.047 61.3613 114.223 61.6133 114.457L60.4443 116.039ZM68.2578 117.217C68.2578 116.619 68.0967 116.156 67.7744 115.828C67.458 115.494 67.0068 115.327 66.4209 115.327C66.0576 115.327 65.7002 115.383 65.3486 115.494C65.0029 115.605 64.6953 115.761 64.4258 115.96L63.1162 115.063C63.4619 114.647 63.916 114.325 64.4785 114.097C65.0469 113.862 65.6768 113.745 66.3682 113.745C67.124 113.745 67.7715 113.88 68.3105 114.149C68.8496 114.413 69.2598 114.8 69.541 115.31C69.8223 115.813 69.9629 116.423 69.9629 117.138V123H68.2578V117.217ZM66.0254 123.132C64.9004 123.132 64.0596 122.9 63.5029 122.438C62.9463 121.969 62.668 121.26 62.668 120.311C62.668 119.408 62.9229 118.731 63.4326 118.28C63.9424 117.829 64.7129 117.604 65.7441 117.604H68.3369L68.46 119.045H65.7529C65.2842 119.045 64.9326 119.15 64.6982 119.361C64.4697 119.566 64.3555 119.883 64.3555 120.311C64.3555 120.773 64.5078 121.116 64.8125 121.339C65.123 121.562 65.5918 121.673 66.2188 121.673C66.9043 121.673 67.4141 121.6 67.748 121.453C68.0879 121.307 68.2578 121.078 68.2578 120.768L68.4424 122.051C68.2842 122.297 68.0879 122.499 67.8535 122.657C67.625 122.815 67.3584 122.933 67.0537 123.009C66.749 123.091 66.4062 123.132 66.0254 123.132Z" fill="#262425"/>
<path d="M0 42.937C0 36.037 3.545 29.919 9.005 26.13C10.102 15.597 19.487 7.369 30.902 7.369C31.255 7.369 31.603 7.378 31.952 7.393C34.718 4.58 38.296 2.493 42.333 1.466C44.204 0.988996 46.133 0.751999 48.061 0.751999C50.954 0.751999 53.715 1.281 56.244 2.241C56.38 2.189 56.515 2.139 56.651 2.091C56.656 2.088 56.662 2.086 56.669 2.085C56.806 2.036 56.944 1.988 57.083 1.94C59.38 1.171 61.853 0.751999 64.428 0.751999C66.24 0.751999 68 0.959997 69.685 1.352C71.662 0.484997 73.864 0 76.184 0C82.147 0 87.32 3.19 89.91 7.862C95.072 8.248 99.423 11.349 101.376 15.656C106.706 16.852 110.9 21.519 110.9 27.069C110.9 27.602 110.862 28.126 110.79 28.638C112.782 30.571 114.221 33.055 114.84 35.769C115.459 38.472 115.249 41.343 114.245 43.929C113.691 45.355 112.903 46.688 111.931 47.87C111.233 48.74 110.252 49.349 109.555 50.184C107.92 51.462 106.004 52.428 103.909 52.987C103.879 60.024 97.845 65.718 90.405 65.718C90.332 65.718 90.26 65.718 90.188 65.715C88.295 67.57 85.639 68.725 82.7 68.725C79.294 68.725 76.271 67.175 74.372 64.783C70.944 72.068 63.229 77.146 54.26 77.146C50.578 77.146 47.108 76.292 44.06 74.779C41.119 79.27 35.865 82.259 29.872 82.259C24.414 82.259 19.566 79.78 16.524 75.941C7.911 75.861 0.95401 69.227 0.95401 61.056C0.95401 58.328 1.729 55.77 3.084 53.572C1.124 50.461 0 46.824 0 42.937Z" fill="#262425"/>
<path d="M62.343 66.17C61.74 64.746 60.879 63.472 59.785 62.376C58.688 61.28 57.412 60.42 55.991 59.817C54.518 59.194 52.953 58.878 51.345 58.878H20.641C15.724 58.878 11.723 54.879 11.723 49.961V46.233H8.70401V49.961C8.70401 51.571 9.01801 53.135 9.64301 54.608C10.244 56.03 11.104 57.306 12.2 58.405C13.295 59.499 14.572 60.358 15.992 60.961C17.465 61.581 19.028 61.9 20.64 61.9H51.344C56.261 61.9 60.261 65.9 60.261 70.814V110.348H63.281V70.815C63.282 69.205 62.966 67.642 62.343 66.17Z" fill="#00A0AF"/>
<path d="M57.438 42.269C56.836 40.85 55.976 39.572 54.881 38.479C53.784 37.38 52.507 36.522 51.088 35.918C49.613 35.296 48.051 34.98 46.44 34.98H36.795V38.001H46.44C51.357 38.001 55.357 41.999 55.357 46.917V110.348H58.378V46.916C58.378 45.306 58.06 43.742 57.438 42.269Z" fill="#95A43A"/>
<path d="M80.578 23.233V65.447C80.578 70.365 76.578 74.364 71.661 74.364H62.431C60.82 74.364 59.256 74.68 57.783 75.301C56.363 75.904 55.086 76.765 53.99 77.861C52.893 78.958 52.034 80.232 51.433 81.656C50.809 83.127 50.495 84.69 50.495 86.303V110.348H53.514V86.302C53.514 81.383 57.514 77.383 62.432 77.383H71.662C73.273 77.383 74.837 77.067 76.308 76.444C77.73 75.841 79.006 74.982 80.102 73.888C81.198 72.79 82.058 71.515 82.659 70.095C83.283 68.62 83.598 67.056 83.598 65.447V23.233H80.578Z" fill="#F7941E"/>
<path d="M27.035 39.341V61.463C27.035 66.38 31.036 70.379 35.952 70.379H36.745C38.356 70.379 39.919 70.696 41.391 71.319C42.813 71.919 44.088 72.779 45.185 73.876C46.281 74.972 47.142 76.248 47.743 77.669C48.366 79.144 48.681 80.704 48.681 82.316V110.348H45.662V82.317C45.662 77.4 41.661 73.397 36.745 73.397L35.952 73.401C34.342 73.401 32.778 73.086 31.305 72.462C29.885 71.86 28.608 70.999 27.513 69.905C26.417 68.808 25.555 67.532 24.955 66.111C24.332 64.636 24.016 63.074 24.016 61.464V39.342H27.035V39.341Z" fill="#FEBC11"/>
<path d="M97.266 40.307V49.593C97.266 54.511 93.266 58.511 88.349 58.511L77.028 58.504C75.416 58.504 73.853 58.82 72.381 59.443C70.96 60.045 69.683 60.903 68.587 62.001C67.492 63.097 66.631 64.372 66.031 65.795C65.406 67.269 65.092 68.832 65.092 70.441V110.348H68.112V70.441C68.112 65.526 72.111 61.526 77.027 61.526L78.5 61.532H88.351C89.96 61.532 91.525 61.215 92.997 60.592C94.419 59.99 95.695 59.13 96.791 58.036C97.887 56.936 98.748 55.662 99.348 54.24C99.971 52.766 100.286 51.204 100.286 49.594V40.308H97.266V40.307Z" fill="#F26522"/>
<path d="M62.503 22.696C65.664 20.736 70.113 19.515 75.042 19.515C84.638 19.515 92.415 24.144 92.415 29.852C92.415 35.306 85.314 39.774 76.311 40.161C75.891 40.181 75.469 40.188 75.042 40.188C73.958 40.188 72.898 40.129 71.87 40.017C71.77 40.496 71.719 40.99 71.719 41.496C71.719 43.027 72.198 44.446 73.013 45.612C70.189 44.796 68.084 42.291 67.852 39.262C61.843 37.638 57.664 34.033 57.664 29.851C57.665 27.075 59.506 24.553 62.503 22.696Z" fill="#F7941E"/>
<path d="M56.807 17.343C56.774 15.898 56.45 14.437 55.804 13.043C55.764 12.957 55.724 12.874 55.684 12.791C56.176 12.447 56.661 12.09 57.14 11.722C56.717 10.916 56.204 10.158 55.616 9.464C55.09 9.762 54.574 10.072 54.067 10.396C52.999 9.201 51.692 8.274 50.25 7.653C50.408 7.079 50.55 6.497 50.681 5.91C49.832 5.572 48.947 5.319 48.041 5.166C47.829 5.731 47.63 6.295 47.45 6.866C45.903 6.644 44.294 6.746 42.726 7.212C42.476 6.673 42.207 6.141 41.927 5.615C41.052 5.896 40.21 6.273 39.413 6.732C39.612 7.295 39.826 7.85 40.054 8.402C38.656 9.256 37.502 10.382 36.633 11.675C36.09 11.428 35.539 11.193 34.982 10.97C34.489 11.744 34.079 12.569 33.765 13.428C34.285 13.726 34.81 14.011 35.342 14.285C34.837 15.773 34.649 17.367 34.82 18.956C34.24 19.114 33.663 19.288 33.088 19.473C33.209 20.376 33.43 21.265 33.742 22.12C34.336 22.015 34.929 21.895 35.514 21.763C35.592 21.958 35.676 22.154 35.766 22.345C36.359 23.624 37.172 24.734 38.14 25.647C37.795 26.139 37.459 26.637 37.136 27.145C37.815 27.755 38.561 28.292 39.355 28.742C39.747 28.283 40.126 27.814 40.492 27.339C41.888 28.083 43.44 28.522 45.036 28.618C45.084 29.21 45.15 29.803 45.229 30.395C46.147 30.426 47.071 30.361 47.977 30.195C47.981 29.596 47.973 28.997 47.947 28.404C48.77 28.232 49.587 27.966 50.382 27.596C51.064 27.279 51.698 26.903 52.282 26.476C52.706 26.894 53.138 27.304 53.584 27.704C54.314 27.144 54.982 26.5 55.573 25.798C55.191 25.341 54.796 24.893 54.391 24.455C55.391 23.203 56.103 21.757 56.487 20.225C57.084 20.272 57.685 20.309 58.287 20.329C58.487 19.439 58.587 18.526 58.591 17.613C57.997 17.508 57.403 17.417 56.807 17.343ZM49.122 24.85C45.086 26.724 40.299 24.97 38.425 20.936C36.553 16.903 38.305 12.115 42.34 10.241C46.374 8.368 51.162 10.12 53.036 14.154C54.91 18.19 53.157 22.975 49.122 24.85Z" fill="#00ADBA"/>
<path d="M49.0065 16.1883C48.1968 14.4446 46.1097 13.6954 44.345 14.5149C42.5802 15.3344 41.8061 17.4123 42.6158 19.156C43.4256 20.8997 45.5126 21.6489 47.2774 20.8294C49.0421 20.0099 49.8163 17.932 49.0065 16.1883Z" fill="#00ADBA"/>
<path d="M16.635 66.321L15.523 65.209L14.029 68.889L12.535 72.566L16.215 71.075L19.892 69.58L18.78 68.466L21.295 65.951L19.151 63.807L16.635 66.321Z" fill="#FAA21B"/>
<path d="M32.801 46.635C32.801 46.635 29.913 50.855 29.913 52.45C29.913 54.047 31.206 55.34 32.801 55.34C34.398 55.34 35.692 54.047 35.692 52.45C35.692 50.855 32.801 46.635 32.801 46.635Z" fill="#008FAF"/>
<path d="M106.435 41.042C106.454 40.496 106.414 39.952 106.317 39.416C105.96 39.415 105.603 39.422 105.246 39.439C105.051 38.487 104.65 37.618 104.099 36.876C104.349 36.622 104.595 36.362 104.835 36.097C104.498 35.667 104.117 35.274 103.698 34.926C103.424 35.155 103.155 35.39 102.893 35.632C102.158 35.052 101.297 34.628 100.365 34.405C100.397 34.05 100.416 33.692 100.428 33.336C99.895 33.223 99.35 33.166 98.805 33.169C98.741 33.521 98.688 33.875 98.643 34.229C98.517 34.232 98.39 34.242 98.264 34.251C97.423 34.325 96.631 34.558 95.918 34.913C95.713 34.622 95.499 34.335 95.28 34.054C94.798 34.308 94.343 34.619 93.929 34.971C94.105 35.282 94.292 35.586 94.485 35.885C93.782 36.515 93.218 37.291 92.839 38.162C92.495 38.069 92.147 37.986 91.797 37.911C91.591 38.418 91.441 38.945 91.348 39.484C91.684 39.606 92.023 39.72 92.364 39.827C92.293 40.318 92.276 40.828 92.322 41.345C92.362 41.787 92.445 42.218 92.565 42.629C92.243 42.78 91.924 42.939 91.608 43.109C91.774 43.627 92 44.128 92.275 44.597C92.612 44.476 92.944 44.346 93.273 44.209C93.773 45.018 94.444 45.703 95.23 46.224C95.079 46.548 94.938 46.876 94.803 47.206C95.264 47.496 95.758 47.734 96.271 47.921C96.452 47.612 96.623 47.298 96.787 46.982C97.609 47.253 98.498 47.365 99.417 47.286C99.472 47.28 99.526 47.273 99.581 47.268C99.675 47.611 99.777 47.954 99.887 48.294C100.427 48.219 100.959 48.084 101.472 47.896C101.41 47.545 101.34 47.194 101.262 46.847C102.154 46.491 102.942 45.949 103.586 45.269C103.879 45.474 104.177 45.668 104.481 45.859C104.847 45.454 105.169 45.012 105.439 44.538C105.164 44.309 104.886 44.083 104.602 43.868C105.042 43.049 105.312 42.133 105.372 41.165C105.725 41.134 106.081 41.093 106.435 41.042Z" fill="#FEBC11"/>
<path d="M41.215 52.804C43.902 55.455 48.229 55.425 50.88 52.736C53.53 50.051 53.501 45.723 50.814 43.073C48.126 40.422 43.799 40.452 41.147 43.139C38.497 45.826 38.527 50.152 41.215 52.804ZM42.138 52.09L43.042 51.28L44.803 49.705C45.141 49.936 45.529 50.059 45.923 50.077L46.386 52.395L46.624 53.583C45.036 53.756 43.39 53.258 42.138 52.09ZM50.058 51.926C49.358 52.637 48.517 53.123 47.625 53.386L47.386 52.197L46.923 49.88C47.146 49.774 47.355 49.629 47.539 49.442C47.675 49.305 47.788 49.155 47.879 48.994L50.154 49.638L51.321 49.965C51.05 50.678 50.629 51.348 50.058 51.926ZM51.598 48.985L50.43 48.656L48.156 48.013C48.167 47.642 48.085 47.266 47.906 46.928L49.667 45.354L50.57 44.543C51.538 45.841 51.882 47.459 51.598 48.985ZM49.891 43.785L48.986 44.595L47.226 46.17C46.888 45.939 46.499 45.816 46.106 45.797L45.643 43.481L45.406 42.293C46.991 42.119 48.639 42.617 49.891 43.785ZM41.969 43.95C42.67 43.238 43.511 42.754 44.403 42.49L44.642 43.68L45.105 45.995C44.88 46.102 44.671 46.247 44.487 46.433C44.353 46.572 44.239 46.723 44.149 46.881L41.874 46.241L40.706 45.91C40.978 45.198 41.399 44.528 41.969 43.95ZM41.598 47.222L43.873 47.862C43.861 48.236 43.944 48.61 44.123 48.947L42.361 50.523L41.458 51.333C40.489 50.035 40.146 48.417 40.43 46.893L41.598 47.222Z" fill="#F7941E"/>
<path d="M73.637 50.756L68.609 51.794L69.631 53.379L65.712 55.903L67.68 58.956L71.597 56.434L72.617 58.019L75.643 53.869L78.668 49.719L73.637 50.756Z" fill="#F6891F"/>
<path d="M62.9249 57.8058L64.8112 60.7312L66.8963 59.3868L65.0099 56.4613L62.9249 57.8058Z" fill="#F6891F"/>
<path d="M29.245 39.691L32.018 37.604L34.105 40.376L33.279 40.997L32.253 39.636L31.836 42.59L30.812 42.445L31.23 39.491L29.867 40.516L29.245 39.691Z" fill="#AAD9B5"/>
<path d="M32.994 36.382L32.333 36.023L33.37 34.111L32.178 34.465L31.963 33.742L34.388 33.022L35.108 35.45L34.386 35.661L34.032 34.469L32.994 36.382Z" fill="#AAD9B5"/>
<path d="M96.033 15.818H93.095V12.88H91.05V15.818H88.112V17.863H91.05V20.801H93.095V17.863H96.033V15.818Z" fill="#F26522"/>
<path d="M14.753 38.62H11.624V35.493H9.44601V38.62H6.31702V40.8H9.44601V43.928H11.624V40.8H14.753V38.62Z" fill="#F5EB00"/>
<path d="M81.255 9.712L82.905 7.664L76.526 5.843L70.145 4.019L73.286 9.863L76.425 15.709L78.076 13.66L82.706 17.39L85.886 13.444L81.255 9.712Z" fill="#8DC63F"/>
<path d="M62.295 10.614L64.07 11.81L60.487 17.122L61.086 17.527L64.67 12.214L66.446 13.412L66.622 10.915L66.795 8.418L62.295 10.614Z" fill="#4EA0B4"/>
<path d="M50.993 65.583C49.64 64.232 47.447 64.232 46.095 65.583C44.742 66.937 44.742 69.131 46.095 70.483C47.448 71.835 49.64 71.836 50.993 70.483C52.346 69.131 52.346 66.938 50.993 65.583ZM49.457 68.947C48.953 69.452 48.135 69.452 47.632 68.947C47.128 68.44 47.128 67.626 47.632 67.121C48.134 66.617 48.953 66.617 49.457 67.121C49.961 67.625 49.961 68.44 49.457 68.947Z" fill="#00A0AF"/>
<path d="M25.234 78.762L26.045 76.312L33.38 78.74L33.655 77.911L26.319 75.483L27.131 73.031L24.175 73.64L21.221 74.253L25.234 78.762Z" fill="#79AD36"/>
<path d="M62.925 49.83L63.742 49.787L63.595 47.032L66.45 46.963L62.943 41.214L59.716 47.127L62.779 47.05L62.925 49.83Z" fill="#17AEB2"/>
<path d="M28.023 25.87L24.015 25.205L24.682 21.199C24.749 20.798 24.477 20.417 24.076 20.35C23.672 20.282 23.293 20.554 23.225 20.957L22.559 24.962L18.553 24.294C18.152 24.229 17.77 24.5 17.704 24.9C17.637 25.304 17.909 25.684 18.309 25.751L22.317 26.419L21.649 30.425C21.583 30.826 21.854 31.207 22.258 31.275C22.659 31.341 23.038 31.07 23.106 30.667L23.773 26.661L27.779 27.328C28.182 27.395 28.562 27.123 28.629 26.722C28.696 26.32 28.424 25.939 28.023 25.87Z" fill="#BFE2CE"/>
<path d="M31.827 25.805C32.326 25.725 32.825 25.632 33.323 25.528C33.3 24.725 33.182 23.928 32.972 23.156C32.466 23.193 31.959 23.246 31.458 23.312C31.181 22.389 30.75 21.511 30.169 20.714C30.527 20.358 30.877 19.988 31.217 19.61C30.727 18.974 30.159 18.397 29.536 17.895C29.148 18.226 28.77 18.567 28.404 18.916C27.607 18.31 26.738 17.864 25.836 17.57C25.915 17.07 25.981 16.566 26.034 16.062C25.264 15.834 24.468 15.701 23.666 15.663C23.547 16.157 23.442 16.653 23.35 17.153C22.379 17.132 21.409 17.277 20.483 17.576C20.254 17.125 20.012 16.68 19.758 16.237C19.002 16.506 18.279 16.865 17.606 17.303C17.8 17.773 18.006 18.24 18.225 18.695C17.511 19.193 16.86 19.805 16.301 20.532C16.252 20.596 16.202 20.661 16.157 20.727C15.707 20.495 15.247 20.276 14.783 20.07C14.331 20.73 13.953 21.445 13.669 22.197C14.102 22.464 14.542 22.719 14.987 22.96C14.663 23.889 14.506 24.856 14.507 25.817C14.007 25.896 13.508 25.991 13.012 26.096C13.033 26.896 13.151 27.695 13.361 28.469C13.868 28.429 14.373 28.377 14.876 28.311C15.152 29.232 15.585 30.113 16.165 30.908C15.806 31.265 15.457 31.635 15.118 32.012C15.608 32.647 16.176 33.223 16.798 33.726C17.186 33.394 17.563 33.055 17.93 32.707C18.727 33.311 19.596 33.76 20.498 34.051C20.419 34.551 20.352 35.053 20.3 35.56C21.071 35.787 21.867 35.919 22.667 35.959C22.787 35.465 22.892 34.967 22.983 34.47C23.955 34.489 24.925 34.346 25.85 34.044C26.079 34.495 26.321 34.941 26.577 35.384C27.331 35.114 28.056 34.758 28.728 34.317C28.536 33.846 28.327 33.382 28.109 32.924C28.824 32.428 29.474 31.815 30.032 31.089C30.083 31.024 30.13 30.959 30.179 30.894C30.63 31.124 31.087 31.345 31.553 31.552C32.003 30.89 32.381 30.175 32.665 29.425C32.233 29.157 31.793 28.904 31.347 28.659C31.669 27.734 31.827 26.769 31.827 25.805Z" fill="#95A43A"/>
<path d="M22.284 31.113C25.211 31.601 27.98 29.622 28.466 26.695C28.953 23.767 26.975 20.999 24.047 20.512C21.12 20.026 18.352 22.003 17.865 24.93C17.378 27.858 19.357 30.625 22.284 31.113ZM23.815 21.911C25.971 22.268 27.427 24.308 27.067 26.463C26.709 28.618 24.671 30.074 22.515 29.717C20.359 29.359 18.904 27.32 19.262 25.165C19.622 23.007 21.66 21.551 23.815 21.911Z" fill="#A9BF38"/>
<path d="M23.166 27.815C24.2722 27.815 25.169 26.9182 25.169 25.812C25.169 24.7058 24.2722 23.809 23.166 23.809C22.0598 23.809 21.163 24.7058 21.163 25.812C21.163 26.9182 22.0598 27.815 23.166 27.815Z" fill="#A9BF38"/>
<path d="M102.065 20.067C99.033 20.053 96.561 22.5 96.549 25.531C96.535 28.565 98.982 31.035 102.014 31.049C105.046 31.063 107.517 28.618 107.53 25.584C107.545 22.551 105.097 20.083 102.065 20.067ZM102.021 29.6C99.788 29.59 97.985 27.772 97.996 25.539C98.006 23.307 99.826 21.503 102.059 21.514C104.291 21.526 106.093 23.344 106.082 25.577C106.073 27.81 104.253 29.611 102.021 29.6Z" fill="#BFB131"/>
<path d="M102.039 27.604C103.169 27.604 104.085 26.688 104.085 25.558C104.085 24.428 103.169 23.512 102.039 23.512C100.909 23.512 99.993 24.428 99.993 25.558C99.993 26.688 100.909 27.604 102.039 27.604Z" fill="#CFB52B"/>
<path d="M17.924 54.128C19.4732 54.128 20.729 52.8722 20.729 51.323C20.729 49.7738 19.4732 48.518 17.924 48.518C16.3749 48.518 15.119 49.7738 15.119 51.323C15.119 52.8722 16.3749 54.128 17.924 54.128Z" fill="#8DC63F"/>
<path d="M5.562 62.497C5.112 62.182 4.847 61.785 4.771 61.309C4.694 60.83 4.824 60.352 5.161 59.869C5.529 59.343 5.968 59.024 6.476 58.92C6.985 58.818 7.48199 58.934 7.97299 59.275C8.43999 59.602 8.70799 59.997 8.77699 60.46C8.84599 60.923 8.70399 61.408 8.34999 61.915C7.98799 62.436 7.55199 62.749 7.04799 62.851C6.54199 62.954 6.046 62.835 5.562 62.497ZM12.424 62.51L3.88199 65.966L2.80499 65.217L11.338 61.753L12.424 62.51ZM7.40399 60.032C6.97199 59.734 6.551 59.884 6.133 60.479C5.739 61.045 5.747 61.471 6.157 61.755C6.574 62.048 6.98899 61.901 7.39899 61.31C7.79799 60.737 7.80099 60.31 7.40399 60.032ZM7.26599 68.456C6.81499 68.142 6.551 67.748 6.476 67.27C6.398 66.792 6.52899 66.311 6.86699 65.828C7.23299 65.302 7.67198 64.987 8.18098 64.881C8.68998 64.776 9.18699 64.895 9.67599 65.237C10.148 65.563 10.418 65.959 10.488 66.417C10.555 66.879 10.414 67.36 10.061 67.868C9.69599 68.388 9.26099 68.7 8.75499 68.807C8.24799 68.912 7.75199 68.797 7.26599 68.456ZM9.09499 65.986C8.66799 65.689 8.24699 65.838 7.82899 66.435C7.43499 67 7.44499 67.427 7.85999 67.717C8.27799 68.009 8.69299 67.86 9.10399 67.271C9.29299 66.996 9.387 66.747 9.379 66.518C9.373 66.29 9.27699 66.113 9.09499 65.986Z" fill="#FEBC11"/>
<path d="M91.412 53.123L92.013 54.037L91.398 54.439L90.815 53.552C90.242 53.926 89.627 54.143 88.968 54.211L88.2 53.045C88.449 53.069 88.772 53.031 89.17 52.932C89.566 52.833 89.897 52.708 90.16 52.557L89.151 51.026C88.335 51.214 87.712 51.245 87.284 51.118C86.858 50.991 86.51 50.722 86.239 50.31C85.95 49.871 85.859 49.392 85.966 48.879C86.073 48.363 86.367 47.911 86.847 47.522L86.331 46.739L86.946 46.336L87.45 47.103C88.06 46.74 88.566 46.545 88.966 46.517L89.713 47.655C89.163 47.672 88.625 47.818 88.1 48.089L89.149 49.684C89.91 49.501 90.517 49.465 90.971 49.575C91.424 49.684 91.784 49.941 92.051 50.346C92.358 50.811 92.456 51.285 92.345 51.765C92.236 52.244 91.925 52.699 91.412 53.123ZM88.374 49.844L87.497 48.509C87.152 48.835 87.092 49.168 87.313 49.504C87.503 49.793 87.857 49.907 88.374 49.844ZM89.925 50.862L90.764 52.137C91.125 51.813 91.192 51.481 90.969 51.14C90.791 50.866 90.441 50.773 89.925 50.862Z" fill="#95A43A"/>
<path d="M80.593 34.278L79.245 33.715L78.242 36.105L75.984 35.159L76.985 32.769L72.087 30.715L72.746 29.14L80.515 23.841L82.954 24.862L79.984 31.951L81.334 32.515L80.593 34.278ZM79.69 26.407L79.643 26.386C79.491 26.543 79.227 26.777 78.851 27.086L74.881 29.811L77.727 31.003L79.209 27.467C79.34 27.155 79.5 26.8 79.69 26.407Z" fill="#FEBC11"/>
<path d="M91.0625 110.221H92.5918L97.3027 123H95.3691L91.8271 112.69L88.2852 123H86.3516L91.0625 110.221ZM88.5225 118.491H95.2461V120.196H88.5225V118.491Z" fill="#F26522"/>
<path d="M103.464 123.132C102.573 123.132 101.788 122.938 101.108 122.552C100.429 122.159 99.9014 121.608 99.5264 120.899C99.1572 120.185 98.9727 119.358 98.9727 118.421V114.8C98.9727 113.862 99.1572 113.039 99.5264 112.33C99.9014 111.615 100.429 111.064 101.108 110.678C101.788 110.285 102.573 110.089 103.464 110.089C104.354 110.089 105.14 110.285 105.819 110.678C106.499 111.064 107.023 111.615 107.393 112.33C107.768 113.039 107.955 113.862 107.955 114.8V118.421C107.955 119.358 107.768 120.185 107.393 120.899C107.023 121.608 106.499 122.159 105.819 122.552C105.14 122.938 104.354 123.132 103.464 123.132ZM103.464 121.365C103.991 121.365 104.454 121.248 104.853 121.014C105.257 120.773 105.567 120.437 105.784 120.003C106.007 119.563 106.118 119.057 106.118 118.482V114.738C106.118 114.164 106.007 113.66 105.784 113.227C105.567 112.787 105.257 112.45 104.853 112.216C104.454 111.976 103.991 111.855 103.464 111.855C102.937 111.855 102.471 111.976 102.066 112.216C101.668 112.45 101.357 112.787 101.135 113.227C100.918 113.66 100.81 114.164 100.81 114.738V118.482C100.81 119.057 100.918 119.563 101.135 120.003C101.357 120.437 101.668 120.773 102.066 121.014C102.471 121.248 102.937 121.365 103.464 121.365Z" fill="#95A43A"/>
</svg>
