<?xml version="1.0" encoding="utf-8"?>
<!-- Generator: Adobe Illustrator 16.0.0, SVG Export Plug-In . SVG Version: 6.00 Build 0)  -->
<!DOCTYPE svg PUBLIC "-//W3C//DTD SVG 1.1//EN" "http://www.w3.org/Graphics/SVG/1.1/DTD/svg11.dtd">
<svg version="1.1" id="Layer_1" xmlns="http://www.w3.org/2000/svg" xmlns:xlink="http://www.w3.org/1999/xlink" x="0px" y="0px"
	 width="2043.441px" height="5447.246px" viewBox="-28.941 10842.754 2043.441 5447.246"
	 enable-background="new -28.941 10842.754 2043.441 5447.246" xml:space="preserve">
<g id="Layer_2">
</g>
<text transform="matrix(0.9825 0 0 1 242.5664 12805.3945)" fill="#F15A29" font-family="'MyriadPro-Regular'" font-size="12.0003">H</text>
<text transform="matrix(0.9825 0 0 1 250.8315 12805.3945)" fill="#F15A29" font-family="'MyriadPro-Regular'" font-size="12.0003">OW MUC</text>
<text transform="matrix(0.9825 0 0 1 298.9126 12805.3945)" fill="#F15A29" font-family="'MyriadPro-Regular'" font-size="12.0003">H</text>
<text transform="matrix(0.9825 0 0 1 307.1777 12805.3945)" fill="#F15A29" font-family="'MyriadPro-Regular'" font-size="12.0003"> </text>
<text transform="matrix(0.9825 0 0 1 310.291 12805.3945)" fill="#F15A29" font-family="'MyriadPro-Regular'" font-size="12.0003">M</text>
<text transform="matrix(0.9825 0 0 1 320.4297 12805.3945)" fill="#F15A29" font-family="'MyriadPro-Regular'" font-size="12.0003">o</text>
<text transform="matrix(0.9825 0 0 1 327.4922 12805.3945)" fill="#F15A29" font-family="'MyriadPro-Regular'" font-size="12.0003">n</text>
<text transform="matrix(0.9825 0 0 1 334.6143 12805.3945)" fill="#F15A29" font-family="'MyriadPro-Regular'" font-size="12.0003">ey</text>
<text transform="matrix(0.9825 0 0 1 347.252 12805.3945)" fill="#F15A29" font-family="'MyriadPro-Regular'" font-size="12.0003"> </text>
<text transform="matrix(0.9825 0 0 1 350.3535 12805.3945)" fill="#F15A29" font-family="'MyriadPro-Regular'" font-size="12.0003">World</text>
<text transform="matrix(0.9825 0 0 1 242.5664 12819.793)" fill="#F15A29" font-family="'MyriadPro-Regular'" font-size="12.0003">G</text>
<text transform="matrix(0.9825 0 0 1 250.124 12819.793)" fill="#F15A29" font-family="'MyriadPro-Regular'" font-size="12.0003">o</text>
<text transform="matrix(0.9825 0 0 1 256.3965 12819.793)" fill="#F15A29" font-family="'MyriadPro-Regular'" font-size="12.0003">v</text>
<text transform="matrix(0.9825 0 0 1 261.832 12819.793)" fill="#F15A29" font-family="'MyriadPro-Regular'" font-size="12.0003">e</text>
<text transform="matrix(0.9825 0 0 1 267.6211 12819.793)" fill="#F15A29" font-family="'MyriadPro-Regular'" font-size="12.0003">r</text>
<text transform="matrix(0.9825 0 0 1 271.4058 12819.793)" fill="#F15A29" font-family="'MyriadPro-Regular'" font-size="12.0003">m</text>
<text transform="matrix(0.9825 0 0 1 281.1206 12819.793)" fill="#F15A29" font-family="'MyriadPro-Regular'" font-size="12.0003">e</text>
<text transform="matrix(0.9825 0 0 1 286.9102 12819.793)" fill="#F15A29" font-family="'MyriadPro-Regular'" font-size="12.0003">n</text>
<text transform="matrix(0.9825 0 0 1 293.2886 12819.793)" fill="#F15A29" font-family="'MyriadPro-Regular'" font-size="12.0003">t</text>
<text transform="matrix(0.9825 0 0 1 297.0737 12819.793)" fill="#F15A29" font-family="'MyriadPro-Regular'" font-size="12.0003">s</text>
<text transform="matrix(0.9825 0 0 1 301.6357 12819.793)" fill="#F15A29" font-family="'MyriadPro-Regular'" font-size="12.0003"> </text>
<text transform="matrix(0.9825 0 0 1 304.0063 12819.793)" fill="#F15A29" font-family="'MyriadPro-Regular'" font-size="12.0003">A</text>
<text transform="matrix(0.9825 0 0 1 311.0684 12819.793)" fill="#F15A29" font-family="'MyriadPro-Regular'" font-size="12.0003">n</text>
<text transform="matrix(0.9825 0 0 1 317.5059 12819.793)" fill="#F15A29" font-family="'MyriadPro-Regular'" font-size="12.0003">n</text>
<text transform="matrix(0.9825 0 0 1 323.9316 12819.793)" fill="#F15A29" font-family="'MyriadPro-Regular'" font-size="12.0003">u</text>
<text transform="matrix(0.9825 0 0 1 330.3213 12819.793)" fill="#F15A29" font-family="'MyriadPro-Regular'" font-size="12.0003">al</text>
<text transform="matrix(0.9825 0 0 1 338.5508 12819.793)" fill="#F15A29" font-family="'MyriadPro-Regular'" font-size="12.0003">l</text>
<text transform="matrix(0.9825 0 0 1 341.2275 12819.793)" fill="#F15A29" font-family="'MyriadPro-Regular'" font-size="12.0003">y</text>
<text transform="matrix(0.9825 0 0 1 346.6621 12819.793)" fill="#F15A29" font-family="'MyriadPro-Regular'" font-size="12.0003"> </text>
<text transform="matrix(0.9825 0 0 1 349.0566 12819.793)" fill="#F15A29" font-family="'MyriadPro-Regular'" font-size="12.0003">S</text>
<text transform="matrix(0.9825 0 0 1 354.75 12819.793)" fill="#F15A29" font-family="'MyriadPro-Regular'" font-size="12.0003">pen</text>
<text transform="matrix(0.9825 0 0 1 373.5918 12819.793)" fill="#F15A29" font-family="'MyriadPro-Regular'" font-size="12.0003">d</text>
<text transform="matrix(0.9825 0 0 1 242.5664 12834.1934)" fill="#F15A29" font-family="'MyriadPro-Regular'" font-size="12.0003">on </text>
<text transform="matrix(0.9825 0 0 1 258.0825 12834.1934)" fill="#F15A29" font-family="'MyriadPro-Bold'" font-size="12.0003">M</text>
<text transform="matrix(0.9825 0 0 1 268.3403 12834.1934)" fill="#F15A29" font-family="'MyriadPro-Bold'" font-size="12.0003">u</text>
<text transform="matrix(0.9825 0 0 1 275.5205 12834.1934)" fill="#F15A29" font-family="'MyriadPro-Bold'" font-size="12.0003">r</text>
<text transform="matrix(0.9825 0 0 1 280.2012 12834.1934)" fill="#F15A29" font-family="'MyriadPro-Bold'" font-size="12.0003">d</text>
<text transform="matrix(0.9825 0 0 1 287.5112 12834.1934)" fill="#F15A29" font-family="'MyriadPro-Bold'" font-size="12.0003">ering</text>
<text transform="matrix(0.9825 0 0 1 316.7266 12834.1934)" fill="#F15A29" font-family="'MyriadPro-Bold'" font-size="12.0003"> </text>
<text transform="matrix(0.9825 0 0 1 319.416 12834.1934)" fill="#F15A29" font-family="'MyriadPro-Bold'" font-size="12.0003">U</text>
<text transform="matrix(0.9825 0 0 1 327.5986 12834.1934)" fill="#F15A29" font-family="'MyriadPro-Bold'" font-size="12.0003">s</text>
<text transform="matrix(0.9825 0 0 1 333.0107 12834.1934)" fill="#F15A29" font-family="'MyriadPro-Bold'" font-size="12.0003"> </text>
<text transform="matrix(0.9825 0 0 1 335.6748 12834.1934)" fill="#F15A29" font-family="'MyriadPro-Bold'" font-size="12.0003">an</text>
<text transform="matrix(0.9825 0 0 1 349.3984 12834.1934)" fill="#F15A29" font-family="'MyriadPro-Bold'" font-size="12.0003">d</text>
<text transform="matrix(0.9825 0 0 1 242.5664 12848.5938)" fill="#F15A29" font-family="'MyriadPro-Bold'" font-size="12.0003">Dest</text>
<text transform="matrix(0.9825 0 0 1 266.4419 12848.5938)" fill="#F15A29" font-family="'MyriadPro-Bold'" font-size="12.0003">r</text>
<text transform="matrix(0.9825 0 0 1 270.8281 12848.5938)" fill="#F15A29" font-family="'MyriadPro-Bold'" font-size="12.0003">o</text>
<text transform="matrix(0.9825 0 0 1 277.5249 12848.5938)" fill="#F15A29" font-family="'MyriadPro-Bold'" font-size="12.0003">ying </text>
<text transform="matrix(0.9825 0 0 1 303.1099 12848.5938)" fill="#F15A29" font-family="'MyriadPro-Bold'" font-size="12.0003">O</text>
<text transform="matrix(0.9825 0 0 1 311.623 12848.5938)" fill="#F15A29" font-family="'MyriadPro-Bold'" font-size="12.0003">ur </text>
<text transform="matrix(0.9825 0 0 1 325.3584 12848.5938)" fill="#F15A29" font-family="'MyriadPro-Bold'" font-size="12.0003">P</text>
<text transform="matrix(0.9825 0 0 1 332.1025 12848.5938)" fill="#F15A29" font-family="'MyriadPro-Bold'" font-size="12.0003">r</text>
<text transform="matrix(0.9825 0 0 1 336.4883 12848.5938)" fill="#F15A29" font-family="'MyriadPro-Bold'" font-size="12.0003">o</text>
<text transform="matrix(0.9825 0 0 1 343.291 12848.5938)" fill="#F15A29" font-family="'MyriadPro-Bold'" font-size="12.0003">p</text>
<text transform="matrix(0.9825 0 0 1 350.3779 12848.5938)" fill="#F15A29" font-family="'MyriadPro-Bold'" font-size="12.0003">e</text>
<text transform="matrix(0.9825 0 0 1 356.6035 12848.5938)" fill="#F15A29" font-family="'MyriadPro-Bold'" font-size="12.0003">r</text>
<text transform="matrix(0.9825 0 0 1 361.3311 12848.5938)" fill="#F15A29" font-family="'MyriadPro-Bold'" font-size="12.0003">t</text>
<text transform="matrix(0.9825 0 0 1 365.7168 12848.5938)" fill="#F15A29" font-family="'MyriadPro-Bold'" font-size="12.0003">y</text>
<text transform="matrix(1 0 0 1 35.8906 16265.6113)" font-family="'MyriadPro-Regular'" font-size="18">https://www.weforum.org/agenda/2020/05/how-many-people-die-each-day-covid-19-coronavirus/es</text>
<rect x="215.247" y="11004.273" stroke="#000000" stroke-width="2" width="189.018" height="5140.098"/>
<line fill="none" stroke="#6D6F71" stroke-miterlimit="10" x1="853.59" y1="12837.395" x2="860.723" y2="12837.395"/>
<g>
	<rect x="1553.635" y="16188.307" fill="none" width="269.353" height="70.609"/>
	<text transform="matrix(1 0 0 1 1672.7773 16258.916)" font-family="'MyriadPro-Regular'" font-size="36">CureDAO.org</text>
</g>
<rect x="871.098" y="16136.191" fill="#CC0000" width="514.041" height="1.535"/>
<g>
	<polygon fill="#CC0000" points="998.956,15478.703 1257.238,15478.703 1257.238,15626.992 1391.271,15626.992 1259.708,15779.414 
		1128.118,15931.848 996.55,15779.414 864.966,15626.992 998.956,15626.992 	"/>
	<rect x="1004.343" y="15371.258" fill="#CC0000" width="247.59" height="79.035"/>
	<rect x="1004.343" y="15301.635" fill="#CC0000" width="247.59" height="45.158"/>
	<rect x="1003.858" y="15239.813" fill="#CC0000" width="247.567" height="30.438"/>
</g>
<text transform="matrix(0.9766 0 0 1 776.0098 11218.3555)" font-family="'MyriadPro-Regular'" font-size="174.2508">54,750,000</text>
<path fill="#FFFFFF" d="M309.755,15951.348c-32.999,0-59.75,26.75-59.75,59.75c0,19.703,9.541,37.174,24.25,48.057v31.953
	c3.009,1.189,6.1,2.221,9.25,3.107v-17.867h6v19.344c3.113,0.664,6.281,1.184,9.5,1.539v-21.383h6v21.883
	c1.574,0.076,3.156,0.117,4.75,0.117c1.592,0,3.175-0.041,4.75-0.117v-22.383h6v21.883c3.217-0.355,6.385-0.875,9.5-1.539v-20.844h6
	v19.367c3.148-0.887,6.24-1.918,9.25-3.107v-31.953c14.709-10.883,24.25-28.354,24.25-48.057
	C369.505,15978.098,342.754,15951.348,309.755,15951.348 M284.019,16028.348c-7.869,0-14.25-6.383-14.25-14.25
	c0-7.871,6.381-14.25,14.25-14.25c7.87,0,14.25,6.379,14.25,14.25C298.269,16021.965,291.889,16028.348,284.019,16028.348
	 M298.52,16046.348l11.235-22.764l11.234,22.764H298.52z M335.49,16028.348c-7.869,0-14.25-6.383-14.25-14.25
	c0-7.871,6.381-14.25,14.25-14.25c7.871,0,14.25,6.379,14.25,14.25C349.74,16021.965,343.361,16028.348,335.49,16028.348"/>
<path fill="#FFFFFF" d="M309.755,15761.547c-32.999,0-59.75,26.752-59.75,59.75c0,19.703,9.541,37.176,24.25,48.057v31.955
	c3.009,1.189,6.1,2.219,9.25,3.107v-17.869h6v19.344c3.113,0.666,6.281,1.184,9.5,1.541v-21.385h6v21.883
	c1.574,0.078,3.156,0.117,4.75,0.117c1.592,0,3.175-0.039,4.75-0.117v-22.383h6v21.885c3.217-0.357,6.385-0.875,9.5-1.541v-20.844h6
	v19.369c3.148-0.889,6.24-1.918,9.25-3.107v-31.955c14.709-10.881,24.25-28.354,24.25-48.057
	C369.505,15788.299,342.754,15761.547,309.755,15761.547 M284.019,15838.547c-7.869,0-14.25-6.381-14.25-14.25
	s6.381-14.25,14.25-14.25c7.87,0,14.25,6.381,14.25,14.25S291.889,15838.547,284.019,15838.547 M298.52,15856.547l11.235-22.764
	l11.234,22.764H298.52z M335.49,15838.547c-7.869,0-14.25-6.381-14.25-14.25s6.381-14.25,14.25-14.25
	c7.871,0,14.25,6.381,14.25,14.25S343.361,15838.547,335.49,15838.547"/>
<path fill="#FFFFFF" d="M309.755,15575.463c-32.999,0-59.75,26.752-59.75,59.75c0,19.703,9.541,37.174,24.25,48.057v31.953
	c3.009,1.191,6.1,2.221,9.25,3.109v-17.869h6v19.344c3.113,0.666,6.281,1.184,9.5,1.541v-21.385h6v21.883
	c1.574,0.076,3.156,0.117,4.75,0.117c1.592,0,3.175-0.041,4.75-0.117v-22.383h6v21.885c3.217-0.357,6.385-0.875,9.5-1.541v-20.844h6
	v19.369c3.148-0.889,6.24-1.918,9.25-3.109v-31.953c14.709-10.883,24.25-28.354,24.25-48.057
	C369.505,15602.215,342.754,15575.463,309.755,15575.463 M284.019,15652.463c-7.869,0-14.25-6.381-14.25-14.25
	s6.381-14.25,14.25-14.25c7.87,0,14.25,6.381,14.25,14.25S291.889,15652.463,284.019,15652.463 M298.52,15670.463l11.235-22.764
	l11.234,22.764H298.52z M335.49,15652.463c-7.869,0-14.25-6.381-14.25-14.25s6.381-14.25,14.25-14.25
	c7.871,0,14.25,6.381,14.25,14.25S343.361,15652.463,335.49,15652.463"/>
<path fill="#FFFFFF" d="M311.623,15385.945c-32.999,0-59.75,26.752-59.75,59.75c0,19.703,9.541,37.174,24.25,48.057v31.953
	c3.009,1.189,6.1,2.221,9.25,3.107v-17.867h6v19.344c3.113,0.664,6.281,1.184,9.5,1.539v-21.383h6v21.883
	c1.574,0.076,3.156,0.117,4.75,0.117c1.592,0,3.175-0.041,4.75-0.117v-22.383h6v21.883c3.217-0.355,6.385-0.875,9.5-1.539v-20.844h6
	v19.367c3.148-0.887,6.24-1.918,9.25-3.107v-31.953c14.709-10.883,24.25-28.354,24.25-48.057
	C371.373,15412.697,344.622,15385.945,311.623,15385.945 M285.886,15462.945c-7.869,0-14.25-6.383-14.25-14.25
	c0-7.871,6.381-14.25,14.25-14.25c7.87,0,14.25,6.379,14.25,14.25C300.136,15456.563,293.756,15462.945,285.886,15462.945
	 M300.387,15480.945l11.235-22.766l11.234,22.766H300.387z M337.357,15462.945c-7.869,0-14.25-6.383-14.25-14.25
	c0-7.871,6.381-14.25,14.25-14.25c7.87,0,14.25,6.379,14.25,14.25C351.607,15456.563,345.228,15462.945,337.357,15462.945"/>
<path fill="#FFFFFF" d="M311.623,15196.145c-32.999,0-59.75,26.752-59.75,59.75c0,19.703,9.541,37.176,24.25,48.057v31.955
	c3.009,1.189,6.1,2.219,9.25,3.107v-17.869h6v19.344c3.113,0.666,6.281,1.184,9.5,1.541v-21.385h6v21.883
	c1.574,0.078,3.156,0.117,4.75,0.117c1.592,0,3.175-0.039,4.75-0.117v-22.383h6v21.885c3.217-0.357,6.385-0.875,9.5-1.541v-20.844h6
	v19.369c3.148-0.889,6.24-1.918,9.25-3.107v-31.955c14.709-10.881,24.25-28.354,24.25-48.057
	C371.373,15222.896,344.622,15196.145,311.623,15196.145 M285.886,15273.145c-7.869,0-14.25-6.381-14.25-14.25
	s6.381-14.25,14.25-14.25c7.87,0,14.25,6.381,14.25,14.25S293.756,15273.145,285.886,15273.145 M300.387,15291.145l11.235-22.764
	l11.234,22.764H300.387z M337.357,15273.145c-7.869,0-14.25-6.381-14.25-14.25s6.381-14.25,14.25-14.25
	c7.87,0,14.25,6.381,14.25,14.25S345.228,15273.145,337.357,15273.145"/>
<path fill="#FFFFFF" d="M311.623,15010.061c-32.999,0-59.75,26.752-59.75,59.75c0,19.703,9.541,37.174,24.25,48.057v31.953
	c3.009,1.191,6.1,2.221,9.25,3.109v-17.869h6v19.344c3.113,0.666,6.281,1.184,9.5,1.541v-21.385h6v21.883
	c1.574,0.076,3.156,0.117,4.75,0.117c1.592,0,3.175-0.041,4.75-0.117v-22.383h6v21.885c3.217-0.357,6.385-0.875,9.5-1.541v-20.844h6
	v19.369c3.148-0.889,6.24-1.918,9.25-3.109v-31.953c14.709-10.883,24.25-28.354,24.25-48.057
	C371.373,15036.813,344.622,15010.061,311.623,15010.061 M285.886,15087.061c-7.869,0-14.25-6.381-14.25-14.25
	s6.381-14.25,14.25-14.25c7.87,0,14.25,6.381,14.25,14.25S293.756,15087.061,285.886,15087.061 M300.387,15105.061l11.235-22.764
	l11.234,22.764H300.387z M337.357,15087.061c-7.869,0-14.25-6.381-14.25-14.25s6.381-14.25,14.25-14.25
	c7.87,0,14.25,6.381,14.25,14.25S345.228,15087.061,337.357,15087.061"/>
<path fill="#FFFFFF" d="M310.135,14810.836c-32.999,0-59.75,26.754-59.75,59.75c0,19.703,9.541,37.176,24.25,48.059v31.953
	c3.009,1.191,6.1,2.219,9.25,3.109v-17.871h6v19.344c3.113,0.668,6.281,1.184,9.5,1.543v-21.387h6v21.883
	c1.574,0.078,3.156,0.117,4.75,0.117c1.592,0,3.175-0.039,4.75-0.117v-22.383h6v21.887c3.217-0.359,6.385-0.875,9.5-1.543v-20.844h6
	v19.371c3.148-0.891,6.24-1.918,9.25-3.109v-31.953c14.709-10.883,24.25-28.355,24.25-48.059
	C369.885,14837.59,343.134,14810.836,310.135,14810.836 M284.398,14887.836c-7.869,0-14.25-6.379-14.25-14.25
	c0-7.867,6.381-14.25,14.25-14.25c7.87,0,14.25,6.383,14.25,14.25C298.648,14881.457,292.269,14887.836,284.398,14887.836
	 M298.899,14905.836l11.235-22.762l11.234,22.762H298.899z M335.869,14887.836c-7.869,0-14.25-6.379-14.25-14.25
	c0-7.867,6.381-14.25,14.25-14.25c7.871,0,14.25,6.383,14.25,14.25C350.119,14881.457,343.74,14887.836,335.869,14887.836"/>
<path fill="#FFFFFF" d="M310.135,14621.037c-32.999,0-59.75,26.752-59.75,59.75c0,19.703,9.541,37.174,24.25,48.057v31.953
	c3.009,1.191,6.1,2.221,9.25,3.109v-17.869h6v19.344c3.113,0.666,6.281,1.184,9.5,1.541v-21.385h6v21.883
	c1.574,0.076,3.156,0.117,4.75,0.117c1.592,0,3.175-0.041,4.75-0.117v-22.383h6v21.885c3.217-0.357,6.385-0.875,9.5-1.541v-20.844h6
	v19.369c3.148-0.889,6.24-1.918,9.25-3.109v-31.953c14.709-10.883,24.25-28.354,24.25-48.057
	C369.885,14647.789,343.134,14621.037,310.135,14621.037 M284.398,14698.037c-7.869,0-14.25-6.381-14.25-14.25
	s6.381-14.25,14.25-14.25c7.87,0,14.25,6.381,14.25,14.25S292.269,14698.037,284.398,14698.037 M298.899,14716.037l11.235-22.764
	l11.234,22.764H298.899z M335.869,14698.037c-7.869,0-14.25-6.381-14.25-14.25s6.381-14.25,14.25-14.25
	c7.871,0,14.25,6.381,14.25,14.25S343.74,14698.037,335.869,14698.037"/>
<path fill="#FFFFFF" d="M310.135,14434.953c-32.999,0-59.75,26.752-59.75,59.75c0,19.703,9.541,37.176,24.25,48.057v31.955
	c3.009,1.189,6.1,2.219,9.25,3.107v-17.869h6v19.344c3.113,0.666,6.281,1.184,9.5,1.541v-21.385h6v21.883
	c1.574,0.078,3.156,0.117,4.75,0.117c1.592,0,3.175-0.039,4.75-0.117v-22.383h6v21.885c3.217-0.357,6.385-0.875,9.5-1.541v-20.844h6
	v19.369c3.148-0.889,6.24-1.918,9.25-3.107v-31.955c14.709-10.881,24.25-28.354,24.25-48.057
	C369.885,14461.705,343.134,14434.953,310.135,14434.953 M284.398,14511.953c-7.869,0-14.25-6.381-14.25-14.25
	s6.381-14.25,14.25-14.25c7.87,0,14.25,6.381,14.25,14.25S292.269,14511.953,284.398,14511.953 M298.899,14529.953l11.235-22.764
	l11.234,22.764H298.899z M335.869,14511.953c-7.869,0-14.25-6.381-14.25-14.25s6.381-14.25,14.25-14.25
	c7.871,0,14.25,6.381,14.25,14.25S343.74,14511.953,335.869,14511.953"/>
<path fill="#FFFFFF" d="M312.002,14245.434c-32.999,0-59.75,26.754-59.75,59.75c0,19.703,9.541,37.176,24.25,48.059v31.953
	c3.009,1.191,6.1,2.219,9.25,3.109v-17.871h6v19.344c3.113,0.668,6.281,1.184,9.5,1.543v-21.387h6v21.883
	c1.574,0.078,3.156,0.117,4.75,0.117c1.592,0,3.175-0.039,4.75-0.117v-22.383h6v21.887c3.217-0.359,6.385-0.875,9.5-1.543v-20.844h6
	v19.371c3.148-0.891,6.24-1.918,9.25-3.109v-31.953c14.709-10.883,24.25-28.355,24.25-48.059
	C371.752,14272.188,345.001,14245.434,312.002,14245.434 M286.266,14322.434c-7.869,0-14.25-6.379-14.25-14.25
	c0-7.867,6.381-14.25,14.25-14.25c7.87,0,14.25,6.383,14.25,14.25C300.516,14316.055,294.136,14322.434,286.266,14322.434
	 M300.767,14340.434l11.235-22.762l11.234,22.762H300.767z M337.736,14322.434c-7.869,0-14.25-6.379-14.25-14.25
	c0-7.867,6.381-14.25,14.25-14.25c7.871,0,14.25,6.383,14.25,14.25C351.986,14316.055,345.607,14322.434,337.736,14322.434"/>
<path fill="#FFFFFF" d="M312.002,14055.635c-32.999,0-59.75,26.752-59.75,59.75c0,19.703,9.541,37.174,24.25,48.057v31.953
	c3.009,1.191,6.1,2.221,9.25,3.109v-17.869h6v19.344c3.113,0.666,6.281,1.184,9.5,1.541v-21.385h6v21.883
	c1.574,0.076,3.156,0.117,4.75,0.117c1.592,0,3.175-0.041,4.75-0.117v-22.383h6v21.885c3.217-0.357,6.385-0.875,9.5-1.541v-20.844h6
	v19.369c3.148-0.889,6.24-1.918,9.25-3.109v-31.953c14.709-10.883,24.25-28.354,24.25-48.057
	C371.752,14082.387,345.001,14055.635,312.002,14055.635 M286.266,14132.635c-7.869,0-14.25-6.381-14.25-14.25
	s6.381-14.25,14.25-14.25c7.87,0,14.25,6.381,14.25,14.25S294.136,14132.635,286.266,14132.635 M300.767,14150.635l11.235-22.764
	l11.234,22.764H300.767z M337.736,14132.635c-7.869,0-14.25-6.381-14.25-14.25s6.381-14.25,14.25-14.25
	c7.871,0,14.25,6.381,14.25,14.25S345.607,14132.635,337.736,14132.635"/>
<path fill="#FFFFFF" d="M312.002,13869.551c-32.999,0-59.75,26.752-59.75,59.75c0,19.703,9.541,37.176,24.25,48.057v31.955
	c3.009,1.189,6.1,2.219,9.25,3.107v-17.869h6v19.344c3.113,0.666,6.281,1.184,9.5,1.541v-21.385h6v21.883
	c1.574,0.078,3.156,0.117,4.75,0.117c1.592,0,3.175-0.039,4.75-0.117v-22.383h6v21.885c3.217-0.357,6.385-0.875,9.5-1.541v-20.844h6
	v19.369c3.148-0.889,6.24-1.918,9.25-3.107v-31.955c14.709-10.881,24.25-28.354,24.25-48.057
	C371.752,13896.303,345.001,13869.551,312.002,13869.551 M286.266,13946.551c-7.869,0-14.25-6.381-14.25-14.25
	s6.381-14.25,14.25-14.25c7.87,0,14.25,6.381,14.25,14.25S294.136,13946.551,286.266,13946.551 M300.767,13964.551l11.235-22.764
	l11.234,22.764H300.767z M337.736,13946.551c-7.869,0-14.25-6.381-14.25-14.25s6.381-14.25,14.25-14.25
	c7.871,0,14.25,6.381,14.25,14.25S345.607,13946.551,337.736,13946.551"/>
<path fill="#FFFFFF" d="M308.632,13679.75c-32.999,0-59.75,26.754-59.75,59.75c0,19.703,9.541,37.176,24.25,48.059v31.953
	c3.009,1.191,6.1,2.219,9.25,3.109v-17.871h6v19.344c3.113,0.668,6.281,1.184,9.5,1.543v-21.387h6v21.883
	c1.574,0.078,3.156,0.117,4.75,0.117c1.592,0,3.175-0.039,4.75-0.117v-22.383h6v21.887c3.217-0.359,6.385-0.875,9.5-1.543v-20.844h6
	v19.371c3.148-0.891,6.24-1.918,9.25-3.109v-31.953c14.709-10.883,24.25-28.355,24.25-48.059
	C368.382,13706.504,341.631,13679.75,308.632,13679.75 M282.896,13756.75c-7.869,0-14.25-6.379-14.25-14.25
	c0-7.867,6.381-14.25,14.25-14.25c7.87,0,14.25,6.383,14.25,14.25C297.146,13750.371,290.766,13756.75,282.896,13756.75
	 M297.396,13774.75l11.235-22.762l11.234,22.762H297.396z M334.366,13756.75c-7.869,0-14.25-6.379-14.25-14.25
	c0-7.867,6.381-14.25,14.25-14.25c7.871,0,14.25,6.383,14.25,14.25C348.616,13750.371,342.237,13756.75,334.366,13756.75"/>
<path fill="#FFFFFF" d="M308.632,13489.951c-32.999,0-59.75,26.752-59.75,59.75c0,19.703,9.541,37.174,24.25,48.057v31.953
	c3.009,1.191,6.1,2.221,9.25,3.109v-17.869h6v19.344c3.113,0.666,6.281,1.184,9.5,1.541v-21.385h6v21.883
	c1.574,0.076,3.156,0.117,4.75,0.117c1.592,0,3.175-0.041,4.75-0.117v-22.383h6v21.885c3.217-0.357,6.385-0.875,9.5-1.541v-20.844h6
	v19.369c3.148-0.889,6.24-1.918,9.25-3.109v-31.953c14.709-10.883,24.25-28.354,24.25-48.057
	C368.382,13516.703,341.631,13489.951,308.632,13489.951 M282.896,13566.951c-7.869,0-14.25-6.381-14.25-14.25
	s6.381-14.25,14.25-14.25c7.87,0,14.25,6.381,14.25,14.25S290.766,13566.951,282.896,13566.951 M297.396,13584.951l11.235-22.764
	l11.234,22.764H297.396z M334.366,13566.951c-7.869,0-14.25-6.381-14.25-14.25s6.381-14.25,14.25-14.25
	c7.871,0,14.25,6.381,14.25,14.25S342.237,13566.951,334.366,13566.951"/>
<path fill="#FFFFFF" d="M308.632,13303.867c-32.999,0-59.75,26.752-59.75,59.75c0,19.703,9.541,37.176,24.25,48.057v31.955
	c3.009,1.189,6.1,2.219,9.25,3.107v-17.869h6v19.344c3.113,0.666,6.281,1.184,9.5,1.541v-21.385h6v21.883
	c1.574,0.078,3.156,0.117,4.75,0.117c1.592,0,3.175-0.039,4.75-0.117v-22.383h6v21.885c3.217-0.357,6.385-0.875,9.5-1.541v-20.844h6
	v19.369c3.148-0.889,6.24-1.918,9.25-3.107v-31.955c14.709-10.881,24.25-28.354,24.25-48.057
	C368.382,13330.619,341.631,13303.867,308.632,13303.867 M282.896,13380.867c-7.869,0-14.25-6.381-14.25-14.25
	s6.381-14.25,14.25-14.25c7.87,0,14.25,6.381,14.25,14.25S290.766,13380.867,282.896,13380.867 M297.396,13398.867l11.235-22.764
	l11.234,22.764H297.396z M334.366,13380.867c-7.869,0-14.25-6.381-14.25-14.25s6.381-14.25,14.25-14.25
	c7.871,0,14.25,6.381,14.25,14.25S342.237,13380.867,334.366,13380.867"/>
<path fill="#FFFFFF" d="M310.499,13114.348c-32.999,0-59.75,26.754-59.75,59.75c0,19.703,9.541,37.176,24.25,48.059v31.953
	c3.009,1.191,6.1,2.219,9.25,3.109v-17.871h6v19.344c3.113,0.668,6.281,1.184,9.5,1.543v-21.387h6v21.883
	c1.574,0.078,3.156,0.117,4.75,0.117c1.592,0,3.175-0.039,4.75-0.117v-22.383h6v21.887c3.217-0.359,6.385-0.875,9.5-1.543v-20.844h6
	v19.371c3.148-0.891,6.24-1.918,9.25-3.109v-31.953c14.709-10.883,24.25-28.355,24.25-48.059
	C370.249,13141.102,343.498,13114.348,310.499,13114.348 M284.763,13191.348c-7.869,0-14.25-6.379-14.25-14.25
	c0-7.867,6.381-14.25,14.25-14.25c7.87,0,14.25,6.383,14.25,14.25C299.013,13184.969,292.633,13191.348,284.763,13191.348
	 M299.264,13209.348l11.235-22.762l11.234,22.762H299.264z M336.233,13191.348c-7.869,0-14.25-6.379-14.25-14.25
	c0-7.867,6.381-14.25,14.25-14.25c7.87,0,14.25,6.383,14.25,14.25C350.483,13184.969,344.104,13191.348,336.233,13191.348"/>
<path fill="#FFFFFF" d="M310.499,12924.549c-32.999,0-59.75,26.752-59.75,59.75c0,19.703,9.541,37.174,24.25,48.057v31.953
	c3.009,1.191,6.1,2.221,9.25,3.109v-17.869h6v19.344c3.113,0.666,6.281,1.184,9.5,1.541v-21.385h6v21.883
	c1.574,0.076,3.156,0.117,4.75,0.117c1.592,0,3.175-0.041,4.75-0.117v-22.383h6v21.885c3.217-0.357,6.385-0.875,9.5-1.541v-20.844h6
	v19.369c3.148-0.889,6.24-1.918,9.25-3.109v-31.953c14.709-10.883,24.25-28.354,24.25-48.057
	C370.249,12951.301,343.498,12924.549,310.499,12924.549 M284.763,13001.549c-7.869,0-14.25-6.381-14.25-14.25
	s6.381-14.25,14.25-14.25c7.87,0,14.25,6.381,14.25,14.25S292.633,13001.549,284.763,13001.549 M299.264,13019.549l11.235-22.764
	l11.234,22.764H299.264z M336.233,13001.549c-7.869,0-14.25-6.381-14.25-14.25s6.381-14.25,14.25-14.25
	c7.87,0,14.25,6.381,14.25,14.25S344.104,13001.549,336.233,13001.549"/>
<path fill="#FFFFFF" d="M310.499,12738.465c-32.999,0-59.75,26.752-59.75,59.75c0,19.703,9.541,37.176,24.25,48.057v31.955
	c3.009,1.189,6.1,2.219,9.25,3.107v-17.869h6v19.344c3.113,0.666,6.281,1.184,9.5,1.541v-21.385h6v21.883
	c1.574,0.078,3.156,0.117,4.75,0.117c1.592,0,3.175-0.039,4.75-0.117v-22.383h6v21.885c3.217-0.357,6.385-0.875,9.5-1.541v-20.844h6
	v19.369c3.148-0.889,6.24-1.918,9.25-3.107v-31.955c14.709-10.881,24.25-28.354,24.25-48.057
	C370.249,12765.217,343.498,12738.465,310.499,12738.465 M284.763,12815.465c-7.869,0-14.25-6.381-14.25-14.25
	s6.381-14.25,14.25-14.25c7.87,0,14.25,6.381,14.25,14.25S292.633,12815.465,284.763,12815.465 M299.264,12833.465l11.235-22.764
	l11.234,22.764H299.264z M336.233,12815.465c-7.869,0-14.25-6.381-14.25-14.25s6.381-14.25,14.25-14.25
	c7.87,0,14.25,6.381,14.25,14.25S344.104,12815.465,336.233,12815.465"/>
<path fill="#FFFFFF" d="M309.011,12539.242c-32.999,0-59.75,26.75-59.75,59.75c0,19.703,9.541,37.174,24.25,48.055v31.955
	c3.009,1.189,6.1,2.221,9.25,3.107v-17.867h6v19.344c3.113,0.664,6.281,1.184,9.5,1.539v-21.383h6v21.883
	c1.574,0.076,3.156,0.117,4.75,0.117c1.592,0,3.175-0.041,4.75-0.117v-22.383h6v21.883c3.217-0.355,6.386-0.875,9.5-1.539v-20.844h6
	v19.367c3.148-0.887,6.24-1.918,9.25-3.107v-31.955c14.709-10.881,24.25-28.352,24.25-48.055
	C368.762,12565.992,342.01,12539.242,309.011,12539.242 M283.275,12616.242c-7.869,0-14.25-6.383-14.25-14.25
	c0-7.871,6.381-14.25,14.25-14.25c7.87,0,14.25,6.379,14.25,14.25C297.525,12609.859,291.145,12616.242,283.275,12616.242
	 M297.776,12634.242l11.235-22.766l11.235,22.766H297.776z M334.746,12616.242c-7.869,0-14.25-6.383-14.25-14.25
	c0-7.871,6.381-14.25,14.25-14.25c7.871,0,14.25,6.379,14.25,14.25C348.996,12609.859,342.617,12616.242,334.746,12616.242"/>
<path fill="#FFFFFF" d="M309.011,12349.441c-32.999,0-59.75,26.752-59.75,59.75c0,19.703,9.541,37.176,24.25,48.057v31.955
	c3.009,1.189,6.1,2.219,9.25,3.107v-17.869h6v19.344c3.113,0.666,6.281,1.184,9.5,1.541v-21.385h6v21.883
	c1.574,0.078,3.156,0.117,4.75,0.117c1.592,0,3.175-0.039,4.75-0.117v-22.383h6v21.885c3.217-0.357,6.386-0.875,9.5-1.541v-20.844h6
	v19.369c3.148-0.889,6.24-1.918,9.25-3.107v-31.955c14.709-10.881,24.25-28.354,24.25-48.057
	C368.762,12376.193,342.01,12349.441,309.011,12349.441 M283.275,12426.441c-7.869,0-14.25-6.381-14.25-14.25
	s6.381-14.25,14.25-14.25c7.87,0,14.25,6.381,14.25,14.25S291.145,12426.441,283.275,12426.441 M297.776,12444.441l11.235-22.764
	l11.235,22.764H297.776z M334.746,12426.441c-7.869,0-14.25-6.381-14.25-14.25s6.381-14.25,14.25-14.25
	c7.871,0,14.25,6.381,14.25,14.25S342.617,12426.441,334.746,12426.441"/>
<path fill="#FFFFFF" d="M309.011,12163.357c-32.999,0-59.75,26.752-59.75,59.75c0,19.703,9.541,37.174,24.25,48.057v31.953
	c3.009,1.191,6.1,2.221,9.25,3.109v-17.869h6v19.344c3.113,0.666,6.281,1.184,9.5,1.541v-21.385h6v21.883
	c1.574,0.076,3.156,0.117,4.75,0.117c1.592,0,3.175-0.041,4.75-0.117v-22.383h6v21.885c3.217-0.357,6.386-0.875,9.5-1.541v-20.844h6
	v19.369c3.148-0.889,6.24-1.918,9.25-3.109v-31.953c14.709-10.883,24.25-28.354,24.25-48.057
	C368.762,12190.109,342.01,12163.357,309.011,12163.357 M283.275,12240.357c-7.869,0-14.25-6.381-14.25-14.25
	s6.381-14.25,14.25-14.25c7.87,0,14.25,6.381,14.25,14.25S291.145,12240.357,283.275,12240.357 M297.776,12258.357l11.235-22.764
	l11.235,22.764H297.776z M334.746,12240.357c-7.869,0-14.25-6.381-14.25-14.25s6.381-14.25,14.25-14.25
	c7.871,0,14.25,6.381,14.25,14.25S342.617,12240.357,334.746,12240.357"/>
<path fill="#FFFFFF" d="M310.878,11973.84c-32.999,0-59.75,26.75-59.75,59.75c0,19.703,9.541,37.174,24.25,48.055v31.955
	c3.009,1.189,6.1,2.221,9.25,3.107v-17.867h6v19.344c3.113,0.664,6.281,1.184,9.5,1.539v-21.383h6v21.883
	c1.574,0.076,3.156,0.117,4.75,0.117c1.592,0,3.175-0.041,4.75-0.117v-22.383h6v21.883c3.217-0.355,6.385-0.875,9.5-1.539v-20.844h6
	v19.367c3.148-0.887,6.24-1.918,9.25-3.107v-31.955c14.709-10.881,24.25-28.352,24.25-48.055
	C370.629,12000.59,343.877,11973.84,310.878,11973.84 M285.142,12050.84c-7.869,0-14.25-6.383-14.25-14.25
	c0-7.871,6.381-14.25,14.25-14.25c7.87,0,14.25,6.379,14.25,14.25C299.392,12044.457,293.012,12050.84,285.142,12050.84
	 M299.643,12068.84l11.235-22.766l11.235,22.766H299.643z M336.613,12050.84c-7.869,0-14.25-6.383-14.25-14.25
	c0-7.871,6.381-14.25,14.25-14.25c7.871,0,14.25,6.379,14.25,14.25C350.863,12044.457,344.484,12050.84,336.613,12050.84"/>
<path fill="#FFFFFF" d="M310.878,11784.039c-32.999,0-59.75,26.752-59.75,59.75c0,19.703,9.541,37.176,24.25,48.057v31.955
	c3.009,1.189,6.1,2.219,9.25,3.107v-17.869h6v19.344c3.113,0.666,6.281,1.184,9.5,1.541v-21.385h6v21.883
	c1.574,0.078,3.156,0.117,4.75,0.117c1.592,0,3.175-0.039,4.75-0.117v-22.383h6v21.885c3.217-0.357,6.385-0.875,9.5-1.541v-20.844h6
	v19.369c3.148-0.889,6.24-1.918,9.25-3.107v-31.955c14.709-10.881,24.25-28.354,24.25-48.057
	C370.629,11810.791,343.877,11784.039,310.878,11784.039 M285.142,11861.039c-7.869,0-14.25-6.381-14.25-14.25
	s6.381-14.25,14.25-14.25c7.87,0,14.25,6.381,14.25,14.25S293.012,11861.039,285.142,11861.039 M299.643,11879.039l11.235-22.764
	l11.235,22.764H299.643z M336.613,11861.039c-7.869,0-14.25-6.381-14.25-14.25s6.381-14.25,14.25-14.25
	c7.871,0,14.25,6.381,14.25,14.25S344.484,11861.039,336.613,11861.039"/>
<path fill="#FFFFFF" d="M310.878,11597.955c-32.999,0-59.75,26.752-59.75,59.75c0,19.703,9.541,37.174,24.25,48.057v31.953
	c3.009,1.191,6.1,2.221,9.25,3.109v-17.869h6v19.344c3.113,0.666,6.281,1.184,9.5,1.541v-21.385h6v21.883
	c1.574,0.076,3.156,0.117,4.75,0.117c1.592,0,3.175-0.041,4.75-0.117v-22.383h6v21.885c3.217-0.357,6.385-0.875,9.5-1.541v-20.844h6
	v19.369c3.148-0.889,6.24-1.918,9.25-3.109v-31.953c14.709-10.883,24.25-28.354,24.25-48.057
	C370.629,11624.707,343.877,11597.955,310.878,11597.955 M285.142,11674.955c-7.869,0-14.25-6.381-14.25-14.25
	s6.381-14.25,14.25-14.25c7.87,0,14.25,6.381,14.25,14.25S293.012,11674.955,285.142,11674.955 M299.643,11692.955l11.235-22.764
	l11.235,22.764H299.643z M336.613,11674.955c-7.869,0-14.25-6.381-14.25-14.25s6.381-14.25,14.25-14.25
	c7.871,0,14.25,6.381,14.25,14.25S344.484,11674.955,336.613,11674.955"/>
<path fill="#FFFFFF" d="M310.499,11408.156c-32.999,0-59.75,26.75-59.75,59.75c0,19.703,9.541,37.174,24.25,48.055v31.955
	c3.009,1.189,6.1,2.221,9.25,3.107v-17.867h6v19.344c3.113,0.664,6.281,1.184,9.5,1.539v-21.383h6v21.883
	c1.574,0.076,3.156,0.117,4.75,0.117c1.592,0,3.175-0.041,4.75-0.117v-22.383h6v21.883c3.217-0.355,6.385-0.875,9.5-1.539v-20.844h6
	v19.367c3.148-0.887,6.24-1.918,9.25-3.107v-31.955c14.709-10.881,24.25-28.352,24.25-48.055
	C370.249,11434.906,343.499,11408.156,310.499,11408.156 M284.763,11485.156c-7.869,0-14.25-6.383-14.25-14.25
	c0-7.871,6.381-14.25,14.25-14.25c7.87,0,14.25,6.379,14.25,14.25C299.013,11478.773,292.633,11485.156,284.763,11485.156
	 M299.264,11503.156l11.235-22.766l11.234,22.766H299.264z M336.233,11485.156c-7.869,0-14.25-6.383-14.25-14.25
	c0-7.871,6.381-14.25,14.25-14.25c7.87,0,14.25,6.379,14.25,14.25C350.483,11478.773,344.104,11485.156,336.233,11485.156"/>
<path fill="#FFFFFF" d="M310.499,11218.355c-32.999,0-59.75,26.752-59.75,59.75c0,19.703,9.541,37.176,24.25,48.057v31.955
	c3.009,1.189,6.1,2.219,9.25,3.107v-17.869h6v19.344c3.113,0.666,6.281,1.184,9.5,1.541v-21.385h6v21.883
	c1.574,0.078,3.156,0.117,4.75,0.117c1.592,0,3.175-0.039,4.75-0.117v-22.383h6v21.885c3.217-0.357,6.385-0.875,9.5-1.541v-20.844h6
	v19.369c3.148-0.889,6.24-1.918,9.25-3.107v-31.955c14.709-10.881,24.25-28.354,24.25-48.057
	C370.249,11245.107,343.499,11218.355,310.499,11218.355 M284.763,11295.355c-7.869,0-14.25-6.381-14.25-14.25
	s6.381-14.25,14.25-14.25c7.87,0,14.25,6.381,14.25,14.25S292.633,11295.355,284.763,11295.355 M299.264,11313.355l11.235-22.764
	l11.234,22.764H299.264z M336.233,11295.355c-7.869,0-14.25-6.381-14.25-14.25s6.381-14.25,14.25-14.25
	c7.87,0,14.25,6.381,14.25,14.25S344.104,11295.355,336.233,11295.355"/>
<path fill="#FFFFFF" d="M310.499,11032.271c-32.999,0-59.75,26.752-59.75,59.75c0,19.703,9.541,37.174,24.25,48.057v31.953
	c3.009,1.191,6.1,2.221,9.25,3.109v-17.869h6v19.344c3.113,0.666,6.281,1.184,9.5,1.541v-21.385h6v21.883
	c1.574,0.076,3.156,0.117,4.75,0.117c1.592,0,3.175-0.041,4.75-0.117v-22.383h6v21.885c3.217-0.357,6.385-0.875,9.5-1.541v-20.844h6
	v19.369c3.148-0.889,6.24-1.918,9.25-3.109v-31.953c14.709-10.883,24.25-28.354,24.25-48.057
	C370.249,11059.023,343.499,11032.271,310.499,11032.271 M284.763,11109.271c-7.869,0-14.25-6.381-14.25-14.25
	s6.381-14.25,14.25-14.25c7.87,0,14.25,6.381,14.25,14.25S292.633,11109.271,284.763,11109.271 M299.264,11127.271l11.235-22.764
	l11.234,22.764H299.264z M336.233,11109.271c-7.869,0-14.25-6.381-14.25-14.25s6.381-14.25,14.25-14.25
	c7.87,0,14.25,6.381,14.25,14.25S344.104,11109.271,336.233,11109.271"/>
<path fill="#FFFFFF" d="M312.366,10842.754c-32.999,0-59.75,26.75-59.75,59.75c0,19.703,9.541,37.174,24.25,48.055v31.955
	c3.009,1.189,6.1,2.221,9.25,3.107v-17.867h6v19.344c3.113,0.664,6.281,1.184,9.5,1.539v-21.383h6v21.883
	c1.574,0.076,3.156,0.117,4.75,0.117c1.592,0,3.175-0.041,4.75-0.117v-22.383h6v21.883c3.217-0.355,6.385-0.875,9.5-1.539v-20.844h6
	v19.367c3.147-0.887,6.24-1.918,9.25-3.107v-31.955c14.709-10.881,24.25-28.352,24.25-48.055
	C372.116,10869.504,345.366,10842.754,312.366,10842.754 M286.63,10919.754c-7.869,0-14.25-6.383-14.25-14.25
	c0-7.871,6.381-14.25,14.25-14.25c7.87,0,14.25,6.379,14.25,14.25C300.88,10913.371,294.5,10919.754,286.63,10919.754
	 M301.131,10937.754l11.235-22.766l11.233,22.766H301.131z M338.1,10919.754c-7.868,0-14.25-6.383-14.25-14.25
	c0-7.871,6.382-14.25,14.25-14.25c7.871,0,14.25,6.379,14.25,14.25C352.35,10913.371,345.971,10919.754,338.1,10919.754"/>
<path fill="#FFFFFF" d="M312.366,10652.953c-32.999,0-59.75,26.752-59.75,59.75c0,19.703,9.541,37.176,24.25,48.057v31.955
	c3.009,1.189,6.1,2.219,9.25,3.107v-17.869h6v19.344c3.113,0.666,6.281,1.184,9.5,1.541v-21.385h6v21.883
	c1.574,0.078,3.156,0.117,4.75,0.117c1.592,0,3.175-0.039,4.75-0.117v-22.383h6v21.885c3.217-0.357,6.385-0.875,9.5-1.541v-20.844h6
	v19.369c3.147-0.889,6.24-1.918,9.25-3.107v-31.955c14.709-10.881,24.25-28.354,24.25-48.057
	C372.116,10679.705,345.366,10652.953,312.366,10652.953 M286.63,10729.953c-7.869,0-14.25-6.381-14.25-14.25
	s6.381-14.25,14.25-14.25c7.87,0,14.25,6.381,14.25,14.25S294.5,10729.953,286.63,10729.953 M301.131,10747.953l11.235-22.764
	l11.233,22.764H301.131z M338.1,10729.953c-7.868,0-14.25-6.381-14.25-14.25s6.382-14.25,14.25-14.25
	c7.871,0,14.25,6.381,14.25,14.25S345.971,10729.953,338.1,10729.953"/>
<path fill="#FFFFFF" d="M312.366,10466.869c-32.999,0-59.75,26.752-59.75,59.75c0,19.703,9.541,37.174,24.25,48.057v31.953
	c3.009,1.191,6.1,2.221,9.25,3.109v-17.869h6v19.344c3.113,0.666,6.281,1.184,9.5,1.541v-21.385h6v21.883
	c1.574,0.076,3.156,0.117,4.75,0.117c1.592,0,3.175-0.041,4.75-0.117v-22.383h6v21.885c3.217-0.357,6.385-0.875,9.5-1.541v-20.844h6
	v19.369c3.147-0.889,6.24-1.918,9.25-3.109v-31.953c14.709-10.883,24.25-28.354,24.25-48.057
	C372.116,10493.621,345.366,10466.869,312.366,10466.869 M286.63,10543.869c-7.869,0-14.25-6.381-14.25-14.25
	s6.381-14.25,14.25-14.25c7.87,0,14.25,6.381,14.25,14.25S294.5,10543.869,286.63,10543.869 M301.131,10561.869l11.235-22.764
	l11.233,22.764H301.131z M338.1,10543.869c-7.868,0-14.25-6.381-14.25-14.25s6.382-14.25,14.25-14.25
	c7.871,0,14.25,6.381,14.25,14.25S345.971,10543.869,338.1,10543.869"/>
<path fill="#FFFFFF" d="M310.878,10267.646c-32.999,0-59.75,26.752-59.75,59.75c0,19.703,9.541,37.174,24.25,48.057v31.953
	c3.009,1.191,6.1,2.221,9.25,3.109v-17.869h6v19.344c3.113,0.666,6.281,1.184,9.5,1.541v-21.385h6v21.883
	c1.574,0.076,3.156,0.117,4.75,0.117c1.592,0,3.175-0.041,4.75-0.117v-22.383h6.001v21.885c3.217-0.357,6.385-0.875,9.5-1.541
	v-20.844h6v19.369c3.148-0.889,6.24-1.918,9.25-3.109v-31.953c14.709-10.883,24.25-28.354,24.25-48.057
	C370.629,10294.398,343.877,10267.646,310.878,10267.646 M285.142,10344.646c-7.869,0-14.25-6.381-14.25-14.25
	s6.381-14.25,14.25-14.25c7.87,0,14.25,6.381,14.25,14.25S293.012,10344.646,285.142,10344.646 M299.643,10362.646l11.235-22.764
	l11.235,22.764H299.643z M336.614,10344.646c-7.869,0-14.25-6.381-14.25-14.25s6.381-14.25,14.25-14.25
	c7.871,0,14.25,6.381,14.25,14.25S344.485,10344.646,336.614,10344.646"/>
<path fill="#FFFFFF" d="M310.878,10077.846c-32.999,0-59.75,26.752-59.75,59.75c0,19.703,9.541,37.174,24.25,48.057v31.953
	c3.009,1.191,6.1,2.221,9.25,3.109v-17.869h6v19.344c3.113,0.666,6.281,1.184,9.5,1.541v-21.385h6v21.883
	c1.574,0.076,3.156,0.117,4.75,0.117c1.592,0,3.175-0.041,4.75-0.117v-22.383h6.001v21.885c3.217-0.357,6.385-0.875,9.5-1.541
	v-20.844h6v19.369c3.148-0.889,6.24-1.918,9.25-3.109v-31.953c14.709-10.883,24.25-28.354,24.25-48.057
	C370.629,10104.598,343.877,10077.846,310.878,10077.846 M285.142,10154.846c-7.869,0-14.25-6.381-14.25-14.25
	s6.381-14.25,14.25-14.25c7.87,0,14.25,6.381,14.25,14.25S293.012,10154.846,285.142,10154.846 M299.643,10172.846l11.235-22.764
	l11.235,22.764H299.643z M336.614,10154.846c-7.869,0-14.25-6.381-14.25-14.25s6.381-14.25,14.25-14.25
	c7.871,0,14.25,6.381,14.25,14.25S344.485,10154.846,336.614,10154.846"/>
<path fill="#FFFFFF" d="M310.878,9891.762c-32.999,0-59.75,26.752-59.75,59.75c0,19.703,9.541,37.176,24.25,48.057v31.955
	c3.009,1.189,6.1,2.219,9.25,3.107v-17.869h6v19.344c3.113,0.666,6.281,1.184,9.5,1.541v-21.385h6v21.883
	c1.574,0.078,3.156,0.117,4.75,0.117c1.592,0,3.175-0.039,4.75-0.117v-22.383h6.001v21.885c3.217-0.357,6.385-0.875,9.5-1.541
	v-20.844h6v19.369c3.148-0.889,6.24-1.918,9.25-3.107v-31.955c14.709-10.881,24.25-28.354,24.25-48.057
	C370.629,9918.514,343.877,9891.762,310.878,9891.762 M285.142,9968.762c-7.869,0-14.25-6.381-14.25-14.25s6.381-14.25,14.25-14.25
	c7.87,0,14.25,6.381,14.25,14.25S293.012,9968.762,285.142,9968.762 M299.643,9986.762l11.235-22.764l11.235,22.764H299.643z
	 M336.614,9968.762c-7.869,0-14.25-6.381-14.25-14.25s6.381-14.25,14.25-14.25c7.871,0,14.25,6.381,14.25,14.25
	S344.485,9968.762,336.614,9968.762"/>
<path fill="#FFFFFF" d="M312.746,9702.242c-32.999,0-59.75,26.754-59.75,59.75c0,19.703,9.541,37.176,24.25,48.059v31.953
	c3.009,1.191,6.1,2.219,9.25,3.109v-17.871h6v19.344c3.113,0.668,6.281,1.184,9.5,1.543v-21.387h6v21.883
	c1.574,0.078,3.156,0.117,4.75,0.117c1.592,0,3.175-0.039,4.75-0.117v-22.383h6v21.887c3.217-0.359,6.385-0.875,9.5-1.543v-20.844h6
	v19.371c3.147-0.891,6.24-1.918,9.25-3.109v-31.953c14.709-10.883,24.25-28.355,24.25-48.059
	C372.497,9728.996,345.745,9702.242,312.746,9702.242 M287.009,9779.242c-7.869,0-14.25-6.379-14.25-14.25
	c0-7.867,6.381-14.25,14.25-14.25c7.87,0,14.25,6.383,14.25,14.25C301.259,9772.863,294.879,9779.242,287.009,9779.242
	 M301.51,9797.242l11.235-22.762l11.235,22.762H301.51z M338.481,9779.242c-7.869,0-14.25-6.379-14.25-14.25
	c0-7.867,6.381-14.25,14.25-14.25c7.87,0,14.25,6.383,14.25,14.25C352.731,9772.863,346.352,9779.242,338.481,9779.242"/>
<path fill="#FFFFFF" d="M312.746,9512.443c-32.999,0-59.75,26.752-59.75,59.75c0,19.703,9.541,37.174,24.25,48.057v31.953
	c3.009,1.191,6.1,2.221,9.25,3.109v-17.869h6v19.344c3.113,0.666,6.281,1.184,9.5,1.541v-21.385h6v21.883
	c1.574,0.076,3.156,0.117,4.75,0.117c1.592,0,3.175-0.041,4.75-0.117v-22.383h6v21.885c3.217-0.357,6.385-0.875,9.5-1.541v-20.844h6
	v19.369c3.147-0.889,6.24-1.918,9.25-3.109v-31.953c14.709-10.883,24.25-28.354,24.25-48.057
	C372.497,9539.195,345.745,9512.443,312.746,9512.443 M287.009,9589.443c-7.869,0-14.25-6.381-14.25-14.25s6.381-14.25,14.25-14.25
	c7.87,0,14.25,6.381,14.25,14.25S294.879,9589.443,287.009,9589.443 M301.51,9607.443l11.235-22.764l11.235,22.764H301.51z
	 M338.481,9589.443c-7.869,0-14.25-6.381-14.25-14.25s6.381-14.25,14.25-14.25c7.87,0,14.25,6.381,14.25,14.25
	S346.352,9589.443,338.481,9589.443"/>
<path fill="#FFFFFF" d="M312.746,9326.359c-32.999,0-59.75,26.752-59.75,59.75c0,19.703,9.541,37.176,24.25,48.057v31.955
	c3.009,1.189,6.1,2.219,9.25,3.107v-17.869h6v19.344c3.113,0.666,6.281,1.184,9.5,1.541v-21.385h6v21.883
	c1.574,0.078,3.156,0.117,4.75,0.117c1.592,0,3.175-0.039,4.75-0.117v-22.383h6v21.885c3.217-0.357,6.385-0.875,9.5-1.541v-20.844h6
	v19.369c3.147-0.889,6.24-1.918,9.25-3.107v-31.955c14.709-10.881,24.25-28.354,24.25-48.057
	C372.497,9353.111,345.745,9326.359,312.746,9326.359 M287.009,9403.359c-7.869,0-14.25-6.381-14.25-14.25s6.381-14.25,14.25-14.25
	c7.87,0,14.25,6.381,14.25,14.25S294.879,9403.359,287.009,9403.359 M301.51,9421.359l11.235-22.764l11.235,22.764H301.51z
	 M338.481,9403.359c-7.869,0-14.25-6.381-14.25-14.25s6.381-14.25,14.25-14.25c7.87,0,14.25,6.381,14.25,14.25
	S346.352,9403.359,338.481,9403.359"/>
<path fill="#FFFFFF" d="M308.632,9136.559c-33,0-59.75,26.754-59.75,59.75c0,19.703,9.541,37.176,24.25,48.059v31.953
	c3.008,1.191,6.1,2.219,9.25,3.109v-17.871h6v19.344c3.113,0.668,6.281,1.184,9.5,1.543v-21.387h6v21.883
	c1.574,0.078,3.156,0.117,4.75,0.117c1.592,0,3.174-0.039,4.75-0.117v-22.383h5.999v21.887c3.217-0.359,6.385-0.875,9.5-1.543
	v-20.844h6v19.371c3.148-0.891,6.24-1.918,9.25-3.109v-31.953c14.709-10.883,24.25-28.355,24.25-48.059
	C368.381,9163.313,341.631,9136.559,308.632,9136.559 M282.896,9213.559c-7.87,0-14.25-6.379-14.25-14.25
	c0-7.867,6.381-14.25,14.25-14.25s14.25,6.383,14.25,14.25C297.146,9207.18,290.765,9213.559,282.896,9213.559 M297.396,9231.559
	l11.236-22.762l11.233,22.762H297.396z M334.365,9213.559c-7.869,0-14.25-6.379-14.25-14.25c0-7.867,6.381-14.25,14.25-14.25
	c7.871,0,14.25,6.383,14.25,14.25C348.615,9207.18,342.236,9213.559,334.365,9213.559"/>
<path fill="#FFFFFF" d="M308.632,8946.76c-33,0-59.75,26.752-59.75,59.75c0,19.703,9.541,37.174,24.25,48.057v31.953
	c3.008,1.191,6.1,2.221,9.25,3.109v-17.869h6v19.344c3.113,0.666,6.281,1.184,9.5,1.541v-21.385h6v21.883
	c1.574,0.076,3.156,0.117,4.75,0.117c1.592,0,3.174-0.041,4.75-0.117v-22.383h5.999v21.885c3.217-0.357,6.385-0.875,9.5-1.541
	v-20.844h6v19.369c3.148-0.889,6.24-1.918,9.25-3.109v-31.953c14.709-10.883,24.25-28.354,24.25-48.057
	C368.381,8973.512,341.631,8946.76,308.632,8946.76 M282.896,9023.76c-7.87,0-14.25-6.381-14.25-14.25s6.381-14.25,14.25-14.25
	s14.25,6.381,14.25,14.25S290.765,9023.76,282.896,9023.76 M297.396,9041.76l11.236-22.764l11.233,22.764H297.396z M334.365,9023.76
	c-7.869,0-14.25-6.381-14.25-14.25s6.381-14.25,14.25-14.25c7.871,0,14.25,6.381,14.25,14.25S342.236,9023.76,334.365,9023.76"/>
<path fill="#FFFFFF" d="M308.632,8760.676c-33,0-59.75,26.752-59.75,59.75c0,19.703,9.541,37.176,24.25,48.057v31.955
	c3.008,1.189,6.1,2.219,9.25,3.107v-17.869h6v19.344c3.113,0.666,6.281,1.184,9.5,1.541v-21.385h6v21.883
	c1.574,0.078,3.156,0.117,4.75,0.117c1.592,0,3.174-0.039,4.75-0.117v-22.383h5.999v21.885c3.217-0.357,6.385-0.875,9.5-1.541
	v-20.844h6v19.369c3.148-0.889,6.24-1.918,9.25-3.107v-31.955c14.709-10.881,24.25-28.354,24.25-48.057
	C368.381,8787.428,341.631,8760.676,308.632,8760.676 M282.896,8837.676c-7.87,0-14.25-6.381-14.25-14.25s6.381-14.25,14.25-14.25
	s14.25,6.381,14.25,14.25S290.765,8837.676,282.896,8837.676 M297.396,8855.676l11.236-22.764l11.233,22.764H297.396z
	 M334.365,8837.676c-7.869,0-14.25-6.381-14.25-14.25s6.381-14.25,14.25-14.25c7.871,0,14.25,6.381,14.25,14.25
	S342.236,8837.676,334.365,8837.676"/>
<path fill="#FFFFFF" d="M310.499,8571.157c-33,0-59.75,26.753-59.75,59.749c0,19.703,9.541,37.176,24.25,48.059v31.953
	c3.008,1.191,6.1,2.219,9.25,3.109v-17.871h6v19.344c3.113,0.668,6.281,1.184,9.5,1.543v-21.387h6v21.883
	c1.574,0.078,3.156,0.117,4.75,0.117c1.592,0,3.174-0.039,4.75-0.117v-22.383h5.999v21.887c3.217-0.359,6.385-0.875,9.5-1.543
	v-20.844h6v19.371c3.148-0.891,6.24-1.918,9.25-3.109v-31.953c14.709-10.883,24.25-28.355,24.25-48.059
	C370.248,8597.91,343.498,8571.157,310.499,8571.157 M284.763,8648.156c-7.869,0-14.25-6.379-14.25-14.25
	c0-7.867,6.381-14.25,14.25-14.25c7.869,0,14.25,6.383,14.25,14.25C299.013,8641.777,292.632,8648.156,284.763,8648.156
	 M299.263,8666.156l11.236-22.762l11.233,22.762H299.263z M336.232,8648.156c-7.869,0-14.25-6.379-14.25-14.25
	c0-7.867,6.381-14.25,14.25-14.25c7.87,0,14.25,6.383,14.25,14.25C350.482,8641.777,344.104,8648.156,336.232,8648.156"/>
<path fill="#FFFFFF" d="M310.499,8381.357c-33,0-59.75,26.752-59.75,59.75c0,19.703,9.541,37.175,24.25,48.057v31.954
	c3.008,1.19,6.1,2.22,9.25,3.108v-17.869h6v19.344c3.113,0.666,6.281,1.184,9.5,1.541v-21.385h6v21.883
	c1.574,0.077,3.156,0.117,4.75,0.117c1.592,0,3.174-0.04,4.75-0.117v-22.383h5.999v21.885c3.217-0.357,6.385-0.875,9.5-1.541
	v-20.844h6v19.369c3.148-0.889,6.24-1.918,9.25-3.108v-31.954c14.709-10.882,24.25-28.354,24.25-48.057
	C370.248,8408.109,343.498,8381.357,310.499,8381.357 M284.763,8458.357c-7.869,0-14.25-6.381-14.25-14.25s6.381-14.25,14.25-14.25
	c7.869,0,14.25,6.381,14.25,14.25S292.632,8458.357,284.763,8458.357 M299.263,8476.357l11.236-22.764l11.233,22.764H299.263z
	 M336.232,8458.357c-7.869,0-14.25-6.381-14.25-14.25s6.381-14.25,14.25-14.25c7.87,0,14.25,6.381,14.25,14.25
	S344.104,8458.357,336.232,8458.357"/>
<path fill="#FFFFFF" d="M310.499,8195.273c-33,0-59.75,26.752-59.75,59.75c0,19.703,9.541,37.175,24.25,48.057v31.954
	c3.008,1.19,6.1,2.22,9.25,3.108v-17.869h6v19.344c3.113,0.666,6.281,1.184,9.5,1.541v-21.385h6v21.883
	c1.574,0.077,3.156,0.117,4.75,0.117c1.592,0,3.174-0.04,4.75-0.117v-22.383h5.999v21.885c3.217-0.357,6.385-0.875,9.5-1.541
	v-20.844h6v19.369c3.148-0.889,6.24-1.918,9.25-3.108v-31.954c14.709-10.882,24.25-28.354,24.25-48.057
	C370.248,8222.025,343.498,8195.273,310.499,8195.273 M284.763,8272.273c-7.869,0-14.25-6.381-14.25-14.25s6.381-14.25,14.25-14.25
	c7.869,0,14.25,6.381,14.25,14.25S292.632,8272.273,284.763,8272.273 M299.263,8290.273l11.236-22.764l11.233,22.764H299.263z
	 M336.232,8272.273c-7.869,0-14.25-6.381-14.25-14.25s6.381-14.25,14.25-14.25c7.87,0,14.25,6.381,14.25,14.25
	S344.104,8272.273,336.232,8272.273"/>
<path fill="#FFFFFF" d="M309.011,7996.05c-32.999,0-59.75,26.752-59.75,59.75c0,19.703,9.541,37.175,24.25,48.058v31.953
	c3.009,1.19,6.1,2.221,9.25,3.108v-17.869h6v19.345c3.113,0.666,6.281,1.184,9.5,1.541v-21.385h6v21.883
	c1.574,0.078,3.156,0.117,4.75,0.117c1.592,0,3.175-0.039,4.75-0.117v-22.383h6.001v21.885c3.217-0.357,6.386-0.875,9.5-1.541
	v-20.845h6v19.369c3.148-0.89,6.24-1.918,9.25-3.108v-31.953c14.709-10.883,24.25-28.354,24.25-48.058
	C368.762,8022.802,342.01,7996.05,309.011,7996.05 M283.274,8073.05c-7.869,0-14.25-6.381-14.25-14.25s6.381-14.25,14.25-14.25
	c7.87,0,14.25,6.381,14.25,14.25S291.145,8073.05,283.274,8073.05 M297.775,8091.05l11.235-22.765l11.235,22.765H297.775z
	 M334.746,8073.05c-7.869,0-14.25-6.381-14.25-14.25s6.381-14.25,14.25-14.25c7.871,0,14.25,6.381,14.25,14.25
	S342.617,8073.05,334.746,8073.05"/>
<path fill="#FFFFFF" d="M309.011,7806.25c-32.999,0-59.75,26.752-59.75,59.75c0,19.703,9.541,37.175,24.25,48.057v31.955
	c3.009,1.189,6.1,2.22,9.25,3.107v-17.869h6v19.344c3.113,0.668,6.281,1.185,9.5,1.541v-21.385h6v21.883
	c1.574,0.078,3.156,0.117,4.75,0.117c1.592,0,3.175-0.039,4.75-0.117v-22.383h6.001v21.885c3.217-0.356,6.386-0.875,9.5-1.541
	v-20.844h6v19.369c3.148-0.889,6.24-1.918,9.25-3.107v-31.955c14.709-10.881,24.25-28.354,24.25-48.057
	C368.762,7833.003,342.01,7806.25,309.011,7806.25 M283.274,7883.25c-7.869,0-14.25-6.38-14.25-14.25
	c0-7.869,6.381-14.25,14.25-14.25c7.87,0,14.25,6.381,14.25,14.25C297.524,7876.87,291.145,7883.25,283.274,7883.25
	 M297.775,7901.25l11.235-22.764l11.235,22.764H297.775z M334.746,7883.25c-7.869,0-14.25-6.38-14.25-14.25
	c0-7.869,6.381-14.25,14.25-14.25c7.871,0,14.25,6.381,14.25,14.25C348.996,7876.87,342.617,7883.25,334.746,7883.25"/>
<path fill="#FFFFFF" d="M309.011,7620.167c-32.999,0-59.75,26.752-59.75,59.75c0,19.704,9.541,37.175,24.25,48.058v31.955
	c3.009,1.189,6.1,2.219,9.25,3.107v-17.87h6v19.345c3.113,0.666,6.281,1.183,9.5,1.541v-21.385h6v21.883
	c1.574,0.076,3.156,0.117,4.75,0.117c1.592,0,3.175-0.041,4.75-0.117v-22.383h6.001v21.885c3.217-0.357,6.386-0.875,9.5-1.541
	v-20.845h6v19.37c3.148-0.889,6.24-1.918,9.25-3.107v-31.955c14.709-10.883,24.25-28.354,24.25-48.058
	C368.762,7646.919,342.01,7620.167,309.011,7620.167 M283.274,7697.167c-7.869,0-14.25-6.38-14.25-14.25s6.381-14.25,14.25-14.25
	c7.87,0,14.25,6.38,14.25,14.25S291.145,7697.167,283.274,7697.167 M297.775,7715.167l11.235-22.763l11.235,22.763H297.775z
	 M334.746,7697.167c-7.869,0-14.25-6.38-14.25-14.25s6.381-14.25,14.25-14.25c7.871,0,14.25,6.38,14.25,14.25
	S342.617,7697.167,334.746,7697.167"/>
<path fill="#FFFFFF" d="M310.878,7430.648c-32.999,0-59.75,26.752-59.75,59.75c0,19.703,9.541,37.174,24.25,48.057v31.955
	c3.009,1.189,6.1,2.221,9.25,3.107v-17.869h6v19.344c3.113,0.666,6.281,1.184,9.5,1.542v-21.385h6v21.883
	c1.574,0.078,3.156,0.117,4.75,0.117c1.592,0,3.175-0.04,4.75-0.117v-22.383h6.001v21.885c3.217-0.358,6.385-0.875,9.5-1.542
	v-20.844h6v19.369c3.148-0.889,6.24-1.918,9.25-3.107v-31.955c14.709-10.882,24.25-28.354,24.25-48.057
	C370.629,7457.4,343.877,7430.648,310.878,7430.648 M285.142,7507.648c-7.869,0-14.25-6.381-14.25-14.25s6.381-14.25,14.25-14.25
	c7.87,0,14.25,6.381,14.25,14.25S293.012,7507.648,285.142,7507.648 M299.643,7525.648l11.235-22.764l11.235,22.764H299.643z
	 M336.613,7507.648c-7.869,0-14.25-6.381-14.25-14.25s6.381-14.25,14.25-14.25c7.871,0,14.25,6.381,14.25,14.25
	S344.484,7507.648,336.613,7507.648"/>
<path fill="#FFFFFF" d="M310.878,7240.848c-32.999,0-59.75,26.752-59.75,59.75c0,19.705,9.541,37.176,24.25,48.058v31.954
	c3.009,1.189,6.1,2.221,9.25,3.107v-17.869h6v19.345c3.113,0.666,6.281,1.185,9.5,1.541v-21.385h6v21.883
	c1.574,0.077,3.156,0.117,4.75,0.117c1.592,0,3.175-0.04,4.75-0.117v-22.383h6.001v21.885c3.217-0.356,6.385-0.875,9.5-1.541
	v-20.845h6v19.369c3.148-0.889,6.24-1.918,9.25-3.107v-31.954c14.709-10.882,24.25-28.354,24.25-48.058
	C370.629,7267.6,343.877,7240.848,310.878,7240.848 M285.142,7317.848c-7.869,0-14.25-6.381-14.25-14.25s6.381-14.25,14.25-14.25
	c7.87,0,14.25,6.381,14.25,14.25S293.012,7317.848,285.142,7317.848 M299.643,7335.848l11.235-22.764l11.235,22.764H299.643z
	 M336.613,7317.848c-7.869,0-14.25-6.381-14.25-14.25s6.381-14.25,14.25-14.25c7.871,0,14.25,6.381,14.25,14.25
	S344.484,7317.848,336.613,7317.848"/>
<path fill="#FFFFFF" d="M310.878,7054.764c-32.999,0-59.75,26.752-59.75,59.75c0,19.703,9.541,37.176,24.25,48.058v31.954
	c3.009,1.189,6.1,2.221,9.25,3.107v-17.869h6v19.345c3.113,0.666,6.281,1.185,9.5,1.541v-21.385h6v21.883
	c1.574,0.077,3.156,0.117,4.75,0.117c1.592,0,3.175-0.04,4.75-0.117v-22.383h6.001v21.885c3.217-0.356,6.385-0.875,9.5-1.541
	v-20.845h6v19.369c3.148-0.889,6.24-1.918,9.25-3.107v-31.954c14.709-10.882,24.25-28.354,24.25-48.058
	C370.629,7081.516,343.877,7054.764,310.878,7054.764 M285.142,7131.764c-7.869,0-14.25-6.381-14.25-14.25s6.381-14.25,14.25-14.25
	c7.87,0,14.25,6.381,14.25,14.25S293.012,7131.764,285.142,7131.764 M299.643,7149.764L310.878,7127l11.235,22.764H299.643z
	 M336.613,7131.764c-7.869,0-14.25-6.381-14.25-14.25s6.381-14.25,14.25-14.25c7.871,0,14.25,6.381,14.25,14.25
	S344.484,7131.764,336.613,7131.764"/>
<path fill="#FFFFFF" d="M310.878,6864.964c-33,0-59.75,26.752-59.75,59.75c0,19.704,9.541,37.175,24.25,48.058v31.955
	c3.009,1.189,6.1,2.22,9.25,3.107v-17.87h6v19.345c3.113,0.666,6.281,1.184,9.5,1.541v-21.386h6v21.883
	c1.574,0.077,3.156,0.117,4.75,0.117c1.592,0,3.174-0.04,4.75-0.117v-22.383h5.999v21.886c3.217-0.357,6.385-0.875,9.5-1.541
	v-20.845h6v19.37c3.148-0.889,6.24-1.918,9.25-3.107v-31.955c14.709-10.881,24.25-28.354,24.25-48.058
	C370.627,6891.716,343.877,6864.964,310.878,6864.964 M285.142,6941.964c-7.869,0-14.25-6.38-14.25-14.25
	c0-7.868,6.381-14.25,14.25-14.25c7.87,0,14.25,6.382,14.25,14.25C299.392,6935.584,293.011,6941.964,285.142,6941.964
	 M299.642,6959.964l11.236-22.763l11.233,22.763H299.642z M336.612,6941.964c-7.869,0-14.25-6.38-14.25-14.25
	c0-7.868,6.381-14.25,14.25-14.25c7.871,0,14.25,6.382,14.25,14.25C350.862,6935.584,344.483,6941.964,336.612,6941.964"/>
<path fill="#FFFFFF" d="M310.878,6675.165c-33,0-59.75,26.751-59.75,59.75c0,19.703,9.541,37.174,24.25,48.058v31.953
	c3.009,1.19,6.1,2.22,9.25,3.108v-17.869h6v19.345c3.113,0.664,6.281,1.184,9.5,1.539v-21.383h6v21.881
	c1.574,0.078,3.156,0.119,4.75,0.119c1.592,0,3.174-0.041,4.75-0.119v-22.381h5.999v21.883c3.217-0.355,6.385-0.875,9.5-1.539
	v-20.845h6v19.369c3.148-0.89,6.24-1.918,9.25-3.108v-31.953c14.709-10.883,24.25-28.354,24.25-48.058
	C370.627,6701.917,343.877,6675.165,310.878,6675.165 M285.142,6752.165c-7.869,0-14.25-6.381-14.25-14.25
	c0-7.87,6.381-14.25,14.25-14.25c7.87,0,14.25,6.38,14.25,14.25C299.392,6745.784,293.011,6752.165,285.142,6752.165
	 M299.642,6770.165l11.236-22.765l11.233,22.765H299.642z M336.612,6752.165c-7.869,0-14.25-6.381-14.25-14.25
	c0-7.87,6.381-14.25,14.25-14.25c7.871,0,14.25,6.38,14.25,14.25C350.862,6745.784,344.483,6752.165,336.612,6752.165"/>
<path fill="#FFFFFF" d="M310.878,6489.081c-33,0-59.75,26.751-59.75,59.75c0,19.703,9.541,37.174,24.25,48.058v31.953
	c3.009,1.19,6.1,2.22,9.25,3.108v-17.869h6v19.343c3.113,0.666,6.281,1.186,9.5,1.541v-21.384h6v21.883
	c1.574,0.077,3.156,0.117,4.75,0.117c1.592,0,3.174-0.04,4.75-0.117v-22.383h5.999v21.884c3.217-0.355,6.385-0.875,9.5-1.541
	v-20.843h6v19.369c3.148-0.89,6.24-1.918,9.25-3.108v-31.953c14.709-10.883,24.25-28.354,24.25-48.058
	C370.627,6515.833,343.877,6489.081,310.878,6489.081 M285.142,6566.081c-7.869,0-14.25-6.381-14.25-14.25s6.381-14.25,14.25-14.25
	c7.87,0,14.25,6.381,14.25,14.25S293.011,6566.081,285.142,6566.081 M299.642,6584.081l11.236-22.765l11.233,22.765H299.642z
	 M336.612,6566.081c-7.869,0-14.25-6.381-14.25-14.25s6.381-14.25,14.25-14.25c7.871,0,14.25,6.381,14.25,14.25
	S344.483,6566.081,336.612,6566.081"/>
<path fill="#FFFFFF" d="M312.746,6299.563c-33,0-59.75,26.752-59.75,59.75c0,19.703,9.541,37.176,24.25,48.058v31.953
	c3.009,1.19,6.1,2.222,9.25,3.108v-17.869h6v19.344c3.113,0.666,6.281,1.183,9.5,1.541v-21.385h6v21.883
	c1.574,0.076,3.156,0.117,4.75,0.117c1.592,0,3.174-0.041,4.75-0.117v-22.383h5.999v21.885c3.217-0.357,6.385-0.875,9.5-1.541
	v-20.844h6v19.369c3.147-0.889,6.24-1.918,9.25-3.108v-31.953c14.709-10.882,24.25-28.354,24.25-48.058
	C372.495,6326.313,345.745,6299.563,312.746,6299.563 M287.009,6376.563c-7.869,0-14.25-6.381-14.25-14.25s6.381-14.25,14.25-14.25
	c7.87,0,14.25,6.381,14.25,14.25S294.878,6376.563,287.009,6376.563 M301.509,6394.563l11.236-22.765l11.232,22.765H301.509z
	 M338.479,6376.563c-7.868,0-14.25-6.381-14.25-14.25s6.382-14.25,14.25-14.25c7.871,0,14.25,6.381,14.25,14.25
	S346.35,6376.563,338.479,6376.563"/>
<path fill="#FFFFFF" d="M312.746,6109.764c-33,0-59.75,26.752-59.75,59.75c0,19.703,9.541,37.174,24.25,48.057v31.954
	c3.009,1.19,6.1,2.22,9.25,3.108v-17.869h6v19.342c3.113,0.668,6.281,1.186,9.5,1.541v-21.383h6v21.881
	c1.574,0.078,3.156,0.119,4.75,0.119c1.592,0,3.174-0.041,4.75-0.119v-22.381h5.999v21.883c3.217-0.355,6.385-0.873,9.5-1.541
	v-20.842h6v19.369c3.147-0.889,6.24-1.918,9.25-3.108v-31.954c14.709-10.883,24.25-28.354,24.25-48.057
	C372.495,6136.516,345.745,6109.764,312.746,6109.764 M287.009,6186.764c-7.869,0-14.25-6.381-14.25-14.25s6.381-14.25,14.25-14.25
	c7.87,0,14.25,6.381,14.25,14.25C301.259,6180.381,294.878,6186.764,287.009,6186.764 M301.509,6204.764l11.236-22.765
	l11.232,22.765H301.509z M338.479,6186.764c-7.868,0-14.25-6.381-14.25-14.25s6.382-14.25,14.25-14.25
	c7.871,0,14.25,6.381,14.25,14.25C352.729,6180.381,346.35,6186.764,338.479,6186.764"/>
<path fill="#FFFFFF" d="M312.746,5923.68c-33,0-59.75,26.752-59.75,59.748c0,19.705,9.541,37.176,24.25,48.059v31.953
	c3.009,1.191,6.1,2.221,9.25,3.107v-17.867h6v19.342c3.113,0.668,6.281,1.186,9.5,1.543v-21.385h6v21.881
	c1.574,0.078,3.156,0.119,4.75,0.119c1.592,0,3.174-0.041,4.75-0.119v-22.381h5.999v21.885c3.217-0.357,6.385-0.875,9.5-1.543
	v-20.842h6v19.367c3.147-0.888,6.24-1.916,9.25-3.107v-31.953c14.709-10.883,24.25-28.354,24.25-48.059
	C372.495,5950.432,345.745,5923.68,312.746,5923.68 M287.009,6000.68c-7.869,0-14.25-6.383-14.25-14.252
	c0-7.867,6.381-14.248,14.25-14.248c7.87,0,14.25,6.381,14.25,14.248C301.259,5994.297,294.878,6000.68,287.009,6000.68
	 M301.509,6018.68l11.236-22.765l11.232,22.765H301.509z M338.479,6000.68c-7.868,0-14.25-6.383-14.25-14.252
	c0-7.867,6.382-14.248,14.25-14.248c7.871,0,14.25,6.381,14.25,14.248C352.729,5994.297,346.35,6000.68,338.479,6000.68"/>
<path fill="#FFFFFF" d="M311.257,5724.455c-32.999,0-59.75,26.752-59.75,59.75c0,19.703,9.541,37.174,24.25,48.057v31.953
	c3.009,1.191,6.1,2.222,9.25,3.109v-17.869h6v19.343c3.113,0.666,6.281,1.185,9.5,1.541v-21.384h6v21.883
	c1.574,0.077,3.156,0.117,4.75,0.117c1.592,0,3.175-0.041,4.75-0.117v-22.383h6.001v21.884c3.217-0.356,6.385-0.875,9.5-1.541
	v-20.843h6v19.369c3.148-0.889,6.24-1.918,9.25-3.109v-31.953c14.709-10.881,24.25-28.354,24.25-48.057
	C371.008,5751.207,344.256,5724.455,311.257,5724.455 M285.521,5801.455c-7.869,0-14.25-6.381-14.25-14.25
	c0-7.87,6.381-14.25,14.25-14.25c7.87,0,14.25,6.381,14.25,14.25S293.391,5801.455,285.521,5801.455 M300.022,5819.455
	l11.235-22.764l11.235,22.764H300.022z M336.993,5801.455c-7.869,0-14.25-6.381-14.25-14.25c0-7.87,6.381-14.25,14.25-14.25
	c7.871,0,14.25,6.381,14.25,14.25S344.864,5801.455,336.993,5801.455"/>
<path fill="#FFFFFF" d="M311.257,5534.654c-32.999,0-59.75,26.752-59.75,59.75c0,19.703,9.541,37.176,24.25,48.058v31.954
	c3.009,1.189,6.1,2.221,9.25,3.109v-17.869h6v19.342c3.113,0.668,6.281,1.185,9.5,1.541v-21.383h6v21.881
	c1.574,0.078,3.156,0.119,4.75,0.119c1.592,0,3.175-0.041,4.75-0.119v-22.381h6.001v21.883c3.217-0.356,6.385-0.875,9.5-1.541
	v-20.842h6v19.369c3.148-0.89,6.24-1.918,9.25-3.109v-31.954c14.709-10.881,24.25-28.354,24.25-48.058
	C371.008,5561.407,344.256,5534.654,311.257,5534.654 M285.521,5611.654c-7.869,0-14.25-6.381-14.25-14.25s6.381-14.25,14.25-14.25
	c7.87,0,14.25,6.381,14.25,14.25S293.391,5611.654,285.521,5611.654 M300.022,5629.654l11.235-22.764l11.235,22.764H300.022z
	 M336.993,5611.654c-7.869,0-14.25-6.381-14.25-14.25s6.381-14.25,14.25-14.25c7.871,0,14.25,6.381,14.25,14.25
	S344.864,5611.654,336.993,5611.654"/>
<path fill="#FFFFFF" d="M311.257,5348.57c-32.999,0-59.75,26.752-59.75,59.75c0,19.705,9.541,37.176,24.25,48.058v31.954
	c3.009,1.191,6.1,2.221,9.25,3.109v-17.871h6v19.345c3.113,0.667,6.281,1.185,9.5,1.541v-21.385h6v21.883
	c1.574,0.077,3.156,0.117,4.75,0.117c1.592,0,3.175-0.04,4.75-0.117v-22.383h6.001v21.885c3.217-0.356,6.385-0.875,9.5-1.541
	v-20.845h6v19.371c3.148-0.889,6.24-1.918,9.25-3.109v-31.954c14.709-10.882,24.25-28.354,24.25-48.058
	C371.008,5375.323,344.256,5348.57,311.257,5348.57 M285.521,5425.57c-7.869,0-14.25-6.381-14.25-14.25s6.381-14.25,14.25-14.25
	c7.87,0,14.25,6.381,14.25,14.25S293.391,5425.57,285.521,5425.57 M300.022,5443.57l11.235-22.763l11.235,22.763H300.022z
	 M336.993,5425.57c-7.869,0-14.25-6.381-14.25-14.25s6.381-14.25,14.25-14.25c7.871,0,14.25,6.381,14.25,14.25
	S344.864,5425.57,336.993,5425.57"/>
<path fill="#FFFFFF" d="M313.125,5159.052c-32.999,0-59.75,26.752-59.75,59.75c0,19.702,9.541,37.175,24.25,48.056v31.955
	c3.009,1.189,6.1,2.22,9.25,3.108v-17.87h6v19.344c3.113,0.666,6.281,1.186,9.5,1.541v-21.385h6v21.883
	c1.574,0.078,3.156,0.117,4.75,0.117c1.592,0,3.175-0.039,4.75-0.117v-22.383h6.001v21.885c3.217-0.355,6.385-0.875,9.5-1.541
	v-20.844h6v19.37c3.148-0.89,6.24-1.918,9.25-3.108v-31.955c14.709-10.881,24.25-28.354,24.25-48.056
	C372.875,5185.805,346.124,5159.052,313.125,5159.052 M287.388,5236.052c-7.869,0-14.25-6.381-14.25-14.25
	c0-7.87,6.381-14.25,14.25-14.25c7.87,0,14.25,6.381,14.25,14.25S295.258,5236.052,287.388,5236.052 M301.889,5254.052
	l11.235-22.763l11.235,22.763H301.889z M338.86,5236.052c-7.869,0-14.25-6.381-14.25-14.25c0-7.87,6.381-14.25,14.25-14.25
	c7.871,0,14.25,6.381,14.25,14.25S346.731,5236.052,338.86,5236.052"/>
<path fill="#FFFFFF" d="M313.125,4969.253c-32.999,0-59.75,26.752-59.75,59.75c0,19.704,9.541,37.175,24.25,48.058v31.955
	c3.009,1.188,6.1,2.217,9.25,3.106v-17.869h6v19.343c3.113,0.667,6.281,1.184,9.5,1.542v-21.385h6v21.882
	c1.574,0.079,3.156,0.118,4.75,0.118c1.592,0,3.175-0.039,4.75-0.118v-22.382h6.001v21.885c3.217-0.356,6.385-0.875,9.5-1.542
	v-20.843h6v19.369c3.148-0.89,6.24-1.918,9.25-3.106v-31.955c14.709-10.883,24.25-28.354,24.25-48.058
	C372.875,4996.005,346.124,4969.253,313.125,4969.253 M287.388,5046.253c-7.869,0-14.25-6.38-14.25-14.25
	c0-7.869,6.381-14.25,14.25-14.25c7.87,0,14.25,6.38,14.25,14.25S295.258,5046.253,287.388,5046.253 M301.889,5064.253
	l11.235-22.765l11.235,22.765H301.889z M338.86,5046.253c-7.869,0-14.25-6.38-14.25-14.25c0-7.869,6.381-14.25,14.25-14.25
	c7.871,0,14.25,6.38,14.25,14.25S346.731,5046.253,338.86,5046.253"/>
<path fill="#FFFFFF" d="M313.125,4783.169c-32.999,0-59.75,26.753-59.75,59.75c0,19.704,9.541,37.175,24.25,48.058v31.955
	c3.009,1.189,6.1,2.219,9.25,3.107v-17.869h6v19.343c3.113,0.667,6.281,1.185,9.5,1.542v-21.385h6v21.883
	c1.574,0.077,3.156,0.117,4.75,0.117c1.592,0,3.175-0.04,4.75-0.117v-22.383h6.001v21.885c3.217-0.357,6.385-0.875,9.5-1.542
	v-20.843h6v19.369c3.148-0.889,6.24-1.918,9.25-3.107v-31.955c14.709-10.881,24.25-28.354,24.25-48.058
	C372.875,4809.922,346.124,4783.169,313.125,4783.169 M287.388,4860.169c-7.869,0-14.25-6.38-14.25-14.25
	c0-7.869,6.381-14.25,14.25-14.25c7.87,0,14.25,6.38,14.25,14.25S295.258,4860.169,287.388,4860.169 M301.889,4878.169
	l11.235-22.765l11.235,22.765H301.889z M338.86,4860.169c-7.869,0-14.25-6.38-14.25-14.25c0-7.869,6.381-14.25,14.25-14.25
	c7.871,0,14.25,6.38,14.25,14.25S346.731,4860.169,338.86,4860.169"/>
<path fill="#FFFFFF" d="M309.124,4593.369c-32.999,0-59.75,26.752-59.75,59.75c0,19.703,9.541,37.175,24.25,48.057v31.955
	c3.009,1.188,6.099,2.219,9.25,3.107v-17.869h6v19.346c3.113,0.664,6.281,1.183,9.5,1.539v-21.385h6v21.883
	c1.574,0.078,3.156,0.117,4.75,0.117c1.592,0,3.176-0.039,4.75-0.117v-22.383h6v21.885c3.217-0.356,6.385-0.875,9.5-1.539v-20.846h6
	v19.369c3.148-0.889,6.24-1.919,9.25-3.107v-31.955c14.709-10.881,24.25-28.354,24.25-48.057
	C368.874,4620.121,342.124,4593.369,309.124,4593.369 M283.388,4670.369c-7.869,0-14.25-6.381-14.25-14.25s6.381-14.25,14.25-14.25
	c7.871,0,14.25,6.381,14.25,14.25S291.259,4670.369,283.388,4670.369 M297.89,4688.369l11.234-22.764l11.234,22.764H297.89z
	 M334.858,4670.369c-7.869,0-14.25-6.381-14.25-14.25s6.381-14.25,14.25-14.25c7.87,0,14.25,6.381,14.25,14.25
	S342.729,4670.369,334.858,4670.369"/>
<path fill="#FFFFFF" d="M309.124,4407.285c-32.999,0-59.75,26.752-59.75,59.75c0,19.703,9.541,37.175,24.25,48.057v31.955
	c3.009,1.188,6.099,2.219,9.25,3.106v-17.868h6v19.346c3.113,0.664,6.281,1.183,9.5,1.539v-21.385h6v21.883
	c1.574,0.078,3.156,0.117,4.75,0.117c1.592,0,3.176-0.039,4.75-0.117v-22.383h6v21.885c3.217-0.356,6.385-0.875,9.5-1.539v-20.846h6
	v19.368c3.148-0.888,6.24-1.918,9.25-3.106v-31.955c14.709-10.881,24.25-28.354,24.25-48.057
	C368.874,4434.037,342.124,4407.285,309.124,4407.285 M283.388,4484.285c-7.869,0-14.25-6.382-14.25-14.25
	c0-7.869,6.381-14.25,14.25-14.25c7.871,0,14.25,6.381,14.25,14.25C297.638,4477.902,291.259,4484.285,283.388,4484.285
	 M297.89,4502.285l11.234-22.766l11.234,22.766H297.89z M334.858,4484.285c-7.869,0-14.25-6.382-14.25-14.25
	c0-7.869,6.381-14.25,14.25-14.25c7.87,0,14.25,6.381,14.25,14.25C349.108,4477.902,342.729,4484.285,334.858,4484.285"/>
<path fill="#FFFFFF" d="M310.991,4217.768c-32.998,0-59.75,26.752-59.75,59.75c0,19.701,9.541,37.174,24.25,48.056v31.953
	c3.009,1.19,6.099,2.22,9.25,3.108v-17.869h6v19.342c3.113,0.668,6.281,1.186,9.5,1.543v-21.385h6v21.881
	c1.574,0.078,3.156,0.117,4.75,0.117c1.592,0,3.176-0.039,4.75-0.117v-22.381h6v21.885c3.217-0.357,6.385-0.875,9.5-1.543v-20.842h6
	v19.369c3.147-0.889,6.24-1.916,9.25-3.108v-31.953c14.709-10.882,24.25-28.354,24.25-48.056
	C370.741,4244.52,343.991,4217.768,310.991,4217.768 M285.255,4294.768c-7.869,0-14.25-6.381-14.25-14.25
	c0-7.871,6.38-14.25,14.25-14.25c7.871,0,14.25,6.379,14.25,14.25C299.505,4288.387,293.126,4294.768,285.255,4294.768
	 M299.757,4312.768l11.234-22.765l11.233,22.765H299.757z M336.726,4294.768c-7.868,0-14.25-6.381-14.25-14.25
	c0-7.871,6.382-14.25,14.25-14.25c7.871,0,14.25,6.379,14.25,14.25C350.976,4288.387,344.597,4294.768,336.726,4294.768"/>
<path fill="#FFFFFF" d="M310.991,4027.966c-32.998,0-59.75,26.753-59.75,59.75c0,19.703,9.541,37.177,24.25,48.058v31.955
	c3.009,1.189,6.099,2.219,9.25,3.107v-17.87h6v19.345c3.113,0.668,6.281,1.184,9.5,1.541v-21.386h6v21.883
	c1.574,0.078,3.156,0.117,4.75,0.117c1.592,0,3.176-0.039,4.75-0.117v-22.383h6v21.886c3.217-0.357,6.385-0.875,9.5-1.541v-20.845h6
	v19.37c3.147-0.889,6.24-1.917,9.25-3.107v-31.955c14.709-10.881,24.25-28.354,24.25-48.058
	C370.741,4054.719,343.991,4027.966,310.991,4027.966 M285.255,4104.966c-7.869,0-14.25-6.38-14.25-14.25
	c0-7.869,6.38-14.25,14.25-14.25c7.871,0,14.25,6.382,14.25,14.25C299.505,4098.586,293.126,4104.966,285.255,4104.966
	 M299.757,4122.966l11.234-22.763l11.233,22.763H299.757z M336.726,4104.966c-7.868,0-14.25-6.38-14.25-14.25
	c0-7.869,6.382-14.25,14.25-14.25c7.871,0,14.25,6.382,14.25,14.25C350.976,4098.586,344.597,4104.966,336.726,4104.966"/>
<path fill="#FFFFFF" d="M310.991,3841.882c-32.998,0-59.75,26.752-59.75,59.75c0,19.702,9.541,37.175,24.25,48.056v31.955
	c3.009,1.189,6.099,2.219,9.25,3.107v-17.869h6v19.346c3.113,0.666,6.281,1.184,9.5,1.539v-21.385h6v21.883
	c1.574,0.077,3.156,0.117,4.75,0.117c1.592,0,3.176-0.04,4.75-0.117v-22.383h6v21.885c3.217-0.355,6.385-0.873,9.5-1.539v-20.846h6
	v19.369c3.147-0.889,6.24-1.918,9.25-3.107v-31.955c14.709-10.882,24.25-28.354,24.25-48.056
	C370.741,3868.634,343.991,3841.882,310.991,3841.882 M285.255,3918.882c-7.869,0-14.25-6.381-14.25-14.25
	c0-7.868,6.38-14.25,14.25-14.25c7.871,0,14.25,6.382,14.25,14.25S293.126,3918.882,285.255,3918.882 M299.757,3936.882
	l11.234-22.763l11.233,22.763H299.757z M336.726,3918.882c-7.868,0-14.25-6.381-14.25-14.25c0-7.868,6.382-14.25,14.25-14.25
	c7.871,0,14.25,6.382,14.25,14.25S344.597,3918.882,336.726,3918.882"/>
<path fill="#FFFFFF" d="M309.504,3642.659c-32.999,0-59.75,26.752-59.75,59.75c0,19.702,9.541,37.174,24.25,48.057v31.954
	c3.009,1.189,6.1,2.22,9.25,3.107v-17.867h6v19.343c3.113,0.667,6.281,1.185,9.5,1.541v-21.384h6v21.882
	c1.574,0.078,3.156,0.118,4.75,0.118c1.592,0,3.175-0.04,4.75-0.118v-22.382h6.001v21.884c3.217-0.356,6.385-0.874,9.5-1.541
	v-20.843h6v19.367c3.148-0.888,6.24-1.918,9.25-3.107v-31.954c14.709-10.882,24.25-28.354,24.25-48.057
	C369.255,3669.411,342.503,3642.659,309.504,3642.659 M283.768,3719.659c-7.869,0-14.25-6.382-14.25-14.25s6.381-14.25,14.25-14.25
	c7.87,0,14.25,6.381,14.25,14.25C298.018,3713.277,291.638,3719.659,283.768,3719.659 M298.269,3737.659l11.235-22.765
	l11.235,22.765H298.269z M335.239,3719.659c-7.869,0-14.25-6.382-14.25-14.25s6.381-14.25,14.25-14.25
	c7.871,0,14.25,6.381,14.25,14.25C349.489,3713.277,343.11,3719.659,335.239,3719.659"/>
<path fill="#FFFFFF" d="M309.504,3452.859c-32.999,0-59.75,26.75-59.75,59.75c0,19.702,9.541,37.175,24.25,48.056v31.956
	c3.009,1.189,6.1,2.219,9.25,3.106v-17.868h6v19.343c3.113,0.666,6.281,1.184,9.5,1.542v-21.385h6v21.884
	c1.574,0.075,3.156,0.116,4.75,0.116c1.592,0,3.175-0.041,4.75-0.116v-22.384h6.001v21.885c3.217-0.358,6.385-0.876,9.5-1.542
	v-20.843h6v19.368c3.148-0.889,6.24-1.917,9.25-3.106v-31.956c14.709-10.88,24.25-28.354,24.25-48.056
	C369.255,3479.61,342.503,3452.859,309.504,3452.859 M283.768,3529.859c-7.869,0-14.25-6.381-14.25-14.25
	c0-7.871,6.381-14.25,14.25-14.25c7.87,0,14.25,6.379,14.25,14.25C298.018,3523.479,291.638,3529.859,283.768,3529.859
	 M298.269,3547.859l11.235-22.765l11.235,22.765H298.269z M335.239,3529.859c-7.869,0-14.25-6.381-14.25-14.25
	c0-7.871,6.381-14.25,14.25-14.25c7.871,0,14.25,6.379,14.25,14.25C349.489,3523.479,343.11,3529.859,335.239,3529.859"/>
<path fill="#FFFFFF" d="M309.504,3266.775c-32.999,0-59.75,26.75-59.75,59.75c0,19.701,9.541,37.174,24.25,48.056v31.955
	c3.009,1.189,6.1,2.219,9.25,3.106v-17.867h6v19.343c3.113,0.666,6.281,1.183,9.5,1.542v-21.385h6v21.883
	c1.574,0.076,3.156,0.117,4.75,0.117c1.592,0,3.175-0.041,4.75-0.117v-22.383h6.001v21.885c3.217-0.358,6.385-0.876,9.5-1.542
	v-20.843h6v19.367c3.148-0.889,6.24-1.917,9.25-3.106v-31.955c14.709-10.882,24.25-28.354,24.25-48.056
	C369.255,3293.525,342.503,3266.775,309.504,3266.775 M283.768,3343.775c-7.869,0-14.25-6.382-14.25-14.25
	c0-7.871,6.381-14.25,14.25-14.25c7.87,0,14.25,6.379,14.25,14.25C298.018,3337.395,291.638,3343.775,283.768,3343.775
	 M298.269,3361.775l11.235-22.766l11.235,22.766H298.269z M335.239,3343.775c-7.869,0-14.25-6.382-14.25-14.25
	c0-7.871,6.381-14.25,14.25-14.25c7.871,0,14.25,6.379,14.25,14.25C349.489,3337.395,343.11,3343.775,335.239,3343.775"/>
<path fill="#FFFFFF" d="M311.371,3077.256c-32.999,0-59.75,26.752-59.75,59.75c0,19.703,9.541,37.178,24.25,48.057v31.957
	c3.009,1.189,6.1,2.218,9.25,3.105v-17.868h6v19.343c3.113,0.668,6.281,1.186,9.5,1.543v-21.387h6v21.883
	c1.574,0.077,3.156,0.117,4.75,0.117c1.592,0,3.175-0.04,4.751-0.117v-22.383h6v21.887c3.217-0.358,6.385-0.875,9.5-1.543v-20.843h6
	v19.368c3.147-0.888,6.24-1.916,9.25-3.105v-31.957c14.709-10.879,24.25-28.354,24.25-48.057
	C371.122,3104.008,344.37,3077.256,311.371,3077.256 M285.635,3154.256c-7.869,0-14.25-6.379-14.25-14.25
	c0-7.867,6.381-14.25,14.25-14.25c7.87,0,14.25,6.381,14.25,14.25C299.885,3147.877,293.505,3154.256,285.635,3154.256
	 M300.136,3172.256l11.235-22.764l11.234,22.764H300.136z M337.106,3154.256c-7.869,0-14.25-6.379-14.25-14.25
	c0-7.867,6.381-14.25,14.25-14.25c7.87,0,14.25,6.381,14.25,14.25C351.356,3147.877,344.978,3154.256,337.106,3154.256"/>
<path fill="#FFFFFF" d="M311.371,2887.457c-32.999,0-59.75,26.752-59.75,59.75c0,19.703,9.541,37.175,24.25,48.056v31.955
	c3.009,1.19,6.1,2.22,9.25,3.108v-17.869h6v19.344c3.113,0.666,6.281,1.184,9.5,1.542v-21.385h6v21.883
	c1.574,0.077,3.156,0.117,4.75,0.117c1.592,0,3.175-0.04,4.751-0.117v-22.383h6v21.885c3.217-0.357,6.385-0.876,9.5-1.542v-20.844h6
	v19.369c3.147-0.889,6.24-1.917,9.25-3.108v-31.955c14.709-10.881,24.25-28.353,24.25-48.056
	C371.122,2914.208,344.37,2887.457,311.371,2887.457 M285.635,2964.457c-7.869,0-14.25-6.38-14.25-14.25s6.381-14.25,14.25-14.25
	c7.87,0,14.25,6.38,14.25,14.25S293.505,2964.457,285.635,2964.457 M300.136,2982.457l11.235-22.764l11.234,22.764H300.136z
	 M337.106,2964.457c-7.869,0-14.25-6.38-14.25-14.25s6.381-14.25,14.25-14.25c7.87,0,14.25,6.38,14.25,14.25
	S344.978,2964.457,337.106,2964.457"/>
<path fill="#FFFFFF" d="M311.371,2701.372c-32.999,0-59.75,26.752-59.75,59.75c0,19.703,9.541,37.174,24.25,48.056v31.955
	c3.009,1.19,6.1,2.221,9.25,3.107v-17.869h6v19.344c3.113,0.666,6.281,1.184,9.5,1.542v-21.386h6v21.883
	c1.574,0.077,3.156,0.117,4.75,0.117c1.592,0,3.175-0.04,4.751-0.117v-22.383h6v21.886c3.217-0.357,6.385-0.876,9.5-1.542v-20.844h6
	v19.369c3.147-0.889,6.24-1.917,9.25-3.107v-31.955c14.709-10.882,24.25-28.354,24.25-48.056
	C371.122,2728.125,344.37,2701.372,311.371,2701.372 M285.635,2778.372c-7.869,0-14.25-6.38-14.25-14.25s6.381-14.25,14.25-14.25
	c7.87,0,14.25,6.381,14.25,14.25S293.505,2778.372,285.635,2778.372 M300.136,2796.372l11.235-22.763l11.234,22.763H300.136z
	 M337.106,2778.372c-7.869,0-14.25-6.38-14.25-14.25s6.381-14.25,14.25-14.25c7.87,0,14.25,6.381,14.25,14.25
	S344.978,2778.372,337.106,2778.372"/>
<path fill="#FFFFFF" d="M310.499,2510.952c-32.998,0-59.75,26.752-59.75,59.75c0,19.702,9.541,37.175,24.25,48.056v31.955
	c3.01,1.189,6.1,2.219,9.25,3.107v-17.868h6v19.345c3.113,0.664,6.281,1.182,9.5,1.54v-21.385h6v21.881
	c1.574,0.079,3.156,0.119,4.75,0.119c1.592,0,3.176-0.04,4.75-0.119v-22.381h6v21.885c3.217-0.358,6.385-0.876,9.5-1.54v-20.845h6
	v19.368c3.148-0.889,6.24-1.918,9.25-3.107v-31.955c14.709-10.881,24.25-28.354,24.25-48.056
	C370.249,2537.704,343.499,2510.952,310.499,2510.952 M284.762,2587.952c-7.869,0-14.25-6.382-14.25-14.25
	c0-7.869,6.381-14.25,14.25-14.25c7.871,0,14.25,6.38,14.25,14.25C299.012,2581.57,292.633,2587.952,284.762,2587.952
	 M299.264,2605.952l11.234-22.765l11.234,22.765H299.264z M336.233,2587.952c-7.869,0-14.25-6.382-14.25-14.25
	c0-7.869,6.381-14.25,14.25-14.25c7.87,0,14.25,6.38,14.25,14.25C350.483,2581.57,344.104,2587.952,336.233,2587.952"/>
<path fill="#FFFFFF" d="M310.499,2321.15c-32.998,0-59.75,26.752-59.75,59.75c0,19.703,9.541,37.175,24.25,48.057v31.955
	c3.01,1.189,6.1,2.22,9.25,3.108v-17.87h6v19.346c3.113,0.664,6.281,1.183,9.5,1.539v-21.385h6v21.885
	c1.574,0.075,3.156,0.115,4.75,0.115c1.592,0,3.176-0.04,4.75-0.115v-22.385h6v21.885c3.217-0.356,6.385-0.875,9.5-1.539v-20.846h6
	v19.37c3.148-0.889,6.24-1.918,9.25-3.108v-31.955c14.709-10.881,24.25-28.354,24.25-48.057
	C370.249,2347.903,343.499,2321.15,310.499,2321.15 M284.762,2398.15c-7.869,0-14.25-6.381-14.25-14.25s6.381-14.25,14.25-14.25
	c7.871,0,14.25,6.382,14.25,14.25C299.012,2391.771,292.633,2398.15,284.762,2398.15 M299.264,2416.15l11.234-22.762l11.234,22.762
	H299.264z M336.233,2398.15c-7.869,0-14.25-6.381-14.25-14.25s6.381-14.25,14.25-14.25c7.87,0,14.25,6.382,14.25,14.25
	C350.483,2391.771,344.104,2398.15,336.233,2398.15"/>
<path fill="#FFFFFF" d="M310.499,2135.066c-32.998,0-59.75,26.752-59.75,59.75c0,19.705,9.541,37.175,24.25,48.057v31.955
	c3.01,1.189,6.1,2.22,9.25,3.108v-17.87h6v19.346c3.113,0.664,6.281,1.183,9.5,1.539v-21.385h6v21.885
	c1.574,0.075,3.156,0.115,4.75,0.115c1.592,0,3.176-0.04,4.75-0.115v-22.385h6v21.885c3.217-0.356,6.385-0.875,9.5-1.539v-20.846h6
	v19.37c3.148-0.889,6.24-1.919,9.25-3.108v-31.955c14.709-10.881,24.25-28.353,24.25-48.057
	C370.249,2161.818,343.499,2135.066,310.499,2135.066 M284.762,2212.066c-7.869,0-14.25-6.381-14.25-14.25s6.381-14.25,14.25-14.25
	c7.871,0,14.25,6.382,14.25,14.25C299.012,2205.688,292.633,2212.066,284.762,2212.066 M299.264,2230.066l11.234-22.763
	l11.234,22.763H299.264z M336.233,2212.066c-7.869,0-14.25-6.381-14.25-14.25s6.381-14.25,14.25-14.25
	c7.87,0,14.25,6.382,14.25,14.25C350.483,2205.688,344.104,2212.066,336.233,2212.066"/>
<path fill="#FFFFFF" d="M312.366,1945.55c-32.998,0-59.75,26.752-59.75,59.749c0,19.703,9.541,37.176,24.25,48.057v31.955
	c3.01,1.19,6.1,2.22,9.25,3.107v-17.868h6v19.343c3.113,0.666,6.281,1.184,9.5,1.541v-21.385h6v21.883
	c1.574,0.077,3.156,0.117,4.75,0.117c1.592,0,3.176-0.04,4.75-0.117v-22.383h6v21.885c3.217-0.357,6.385-0.875,9.5-1.541v-20.843h6
	v19.368c3.147-0.888,6.24-1.917,9.25-3.107v-31.955c14.709-10.881,24.25-28.354,24.25-48.057
	C372.116,1972.302,345.366,1945.55,312.366,1945.55 M286.629,2022.55c-7.869,0-14.25-6.381-14.25-14.251
	c0-7.869,6.381-14.249,14.25-14.249c7.871,0,14.25,6.38,14.25,14.249C300.879,2016.169,294.5,2022.55,286.629,2022.55
	 M301.131,2040.55l11.234-22.765l11.233,22.765H301.131z M338.1,2022.55c-7.868,0-14.25-6.381-14.25-14.251
	c0-7.869,6.382-14.249,14.25-14.249c7.871,0,14.25,6.38,14.25,14.249C352.35,2016.169,345.971,2022.55,338.1,2022.55"/>
<path fill="#FFFFFF" d="M312.366,1755.749c-32.998,0-59.75,26.752-59.75,59.752c0,19.704,9.541,37.173,24.25,48.056v31.954
	c3.01,1.19,6.1,2.222,9.25,3.11v-17.872h6v19.345c3.113,0.666,6.281,1.184,9.5,1.54v-21.385h6v21.884
	c1.574,0.078,3.156,0.116,4.75,0.116c1.592,0,3.176-0.039,4.75-0.116v-22.384h6v21.885c3.217-0.356,6.385-0.875,9.5-1.54v-20.845h6
	v19.372c3.147-0.891,6.24-1.92,9.25-3.11v-31.954c14.709-10.882,24.25-28.352,24.25-48.056
	C372.116,1782.5,345.366,1755.749,312.366,1755.749 M286.629,1832.749c-7.869,0-14.25-6.38-14.25-14.248
	c0-7.871,6.381-14.252,14.25-14.252c7.871,0,14.25,6.381,14.25,14.252C300.879,1826.368,294.5,1832.749,286.629,1832.749
	 M301.131,1850.749l11.234-22.763l11.233,22.763H301.131z M338.1,1832.749c-7.868,0-14.25-6.38-14.25-14.248
	c0-7.871,6.382-14.252,14.25-14.252c7.871,0,14.25,6.381,14.25,14.252C352.35,1826.368,345.971,1832.749,338.1,1832.749"/>
<path fill="#FFFFFF" d="M312.366,1569.665c-32.998,0-59.75,26.752-59.75,59.751c0,19.702,9.541,37.174,24.25,48.057v31.953
	c3.01,1.19,6.1,2.221,9.25,3.109v-17.87h6v19.344c3.113,0.666,6.281,1.186,9.5,1.541v-21.385h6v21.883
	c1.574,0.077,3.156,0.117,4.75,0.117c1.592,0,3.176-0.04,4.75-0.117v-22.383h6v21.885c3.217-0.355,6.385-0.875,9.5-1.541v-20.844h6
	v19.37c3.147-0.891,6.24-1.919,9.25-3.109v-31.953c14.709-10.883,24.25-28.354,24.25-48.057
	C372.116,1596.417,345.366,1569.665,312.366,1569.665 M286.629,1646.665c-7.869,0-14.25-6.381-14.25-14.249
	c0-7.87,6.381-14.251,14.25-14.251c7.871,0,14.25,6.381,14.25,14.251C300.879,1640.284,294.5,1646.665,286.629,1646.665
	 M301.131,1664.665l11.234-22.764l11.233,22.764H301.131z M338.1,1646.665c-7.868,0-14.25-6.381-14.25-14.249
	c0-7.87,6.382-14.251,14.25-14.251c7.871,0,14.25,6.381,14.25,14.251C352.35,1640.284,345.971,1646.665,338.1,1646.665"/>
<path fill="#FFFFFF" d="M310.878,1370.442c-32.999,0-59.75,26.751-59.75,59.749c0,19.703,9.541,37.176,24.25,48.057v31.955
	c3.009,1.189,6.1,2.219,9.25,3.107v-17.868h6v19.343c3.113,0.666,6.281,1.184,9.5,1.541v-21.384h6v21.882
	c1.574,0.077,3.156,0.118,4.75,0.118c1.592,0,3.175-0.041,4.75-0.118v-22.382h6.001v21.884c3.217-0.357,6.385-0.875,9.5-1.541
	v-20.843h6v19.368c3.148-0.89,6.24-1.918,9.25-3.107v-31.955c14.709-10.881,24.25-28.354,24.25-48.057
	C370.629,1397.193,343.877,1370.442,310.878,1370.442 M285.142,1447.442c-7.869,0-14.25-6.382-14.25-14.251
	s6.381-14.249,14.25-14.249c7.87,0,14.25,6.38,14.25,14.249S293.012,1447.442,285.142,1447.442 M299.643,1465.442l11.235-22.766
	l11.235,22.766H299.643z M336.614,1447.442c-7.869,0-14.25-6.382-14.25-14.251s6.381-14.249,14.25-14.249
	c7.871,0,14.25,6.38,14.25,14.249S344.485,1447.442,336.614,1447.442"/>
<path fill="#FFFFFF" d="M309.755,1173.642c-32.999,0-59.75,26.752-59.75,59.75c0,19.703,9.541,37.176,24.25,48.058v31.954
	c3.009,1.189,6.1,2.221,9.25,3.107v-17.869h6v19.345c3.113,0.666,6.281,1.184,9.5,1.541v-21.386h6v21.885
	c1.574,0.075,3.156,0.115,4.75,0.115c1.592,0,3.175-0.04,4.75-0.115v-22.385h6.001v21.886c3.217-0.357,6.385-0.875,9.5-1.541
	v-20.845h6v19.369c3.148-0.888,6.24-1.918,9.25-3.107v-31.954c14.709-10.882,24.25-28.354,24.25-48.058
	C369.506,1200.395,342.754,1173.642,309.755,1173.642 M284.019,1250.642c-7.869,0-14.25-6.381-14.25-14.25
	c0-7.868,6.381-14.25,14.25-14.25c7.87,0,14.25,6.382,14.25,14.25C298.269,1244.261,291.889,1250.642,284.019,1250.642
	 M298.52,1268.642l11.235-22.764l11.235,22.764H298.52z M335.49,1250.642c-7.869,0-14.25-6.381-14.25-14.25
	c0-7.868,6.381-14.25,14.25-14.25c7.871,0,14.25,6.382,14.25,14.25C349.74,1244.261,343.361,1250.642,335.49,1250.642"/>
<path fill="#FFFFFF" d="M310.878,976.558c-32.999,0-59.75,26.752-59.75,59.751c0,19.702,9.541,37.174,24.25,48.057v31.954
	c3.009,1.189,6.1,2.222,9.25,3.107v-17.869h6v19.345c3.113,0.666,6.281,1.184,9.5,1.541v-21.386h6v21.884
	c1.574,0.076,3.156,0.116,4.75,0.116c1.592,0,3.175-0.04,4.75-0.116v-22.384h6.001v21.886c3.217-0.357,6.385-0.875,9.5-1.541
	v-20.845h6v19.369c3.148-0.887,6.24-1.918,9.25-3.107v-31.954c14.709-10.882,24.25-28.354,24.25-48.057
	C370.629,1003.31,343.877,976.558,310.878,976.558 M285.142,1053.558c-7.869,0-14.25-6.381-14.25-14.249
	c0-7.869,6.381-14.251,14.25-14.251c7.87,0,14.25,6.382,14.25,14.251C299.392,1047.177,293.012,1053.558,285.142,1053.558
	 M299.643,1071.558l11.235-22.764l11.235,22.764H299.643z M336.614,1053.558c-7.869,0-14.25-6.381-14.25-14.249
	c0-7.869,6.381-14.251,14.25-14.251c7.871,0,14.25,6.382,14.25,14.251C350.864,1047.177,344.485,1053.558,336.614,1053.558"/>
<path fill="#FFFFFF" d="M311.622,784.04c-32.999,0-59.75,26.752-59.75,59.749c0,19.703,9.541,37.176,24.25,48.057v31.955
	c3.009,1.19,6.1,2.219,9.25,3.107V909.04h6v19.344c3.113,0.665,6.281,1.184,9.5,1.541V908.54h6v21.882
	c1.574,0.078,3.156,0.118,4.75,0.118c1.592,0,3.175-0.04,4.751-0.118V908.04h6v21.885c3.217-0.357,6.385-0.876,9.5-1.541V907.54h6
	v19.368c3.148-0.89,6.24-1.917,9.25-3.107v-31.955c14.709-10.881,24.25-28.354,24.25-48.057
	C371.373,810.792,344.621,784.04,311.622,784.04 M285.886,861.04c-7.869,0-14.25-6.381-14.25-14.251
	c0-7.869,6.381-14.249,14.25-14.249c7.87,0,14.25,6.38,14.25,14.249C300.136,854.659,293.756,861.04,285.886,861.04 M300.387,879.04
	l11.235-22.765l11.235,22.765H300.387z M337.357,861.04c-7.869,0-14.25-6.381-14.25-14.251c0-7.869,6.381-14.249,14.25-14.249
	c7.87,0,14.25,6.38,14.25,14.249C351.607,854.659,345.229,861.04,337.357,861.04"/>
<path fill="#FFFFFF" d="M309.754,586.239c-32.999,0-59.75,26.752-59.75,59.751c0,19.702,9.541,37.174,24.25,48.056V726
	c3.009,1.19,6.1,2.221,9.25,3.108v-17.869h6v19.345c3.113,0.665,6.281,1.183,9.5,1.54v-21.385h6v21.884
	c1.574,0.076,3.156,0.116,4.75,0.116c1.592,0,3.175-0.04,4.751-0.116v-22.384h6v21.885c3.217-0.357,6.385-0.875,9.5-1.54v-20.845h6
	v19.369c3.148-0.889,6.24-1.919,9.25-3.108v-31.954c14.709-10.882,24.25-28.354,24.25-48.056
	C369.505,612.991,342.753,586.239,309.754,586.239 M284.018,663.239c-7.869,0-14.25-6.381-14.25-14.249
	c0-7.87,6.381-14.251,14.25-14.251c7.87,0,14.25,6.381,14.25,14.251C298.268,656.858,291.888,663.239,284.018,663.239
	 M298.519,681.239l11.235-22.764l11.235,22.764H298.519z M335.49,663.239c-7.869,0-14.25-6.381-14.25-14.249
	c0-7.87,6.381-14.251,14.25-14.251c7.871,0,14.25,6.381,14.25,14.251C349.74,656.858,343.361,663.239,335.49,663.239"/>
<path fill="#FFFFFF" d="M309.754,378.655c-32.999,0-59.75,26.752-59.75,59.751c0,19.702,9.541,37.174,24.25,48.056v31.954
	c3.009,1.19,6.1,2.221,9.25,3.108v-17.869h6V523c3.113,0.665,6.281,1.183,9.5,1.54v-21.385h6v21.884
	c1.574,0.076,3.156,0.116,4.75,0.116c1.592,0,3.175-0.04,4.751-0.116v-22.384h6v21.885c3.217-0.357,6.385-0.875,9.5-1.54v-20.845h6
	v19.368c3.148-0.888,6.24-1.918,9.25-3.107v-31.954c14.709-10.882,24.25-28.354,24.25-48.056
	C369.505,405.407,342.753,378.655,309.754,378.655 M284.018,455.655c-7.869,0-14.25-6.381-14.25-14.249
	c0-7.87,6.381-14.251,14.25-14.251c7.87,0,14.25,6.381,14.25,14.251C298.268,449.274,291.888,455.655,284.018,455.655
	 M298.519,473.655l11.235-22.764l11.235,22.764H298.519z M335.49,455.655c-7.869,0-14.25-6.381-14.25-14.249
	c0-7.87,6.381-14.251,14.25-14.251c7.871,0,14.25,6.381,14.25,14.251C349.74,449.274,343.361,455.655,335.49,455.655"/>
<path fill="#FFFFFF" d="M309.755,184.655c-32.999,0-59.75,26.752-59.75,59.751c0,19.701,9.541,37.174,24.25,48.056v31.954
	c3.009,1.189,6.1,2.221,9.25,3.107v-17.868h6V329c3.113,0.664,6.281,1.184,9.5,1.54v-21.386h6v21.885
	c1.574,0.076,3.156,0.115,4.75,0.115c1.592,0,3.175-0.039,4.751-0.115v-22.385h6v21.886c3.217-0.356,6.385-0.876,9.5-1.54v-20.846h6
	v19.369c3.148-0.888,6.24-1.918,9.25-3.107v-31.954c14.709-10.882,24.25-28.354,24.25-48.056
	C369.506,211.407,342.754,184.655,309.755,184.655 M284.019,261.655c-7.869,0-14.25-6.382-14.25-14.249
	c0-7.87,6.381-14.251,14.25-14.251c7.87,0,14.25,6.381,14.25,14.251C298.269,255.273,291.889,261.655,284.019,261.655
	 M298.52,279.655l11.235-22.763l11.235,22.763H298.52z M335.49,261.655c-7.869,0-14.25-6.382-14.25-14.249
	c0-7.87,6.381-14.251,14.25-14.251c7.871,0,14.25,6.381,14.25,14.251C349.74,255.273,343.361,261.655,335.49,261.655"/>
<rect x="432.465" y="11300.598" fill="none" width="1455.886" height="227.603"/>
<text transform="matrix(0.9766 0 0 1 605.5273 11513.5938)" fill="#CC0000" font-family="'MyriadPro-Bold'" font-size="300" letter-spacing="6.144">DEATHS</text>
<text transform="matrix(0.9766 0 0 1 533.2207 11873.9102)" font-family="'MyriadPro-Regular'" font-size="300"> </text>
<text transform="matrix(0.9766 0 0 1 595.3301 11873.9102)" font-family="'MyriadPro-Bold'" font-size="300" letter-spacing="6.144">DISEASE</text>
<text transform="matrix(0.9766 0 0 1 1007.5684 12012.2998)" font-family="'MyriadPro-Regular'" font-size="79.865">EVERY </text>
<text transform="matrix(0.9766 0 0 1 1007.5684 12099.4248)" font-family="'MyriadPro-Regular'" font-size="87.1254">YEAR</text>
<rect x="1420.131" y="15022.801" fill="none" width="346.955" height="156.043"/>
<text transform="matrix(0.9766 0 0 1 1007.5684 11621.9814)" font-family="'MyriadPro-Regular'" font-size="87.1254">FROM</text>
<text transform="matrix(0.9766 0 0 1 924.3652 14391.9336)" font-family="'MyriadPro-Regular'" font-size="174.2508">2,996</text>
<rect x="432.465" y="14450.584" fill="none" width="1455.887" height="227.604"/>
<text transform="matrix(0.9766 0 0 1 605.5273 14663.582)" fill="#CC0000" font-family="'MyriadPro-Bold'" font-size="300" letter-spacing="6.144">DEATHS</text>
<text transform="matrix(0.9766 0 0 1 483.9326 14957.3359)" font-family="'MyriadPro-Regular'" font-size="175"> </text>
<text transform="matrix(0.9766 0 0 1 520.1621 14957.3359)" font-family="'MyriadPro-Bold'" font-size="175" letter-spacing="3.072">9/11 TERRORIST</text>
<text transform="matrix(0.9766 0 0 1 855.5684 15156.5605)" font-family="'MyriadPro-Regular'" font-size="150">ATTACKS</text>
<text transform="matrix(0.9766 0 0 1 1029.6953 14771.9688)" font-family="'MyriadPro-Regular'" font-size="87.1254">FROM</text>
<text transform="matrix(1 0 0 1 35.8906 16230.4844)" font-family="'MyriadPro-Regular'" font-size="18">https://en.wikipedia.org/wiki/Casualties_of_the_September_11_attacks</text>
<text transform="matrix(0.9766 0 0 1 587.4609 16024.5977)" font-family="'MyriadPro-Regular'" font-size="87.1254">(ENLARGED FROM 0.08 PIXELS</text>
<text transform="matrix(0.9766 0 0 1 657.6133 16111.7227)" font-family="'MyriadPro-Regular'" font-size="87.1254">TO 1 PIXEL FOR VISIBILITY)</text>
</svg>
