<?xml version="1.0" encoding="iso-8859-1"?>
<!-- Generator: Adobe Illustrator 19.0.0, SVG Export Plug-In . SVG Version: 6.00 Build 0)  -->
<svg version="1.1" id="Capa_1" xmlns="http://www.w3.org/2000/svg" xmlns:xlink="http://www.w3.org/1999/xlink" x="0px" y="0px"
	 viewBox="0 0 470.071 470.071" style="enable-background:new 0 0 470.071 470.071;" xml:space="preserve">
<g>
	<path style="fill:#FCDB5A;" d="M305.056,96.462v-2.254c0-4.142,3.357-7.5,7.5-7.5s7.5,3.358,7.5,7.5v2.254h36.872v-2.254
		c0-4.142,3.357-7.5,7.5-7.5s7.5,3.358,7.5,7.5v2.254h21.497C389.604,50.905,351.31,15,304.782,15
		c-46.528,0-84.821,35.905-88.643,81.462H305.056z M330.992,50.912c0-4.142,3.357-7.5,7.5-7.5s7.5,3.358,7.5,7.5v23.051
		c0,4.142-3.357,7.5-7.5,7.5s-7.5-3.358-7.5-7.5V50.912z"/>
	<rect x="320.056" y="315.968" style="fill:#D35B38;" width="36.872" height="36.126"/>
	<rect x="320.056" y="264.842" style="fill:#D35B38;" width="36.872" height="36.126"/>
	<rect x="320.056" y="162.589" style="fill:#D35B38;" width="36.872" height="36.126"/>
	<rect x="320.056" y="111.462" style="fill:#D35B38;" width="36.872" height="36.126"/>
	<rect x="320.056" y="213.715" style="fill:#D35B38;" width="36.872" height="36.126"/>
	<path style="fill:#D35B38;" d="M371.928,111.462v299.259c0,4.142-3.357,7.5-7.5,7.5s-7.5-3.358-7.5-7.5v-43.626h-36.872v43.626
		c0,4.142-3.357,7.5-7.5,7.5s-7.5-3.358-7.5-7.5V111.462H215.82v189.067c0,0.025,0,30.133,0,30.133c0,4.142-3.357,7.5-7.5,7.5
		c-4.145-0.003-7.5-3.359-7.5-7.5v-20.642l-116.1,25.898v119.147l116.1-0.022v-94.38c0-4.141,3.355-7.497,7.496-7.5
		c4.147,0,7.504,3.358,7.504,7.5v94.378l177.925-0.034V111.462H371.928z M155.634,393.526c0,4.142-3.357,7.5-7.5,7.5h-35
		c-4.143,0-7.5-3.358-7.5-7.5v-35c0-4.142,3.357-7.5,7.5-7.5h35c4.143,0,7.5,3.358,7.5,7.5V393.526z"/>
	<path style="fill:#4D3D36;" d="M422.85,455l-14.105,0.003V110.724c2.523-1.208,4.271-3.777,4.271-6.761
		c0-3.076-1.854-5.716-4.503-6.873C404.96,42.956,359.797,0,304.782,0S204.604,42.956,201.053,97.089
		c-2.65,1.157-4.503,3.797-4.503,6.873c0,2.984,1.747,5.554,4.271,6.761V294.65L63.909,325.191
		c-4.043,0.902-6.589,4.911-5.688,8.953c0.779,3.493,3.878,5.869,7.313,5.869c0.541,0,1.09-0.059,1.64-0.181l2.546-0.568v115.803
		l-22.501,0.004c-4.143,0.001-7.5,3.359-7.499,7.501s3.359,7.5,7.501,7.499l29.887-0.006c0.038,0.001,0.074,0.006,0.112,0.006
		c0.038,0,0.075-0.005,0.113-0.006L422.852,470c4.143-0.001,7.5-3.359,7.499-7.501S426.992,454.999,422.85,455z M200.82,310.019
		v20.642c0,4.141,3.355,7.497,7.496,7.5c4.147,0,7.504-3.358,7.504-7.5V111.462h89.236v299.259c0,4.142,3.357,7.5,7.5,7.5
		s7.5-3.358,7.5-7.5v-43.626h36.872v43.626c0,4.142,3.357,7.5,7.5,7.5s7.5-3.358,7.5-7.5V111.462h21.816v343.543l-177.925,0.034
		v-94.378c0-4.142-3.357-7.5-7.5-7.5c-4.145,0.003-7.5,3.359-7.5,7.5v94.38l-116.1,0.022V335.918L200.82,310.019z M304.782,15
		c46.528,0,84.822,35.905,88.644,81.462h-21.497v-2.254c0-4.142-3.357-7.5-7.5-7.5s-7.5,3.358-7.5,7.5v2.254h-36.872v-2.254
		c0-4.142-3.357-7.5-7.5-7.5s-7.5,3.358-7.5,7.5v2.254h-88.917C219.96,50.905,258.254,15,304.782,15z M320.056,213.715h36.872
		v36.126h-36.872V213.715z M320.056,264.842h36.872v36.126h-36.872V264.842z M356.928,198.715h-36.872v-36.126h36.872V198.715z
		 M320.056,315.968h36.872v36.126h-36.872V315.968z M356.928,147.589h-36.872v-36.126h36.872V147.589z"/>
	<path style="fill:#4D3D36;" d="M338.492,81.462c4.143,0,7.5-3.358,7.5-7.5V50.912c0-4.142-3.357-7.5-7.5-7.5s-7.5,3.358-7.5,7.5
		v23.051C330.992,78.104,334.349,81.462,338.492,81.462z"/>
	<rect x="120.634" y="366.026" style="fill:#FFFFFF;" width="20" height="20"/>
	<path style="fill:#4D3D36;" d="M113.134,401.026h35c4.143,0,7.5-3.358,7.5-7.5v-35c0-4.142-3.357-7.5-7.5-7.5h-35
		c-4.143,0-7.5,3.358-7.5,7.5v35C105.634,397.668,108.992,401.026,113.134,401.026z M120.634,366.026h20v20h-20V366.026z"/>
</g>
<g>
</g>
<g>
</g>
<g>
</g>
<g>
</g>
<g>
</g>
<g>
</g>
<g>
</g>
<g>
</g>
<g>
</g>
<g>
</g>
<g>
</g>
<g>
</g>
<g>
</g>
<g>
</g>
<g>
</g>
</svg>
