<?xml version="1.0" encoding="iso-8859-1"?>
<!-- Generator: Adobe Illustrator 17.1.0, SVG Export Plug-In . SVG Version: 6.00 Build 0)  -->
<!DOCTYPE svg PUBLIC "-//W3C//DTD SVG 1.1//EN" "http://www.w3.org/Graphics/SVG/1.1/DTD/svg11.dtd">
<svg version="1.1" id="Capa_1" xmlns="http://www.w3.org/2000/svg" xmlns:xlink="http://www.w3.org/1999/xlink" x="0px" y="0px"
	 viewBox="0 0 470.071 470.071" style="enable-background:new 0 0 470.071 470.071;" xml:space="preserve">
<g>
	<path d="M422.85,455l-14.105,0.003V110.724c2.523-1.208,4.271-3.777,4.271-6.761c0-3.076-1.854-5.716-4.503-6.873
		C404.96,42.956,359.797,0,304.782,0S204.604,42.956,201.053,97.089c-2.65,1.157-4.503,3.797-4.503,6.873
		c0,2.984,1.747,5.554,4.271,6.761V294.65L63.909,325.191c-4.043,0.902-6.589,4.911-5.688,8.953
		c0.779,3.493,3.878,5.869,7.313,5.869c0.541,0,1.09-0.059,1.64-0.181l2.546-0.568v115.803l-22.501,0.004
		c-4.143,0.001-7.5,3.359-7.499,7.501s3.359,7.5,7.501,7.499l29.887-0.006c0.038,0.001,0.074,0.006,0.112,0.006
		c0.038,0,0.075-0.005,0.113-0.006L422.852,470c4.143-0.001,7.5-3.359,7.499-7.501S426.992,454.999,422.85,455z M200.82,310.019
		v20.642c0,4.141,3.355,7.497,7.496,7.5c4.147,0,7.504-3.358,7.504-7.5V111.462h89.236v299.259c0,4.142,3.357,7.5,7.5,7.5
		s7.5-3.358,7.5-7.5v-43.626h36.872v43.626c0,4.142,3.357,7.5,7.5,7.5s7.5-3.358,7.5-7.5V111.462h21.816v343.543l-177.925,0.034
		v-94.378c0-4.142-3.357-7.5-7.5-7.5c-4.145,0.003-7.5,3.359-7.5,7.5v94.38l-116.1,0.022V335.918L200.82,310.019z M304.782,15
		c46.528,0,84.822,35.905,88.644,81.462h-21.497v-2.254c0-4.142-3.357-7.5-7.5-7.5s-7.5,3.358-7.5,7.5v2.254h-36.872v-2.254
		c0-4.142-3.357-7.5-7.5-7.5s-7.5,3.358-7.5,7.5v2.254h-88.917C219.96,50.905,258.254,15,304.782,15z M320.056,213.715h36.872
		v36.126h-36.872V213.715z M320.056,264.842h36.872v36.126h-36.872V264.842z M356.928,198.715h-36.872v-36.126h36.872V198.715z
		 M320.056,315.968h36.872v36.126h-36.872V315.968z M356.928,147.589h-36.872v-36.126h36.872V147.589z"/>
	<path d="M338.492,81.462c4.143,0,7.5-3.358,7.5-7.5V50.912c0-4.142-3.357-7.5-7.5-7.5s-7.5,3.358-7.5,7.5v23.051
		C330.992,78.104,334.349,81.462,338.492,81.462z"/>
	<path d="M113.134,401.026h35c4.143,0,7.5-3.358,7.5-7.5v-35c0-4.142-3.357-7.5-7.5-7.5h-35c-4.143,0-7.5,3.358-7.5,7.5v35
		C105.634,397.668,108.992,401.026,113.134,401.026z M120.634,366.026h20v20h-20V366.026z"/>
</g>
<g>
</g>
<g>
</g>
<g>
</g>
<g>
</g>
<g>
</g>
<g>
</g>
<g>
</g>
<g>
</g>
<g>
</g>
<g>
</g>
<g>
</g>
<g>
</g>
<g>
</g>
<g>
</g>
<g>
</g>
</svg>
